<ttFont>
    <TTGlyph name=".notdef" xMin="1" yMin="0" xMax="505" yMax="701">
      <contour>
        <pt x="253" y="302" on="1"/>
        <pt x="249" y="302" on="1"/>
        <pt x="149" y="93" on="1"/>
        <pt x="89" y="93" on="1"/>
        <pt x="223" y="353" on="1"/>
        <pt x="89" y="608" on="1"/>
        <pt x="149" y="608" on="1"/>
        <pt x="254" y="402" on="1"/>
        <pt x="258" y="402" on="1"/>
        <pt x="358" y="608" on="1"/>
        <pt x="418" y="608" on="1"/>
        <pt x="283" y="347" on="1"/>
        <pt x="418" y="93" on="1"/>
        <pt x="358" y="93" on="1"/>
      </contour>
      <contour>
        <pt x="53" y="651" on="1"/>
        <pt x="53" y="50" on="1"/>
        <pt x="453" y="50" on="1"/>
        <pt x="453" y="651" on="1"/>
      </contour>
      <contour>
        <pt x="1" y="0" on="1"/>
        <pt x="1" y="701" on="1"/>
        <pt x="505" y="701" on="1"/>
        <pt x="505" y="0" on="1"/>
      </contour>
    </TTGlyph>
    <TTGlyph name="A" xMin="35" yMin="0" xMax="613" yMax="674">
      <contour>
        <pt x="526" y="0" on="1"/>
        <pt x="467" y="177" on="1"/>
        <pt x="182" y="177" on="1"/>
        <pt x="122" y="0" on="1"/>
        <pt x="35" y="0" on="1"/>
        <pt x="270" y="674" on="1"/>
        <pt x="382" y="674" on="1"/>
        <pt x="613" y="0" on="1"/>
      </contour>
      <contour>
        <pt x="205" y="246" on="1"/>
        <pt x="444" y="246" on="1"/>
        <pt x="326" y="609" on="1"/>
        <pt x="312" y="558" on="0"/>
      </contour>
    </TTGlyph>
    <TTGlyph name="AE" xMin="23" yMin="0" xMax="831" yMax="674">
      <contour>
        <pt x="536" y="71" on="1"/>
        <pt x="831" y="71" on="1"/>
        <pt x="831" y="0" on="1"/>
        <pt x="456" y="0" on="1"/>
        <pt x="456" y="177" on="1"/>
        <pt x="212" y="177" on="1"/>
        <pt x="110" y="0" on="1"/>
        <pt x="23" y="0" on="1"/>
        <pt x="406" y="674" on="1"/>
        <pt x="825" y="674" on="1"/>
        <pt x="825" y="603" on="1"/>
        <pt x="536" y="603" on="1"/>
        <pt x="536" y="372" on="1"/>
        <pt x="792" y="372" on="1"/>
        <pt x="792" y="301" on="1"/>
        <pt x="536" y="301" on="1"/>
      </contour>
      <contour>
        <pt x="456" y="246" on="1"/>
        <pt x="456" y="610" on="1"/>
        <pt x="391" y="487" on="0"/>
        <pt x="252" y="246" on="1"/>
      </contour>
    </TTGlyph>
    <TTGlyph name="Aacute" xMin="35" yMin="0" xMax="613" yMax="883">
      <contour>
        <pt x="526" y="0" on="1"/>
        <pt x="467" y="177" on="1"/>
        <pt x="182" y="177" on="1"/>
        <pt x="122" y="0" on="1"/>
        <pt x="35" y="0" on="1"/>
        <pt x="270" y="674" on="1"/>
        <pt x="382" y="674" on="1"/>
        <pt x="613" y="0" on="1"/>
      </contour>
      <contour>
        <pt x="205" y="246" on="1"/>
        <pt x="444" y="246" on="1"/>
        <pt x="326" y="609" on="1"/>
        <pt x="312" y="558" on="0"/>
      </contour>
      <contour>
        <pt x="492" y="883" on="1"/>
        <pt x="368" y="727" on="1"/>
        <pt x="299" y="727" on="1"/>
        <pt x="398" y="883" on="1"/>
      </contour>
    </TTGlyph>
    <TTGlyph name="Abreve" xMin="35" yMin="0" xMax="613" yMax="882">
      <contour>
        <pt x="526" y="0" on="1"/>
        <pt x="467" y="177" on="1"/>
        <pt x="182" y="177" on="1"/>
        <pt x="122" y="0" on="1"/>
        <pt x="35" y="0" on="1"/>
        <pt x="270" y="674" on="1"/>
        <pt x="382" y="674" on="1"/>
        <pt x="613" y="0" on="1"/>
      </contour>
      <contour>
        <pt x="205" y="246" on="1"/>
        <pt x="444" y="246" on="1"/>
        <pt x="326" y="609" on="1"/>
        <pt x="312" y="558" on="0"/>
      </contour>
      <contour>
        <pt x="425" y="882" on="1"/>
        <pt x="490" y="882" on="1"/>
        <pt x="490" y="809" on="0"/>
        <pt x="408" y="723" on="0"/>
        <pt x="244" y="723" on="0"/>
        <pt x="161" y="809" on="0"/>
        <pt x="161" y="882" on="1"/>
        <pt x="226" y="882" on="1"/>
        <pt x="226" y="836" on="0"/>
        <pt x="274" y="780" on="0"/>
        <pt x="377" y="780" on="0"/>
        <pt x="425" y="836" on="0"/>
      </contour>
    </TTGlyph>
    <TTGlyph name="Acircumflex" xMin="35" yMin="0" xMax="613" yMax="883">
      <contour>
        <pt x="526" y="0" on="1"/>
        <pt x="467" y="177" on="1"/>
        <pt x="182" y="177" on="1"/>
        <pt x="122" y="0" on="1"/>
        <pt x="35" y="0" on="1"/>
        <pt x="270" y="674" on="1"/>
        <pt x="382" y="674" on="1"/>
        <pt x="613" y="0" on="1"/>
      </contour>
      <contour>
        <pt x="205" y="246" on="1"/>
        <pt x="444" y="246" on="1"/>
        <pt x="326" y="609" on="1"/>
        <pt x="312" y="558" on="0"/>
      </contour>
      <contour>
        <pt x="327" y="832" on="1"/>
        <pt x="242" y="727" on="1"/>
        <pt x="162" y="727" on="1"/>
        <pt x="289" y="883" on="1"/>
        <pt x="365" y="883" on="1"/>
        <pt x="492" y="727" on="1"/>
        <pt x="412" y="727" on="1"/>
      </contour>
    </TTGlyph>
    <TTGlyph name="Adieresis" xMin="35" yMin="0" xMax="613" yMax="857">
      <contour>
        <pt x="526" y="0" on="1"/>
        <pt x="467" y="177" on="1"/>
        <pt x="182" y="177" on="1"/>
        <pt x="122" y="0" on="1"/>
        <pt x="35" y="0" on="1"/>
        <pt x="270" y="674" on="1"/>
        <pt x="382" y="674" on="1"/>
        <pt x="613" y="0" on="1"/>
      </contour>
      <contour>
        <pt x="205" y="246" on="1"/>
        <pt x="444" y="246" on="1"/>
        <pt x="326" y="609" on="1"/>
        <pt x="312" y="558" on="0"/>
      </contour>
      <contour>
        <pt x="249" y="754" on="0"/>
        <pt x="205" y="754" on="0"/>
        <pt x="175" y="784" on="0"/>
        <pt x="175" y="828" on="0"/>
        <pt x="205" y="857" on="0"/>
        <pt x="249" y="857" on="0"/>
        <pt x="278" y="828" on="0"/>
        <pt x="278" y="784" on="0"/>
      </contour>
      <contour>
        <pt x="450" y="754" on="0"/>
        <pt x="406" y="754" on="0"/>
        <pt x="377" y="784" on="0"/>
        <pt x="377" y="828" on="0"/>
        <pt x="406" y="857" on="0"/>
        <pt x="450" y="857" on="0"/>
        <pt x="480" y="828" on="0"/>
        <pt x="480" y="784" on="0"/>
      </contour>
    </TTGlyph>
    <TTGlyph name="Agrave" xMin="35" yMin="0" xMax="613" yMax="883">
      <contour>
        <pt x="526" y="0" on="1"/>
        <pt x="467" y="177" on="1"/>
        <pt x="182" y="177" on="1"/>
        <pt x="122" y="0" on="1"/>
        <pt x="35" y="0" on="1"/>
        <pt x="270" y="674" on="1"/>
        <pt x="382" y="674" on="1"/>
        <pt x="613" y="0" on="1"/>
      </contour>
      <contour>
        <pt x="205" y="246" on="1"/>
        <pt x="444" y="246" on="1"/>
        <pt x="326" y="609" on="1"/>
        <pt x="312" y="558" on="0"/>
      </contour>
      <contour>
        <pt x="354" y="727" on="1"/>
        <pt x="285" y="727" on="1"/>
        <pt x="161" y="883" on="1"/>
        <pt x="256" y="883" on="1"/>
      </contour>
    </TTGlyph>
    <TTGlyph name="Amacron" xMin="35" yMin="0" xMax="613" yMax="833">
      <contour>
        <pt x="526" y="0" on="1"/>
        <pt x="467" y="177" on="1"/>
        <pt x="182" y="177" on="1"/>
        <pt x="122" y="0" on="1"/>
        <pt x="35" y="0" on="1"/>
        <pt x="270" y="674" on="1"/>
        <pt x="382" y="674" on="1"/>
        <pt x="613" y="0" on="1"/>
      </contour>
      <contour>
        <pt x="205" y="246" on="1"/>
        <pt x="444" y="246" on="1"/>
        <pt x="326" y="609" on="1"/>
        <pt x="312" y="558" on="0"/>
      </contour>
      <contour>
        <pt x="468" y="833" on="1"/>
        <pt x="468" y="777" on="1"/>
        <pt x="186" y="777" on="1"/>
        <pt x="186" y="833" on="1"/>
      </contour>
    </TTGlyph>
    <TTGlyph name="Aogonek" xMin="34" yMin="-242" xMax="633" yMax="674">
      <contour>
        <pt x="500" y="-125" on="1"/>
        <pt x="500" y="-154" on="0"/>
        <pt x="534" y="-184" on="0"/>
        <pt x="602" y="-184" on="0"/>
        <pt x="633" y="-162" on="1"/>
        <pt x="633" y="-222" on="1"/>
        <pt x="602" y="-242" on="0"/>
        <pt x="495" y="-242" on="0"/>
        <pt x="431" y="-180" on="0"/>
        <pt x="431" y="-132" on="1"/>
        <pt x="431" y="-48" on="0"/>
        <pt x="522" y="10" on="1"/>
        <pt x="466" y="177" on="1"/>
        <pt x="181" y="177" on="1"/>
        <pt x="121" y="0" on="1"/>
        <pt x="34" y="0" on="1"/>
        <pt x="269" y="674" on="1"/>
        <pt x="381" y="674" on="1"/>
        <pt x="612" y="0" on="1"/>
        <pt x="500" y="-55" on="0"/>
      </contour>
      <contour>
        <pt x="204" y="246" on="1"/>
        <pt x="443" y="246" on="1"/>
        <pt x="325" y="609" on="1"/>
        <pt x="311" y="558" on="0"/>
      </contour>
    </TTGlyph>
    <TTGlyph name="Aring" xMin="35" yMin="0" xMax="613" yMax="930">
      <contour>
        <pt x="526" y="0" on="1"/>
        <pt x="467" y="177" on="1"/>
        <pt x="182" y="177" on="1"/>
        <pt x="122" y="0" on="1"/>
        <pt x="35" y="0" on="1"/>
        <pt x="270" y="674" on="1"/>
        <pt x="382" y="674" on="1"/>
        <pt x="613" y="0" on="1"/>
      </contour>
      <contour>
        <pt x="205" y="246" on="1"/>
        <pt x="444" y="246" on="1"/>
        <pt x="326" y="609" on="1"/>
        <pt x="312" y="558" on="0"/>
      </contour>
      <contour>
        <pt x="371" y="717" on="0"/>
        <pt x="283" y="717" on="0"/>
        <pt x="221" y="779" on="0"/>
        <pt x="221" y="867" on="0"/>
        <pt x="283" y="930" on="0"/>
        <pt x="371" y="930" on="0"/>
        <pt x="433" y="867" on="0"/>
        <pt x="433" y="779" on="0"/>
      </contour>
      <contour>
        <pt x="381" y="846" on="0"/>
        <pt x="350" y="878" on="0"/>
        <pt x="305" y="878" on="0"/>
        <pt x="274" y="847" on="0"/>
        <pt x="274" y="802" on="0"/>
        <pt x="305" y="770" on="0"/>
        <pt x="349" y="770" on="0"/>
        <pt x="381" y="802" on="0"/>
      </contour>
    </TTGlyph>
    <TTGlyph name="Atilde" xMin="35" yMin="0" xMax="613" yMax="861">
      <contour>
        <pt x="526" y="0" on="1"/>
        <pt x="467" y="177" on="1"/>
        <pt x="182" y="177" on="1"/>
        <pt x="122" y="0" on="1"/>
        <pt x="35" y="0" on="1"/>
        <pt x="270" y="674" on="1"/>
        <pt x="382" y="674" on="1"/>
        <pt x="613" y="0" on="1"/>
      </contour>
      <contour>
        <pt x="205" y="246" on="1"/>
        <pt x="444" y="246" on="1"/>
        <pt x="326" y="609" on="1"/>
        <pt x="312" y="558" on="0"/>
      </contour>
      <contour>
        <pt x="396" y="757" on="1"/>
        <pt x="369" y="757" on="0"/>
        <pt x="284" y="801" on="0"/>
        <pt x="268" y="801" on="1"/>
        <pt x="227" y="801" on="0"/>
        <pt x="200" y="753" on="1"/>
        <pt x="157" y="790" on="1"/>
        <pt x="171" y="820" on="0"/>
        <pt x="226" y="861" on="0"/>
        <pt x="288" y="861" on="0"/>
        <pt x="374" y="817" on="0"/>
        <pt x="392" y="817" on="1"/>
        <pt x="426" y="817" on="0"/>
        <pt x="446" y="860" on="1"/>
        <pt x="495" y="826" on="1"/>
        <pt x="463" y="757" on="0"/>
      </contour>
    </TTGlyph>
    <TTGlyph name="B" xMin="77" yMin="0" xMax="528" yMax="674">
      <contour>
        <pt x="77" y="674" on="1"/>
        <pt x="280" y="674" on="1"/>
        <pt x="384" y="674" on="0"/>
        <pt x="509" y="578" on="0"/>
        <pt x="509" y="497" on="1"/>
        <pt x="509" y="439" on="0"/>
        <pt x="444" y="354" on="0"/>
        <pt x="393" y="343" on="1"/>
        <pt x="449" y="334" on="0"/>
        <pt x="528" y="251" on="0"/>
        <pt x="528" y="99" on="0"/>
        <pt x="421" y="0" on="0"/>
        <pt x="323" y="0" on="1"/>
        <pt x="77" y="0" on="1"/>
      </contour>
      <contour>
        <pt x="158" y="605" on="1"/>
        <pt x="158" y="375" on="1"/>
        <pt x="266" y="375" on="1"/>
        <pt x="347" y="375" on="0"/>
        <pt x="425" y="443" on="0"/>
        <pt x="425" y="544" on="0"/>
        <pt x="352" y="605" on="0"/>
        <pt x="280" y="605" on="1"/>
      </contour>
      <contour>
        <pt x="158" y="69" on="1"/>
        <pt x="311" y="69" on="1"/>
        <pt x="375" y="69" on="0"/>
        <pt x="444" y="128" on="0"/>
        <pt x="444" y="242" on="0"/>
        <pt x="367" y="306" on="0"/>
        <pt x="296" y="306" on="1"/>
        <pt x="158" y="306" on="1"/>
      </contour>
    </TTGlyph>
    <TTGlyph name="C" xMin="48" yMin="-8" xMax="560" yMax="683">
      <contour>
        <pt x="387" y="607" on="1"/>
        <pt x="278" y="607" on="0"/>
        <pt x="133" y="459" on="0"/>
        <pt x="133" y="216" on="0"/>
        <pt x="277" y="68" on="0"/>
        <pt x="396" y="68" on="1"/>
        <pt x="492" y="68" on="0"/>
        <pt x="560" y="119" on="1"/>
        <pt x="560" y="34" on="1"/>
        <pt x="498" y="-8" on="0"/>
        <pt x="390" y="-8" on="1"/>
        <pt x="238" y="-8" on="0"/>
        <pt x="48" y="179" on="0"/>
        <pt x="48" y="492" on="0"/>
        <pt x="241" y="683" on="0"/>
        <pt x="387" y="683" on="1"/>
        <pt x="492" y="683" on="0"/>
        <pt x="558" y="647" on="1"/>
        <pt x="558" y="564" on="1"/>
        <pt x="514" y="587" on="0"/>
        <pt x="444" y="607" on="0"/>
      </contour>
    </TTGlyph>
    <TTGlyph name="Cacute" xMin="48" yMin="-8" xMax="560" yMax="883">
      <contour>
        <pt x="330" y="727" on="1"/>
        <pt x="429" y="883" on="1"/>
        <pt x="523" y="883" on="1"/>
        <pt x="399" y="727" on="1"/>
      </contour>
      <contour>
        <pt x="387" y="607" on="1"/>
        <pt x="278" y="607" on="0"/>
        <pt x="133" y="459" on="0"/>
        <pt x="133" y="216" on="0"/>
        <pt x="277" y="68" on="0"/>
        <pt x="396" y="68" on="1"/>
        <pt x="492" y="68" on="0"/>
        <pt x="560" y="119" on="1"/>
        <pt x="560" y="34" on="1"/>
        <pt x="498" y="-8" on="0"/>
        <pt x="390" y="-8" on="1"/>
        <pt x="238" y="-8" on="0"/>
        <pt x="48" y="179" on="0"/>
        <pt x="48" y="492" on="0"/>
        <pt x="241" y="683" on="0"/>
        <pt x="387" y="683" on="1"/>
        <pt x="492" y="683" on="0"/>
        <pt x="558" y="647" on="1"/>
        <pt x="558" y="564" on="1"/>
        <pt x="514" y="587" on="0"/>
        <pt x="444" y="607" on="0"/>
      </contour>
    </TTGlyph>
    <TTGlyph name="Ccaron" xMin="48" yMin="-8" xMax="560" yMax="883">
      <contour>
        <pt x="416" y="727" on="1"/>
        <pt x="340" y="727" on="1"/>
        <pt x="213" y="883" on="1"/>
        <pt x="293" y="883" on="1"/>
        <pt x="379" y="778" on="1"/>
        <pt x="463" y="883" on="1"/>
        <pt x="543" y="883" on="1"/>
      </contour>
      <contour>
        <pt x="387" y="607" on="1"/>
        <pt x="278" y="607" on="0"/>
        <pt x="133" y="459" on="0"/>
        <pt x="133" y="216" on="0"/>
        <pt x="277" y="68" on="0"/>
        <pt x="396" y="68" on="1"/>
        <pt x="492" y="68" on="0"/>
        <pt x="560" y="119" on="1"/>
        <pt x="560" y="34" on="1"/>
        <pt x="498" y="-8" on="0"/>
        <pt x="390" y="-8" on="1"/>
        <pt x="238" y="-8" on="0"/>
        <pt x="48" y="179" on="0"/>
        <pt x="48" y="492" on="0"/>
        <pt x="241" y="683" on="0"/>
        <pt x="387" y="683" on="1"/>
        <pt x="492" y="683" on="0"/>
        <pt x="558" y="647" on="1"/>
        <pt x="558" y="564" on="1"/>
        <pt x="514" y="587" on="0"/>
        <pt x="444" y="607" on="0"/>
      </contour>
    </TTGlyph>
    <TTGlyph name="Ccedilla" xMin="48" yMin="-252" xMax="560" yMax="683">
      <contour>
        <pt x="387" y="607" on="1"/>
        <pt x="278" y="607" on="0"/>
        <pt x="133" y="459" on="0"/>
        <pt x="133" y="216" on="0"/>
        <pt x="277" y="68" on="0"/>
        <pt x="396" y="68" on="1"/>
        <pt x="492" y="68" on="0"/>
        <pt x="560" y="119" on="1"/>
        <pt x="560" y="34" on="1"/>
        <pt x="498" y="-8" on="0"/>
        <pt x="390" y="-8" on="1"/>
        <pt x="238" y="-8" on="0"/>
        <pt x="48" y="179" on="0"/>
        <pt x="48" y="492" on="0"/>
        <pt x="241" y="683" on="0"/>
        <pt x="387" y="683" on="1"/>
        <pt x="492" y="683" on="0"/>
        <pt x="558" y="647" on="1"/>
        <pt x="558" y="564" on="1"/>
        <pt x="514" y="587" on="0"/>
        <pt x="444" y="607" on="0"/>
      </contour>
      <contour>
        <pt x="404" y="-51" on="1"/>
        <pt x="422" y="-76" on="0"/>
        <pt x="422" y="-176" on="0"/>
        <pt x="345" y="-250" on="0"/>
        <pt x="272" y="-252" on="1"/>
        <pt x="272" y="-194" on="1"/>
        <pt x="356" y="-188" on="0"/>
        <pt x="356" y="-123" on="1"/>
        <pt x="356" y="-89" on="0"/>
        <pt x="333" y="-51" on="1"/>
      </contour>
    </TTGlyph>
    <TTGlyph name="Ccircumflex" xMin="48" yMin="-8" xMax="560" yMax="883">
      <contour>
        <pt x="325" y="883" on="1"/>
        <pt x="401" y="883" on="1"/>
        <pt x="528" y="727" on="1"/>
        <pt x="448" y="727" on="1"/>
        <pt x="363" y="832" on="1"/>
        <pt x="278" y="727" on="1"/>
        <pt x="198" y="727" on="1"/>
      </contour>
      <contour>
        <pt x="387" y="607" on="1"/>
        <pt x="278" y="607" on="0"/>
        <pt x="133" y="459" on="0"/>
        <pt x="133" y="216" on="0"/>
        <pt x="277" y="68" on="0"/>
        <pt x="396" y="68" on="1"/>
        <pt x="492" y="68" on="0"/>
        <pt x="560" y="119" on="1"/>
        <pt x="560" y="34" on="1"/>
        <pt x="498" y="-8" on="0"/>
        <pt x="390" y="-8" on="1"/>
        <pt x="238" y="-8" on="0"/>
        <pt x="48" y="179" on="0"/>
        <pt x="48" y="492" on="0"/>
        <pt x="241" y="683" on="0"/>
        <pt x="387" y="683" on="1"/>
        <pt x="492" y="683" on="0"/>
        <pt x="558" y="647" on="1"/>
        <pt x="558" y="564" on="1"/>
        <pt x="514" y="587" on="0"/>
        <pt x="444" y="607" on="0"/>
      </contour>
    </TTGlyph>
    <TTGlyph name="Cdotaccent" xMin="48" yMin="-8" xMax="560" yMax="859">
      <contour>
        <pt x="387" y="607" on="1"/>
        <pt x="278" y="607" on="0"/>
        <pt x="133" y="459" on="0"/>
        <pt x="133" y="216" on="0"/>
        <pt x="277" y="68" on="0"/>
        <pt x="396" y="68" on="1"/>
        <pt x="492" y="68" on="0"/>
        <pt x="560" y="119" on="1"/>
        <pt x="560" y="34" on="1"/>
        <pt x="498" y="-8" on="0"/>
        <pt x="390" y="-8" on="1"/>
        <pt x="238" y="-8" on="0"/>
        <pt x="48" y="179" on="0"/>
        <pt x="48" y="492" on="0"/>
        <pt x="241" y="683" on="0"/>
        <pt x="387" y="683" on="1"/>
        <pt x="492" y="683" on="0"/>
        <pt x="558" y="647" on="1"/>
        <pt x="558" y="564" on="1"/>
        <pt x="514" y="587" on="0"/>
        <pt x="444" y="607" on="0"/>
      </contour>
      <contour>
        <pt x="320" y="786" on="0"/>
        <pt x="320" y="830" on="0"/>
        <pt x="350" y="859" on="0"/>
        <pt x="394" y="859" on="0"/>
        <pt x="423" y="830" on="0"/>
        <pt x="423" y="786" on="0"/>
        <pt x="394" y="756" on="0"/>
        <pt x="350" y="756" on="0"/>
      </contour>
    </TTGlyph>
    <TTGlyph name="D" xMin="77" yMin="0" xMax="617" yMax="674">
      <contour>
        <pt x="77" y="674" on="1"/>
        <pt x="277" y="674" on="1"/>
        <pt x="426" y="674" on="0"/>
        <pt x="617" y="489" on="0"/>
        <pt x="617" y="196" on="0"/>
        <pt x="440" y="0" on="0"/>
        <pt x="281" y="0" on="1"/>
        <pt x="77" y="0" on="1"/>
      </contour>
      <contour>
        <pt x="159" y="71" on="1"/>
        <pt x="280" y="71" on="1"/>
        <pt x="405" y="71" on="0"/>
        <pt x="533" y="226" on="0"/>
        <pt x="533" y="452" on="0"/>
        <pt x="390" y="602" on="0"/>
        <pt x="276" y="602" on="1"/>
        <pt x="159" y="602" on="1"/>
      </contour>
    </TTGlyph>
    <TTGlyph name="Dcaron" xMin="77" yMin="0" xMax="617" yMax="882">
      <contour>
        <pt x="77" y="674" on="1"/>
        <pt x="277" y="674" on="1"/>
        <pt x="426" y="674" on="0"/>
        <pt x="617" y="489" on="0"/>
        <pt x="617" y="196" on="0"/>
        <pt x="440" y="0" on="0"/>
        <pt x="281" y="0" on="1"/>
        <pt x="77" y="0" on="1"/>
      </contour>
      <contour>
        <pt x="159" y="71" on="1"/>
        <pt x="280" y="71" on="1"/>
        <pt x="405" y="71" on="0"/>
        <pt x="533" y="226" on="0"/>
        <pt x="533" y="452" on="0"/>
        <pt x="390" y="602" on="0"/>
        <pt x="276" y="602" on="1"/>
        <pt x="159" y="602" on="1"/>
      </contour>
      <contour>
        <pt x="344" y="726" on="1"/>
        <pt x="268" y="726" on="1"/>
        <pt x="141" y="882" on="1"/>
        <pt x="221" y="882" on="1"/>
        <pt x="307" y="777" on="1"/>
        <pt x="391" y="882" on="1"/>
        <pt x="471" y="882" on="1"/>
      </contour>
    </TTGlyph>
    <TTGlyph name="Dcroat" xMin="61" yMin="0" xMax="686" yMax="674">
      <contour>
        <pt x="146" y="674" on="1"/>
        <pt x="346" y="674" on="1"/>
        <pt x="496" y="674" on="0"/>
        <pt x="686" y="489" on="0"/>
        <pt x="686" y="196" on="0"/>
        <pt x="509" y="0" on="0"/>
        <pt x="350" y="0" on="1"/>
        <pt x="146" y="0" on="1"/>
        <pt x="146" y="304" on="1"/>
        <pt x="61" y="304" on="1"/>
        <pt x="61" y="372" on="1"/>
        <pt x="146" y="372" on="1"/>
      </contour>
      <contour>
        <pt x="228" y="71" on="1"/>
        <pt x="350" y="71" on="1"/>
        <pt x="414" y="71" on="0"/>
        <pt x="513" y="115" on="0"/>
        <pt x="542" y="154" on="1"/>
        <pt x="602" y="231" on="0"/>
        <pt x="602" y="452" on="0"/>
        <pt x="460" y="602" on="0"/>
        <pt x="345" y="602" on="1"/>
        <pt x="228" y="602" on="1"/>
        <pt x="228" y="372" on="1"/>
        <pt x="403" y="372" on="1"/>
        <pt x="403" y="304" on="1"/>
        <pt x="228" y="304" on="1"/>
      </contour>
    </TTGlyph>
    <TTGlyph name="Delta" xMin="31" yMin="0" xMax="587" yMax="674">
      <contour>
        <pt x="587" y="0" on="1"/>
        <pt x="31" y="0" on="1"/>
        <pt x="31" y="66" on="1"/>
        <pt x="255" y="674" on="1"/>
        <pt x="367" y="674" on="1"/>
        <pt x="587" y="66" on="1"/>
      </contour>
      <contour>
        <pt x="118" y="69" on="1"/>
        <pt x="500" y="69" on="1"/>
        <pt x="311" y="612" on="1"/>
        <pt x="278" y="524" on="0"/>
      </contour>
    </TTGlyph>
    <TTGlyph name="E" xMin="77" yMin="0" xMax="453" yMax="674">
      <contour>
        <pt x="158" y="71" on="1"/>
        <pt x="453" y="71" on="1"/>
        <pt x="453" y="0" on="1"/>
        <pt x="77" y="0" on="1"/>
        <pt x="77" y="674" on="1"/>
        <pt x="448" y="674" on="1"/>
        <pt x="448" y="603" on="1"/>
        <pt x="158" y="603" on="1"/>
        <pt x="158" y="372" on="1"/>
        <pt x="414" y="372" on="1"/>
        <pt x="414" y="301" on="1"/>
        <pt x="158" y="301" on="1"/>
      </contour>
    </TTGlyph>
    <TTGlyph name="Eacute" xMin="77" yMin="0" xMax="453" yMax="883">
      <contour>
        <pt x="158" y="71" on="1"/>
        <pt x="453" y="71" on="1"/>
        <pt x="453" y="0" on="1"/>
        <pt x="77" y="0" on="1"/>
        <pt x="77" y="674" on="1"/>
        <pt x="448" y="674" on="1"/>
        <pt x="448" y="603" on="1"/>
        <pt x="158" y="603" on="1"/>
        <pt x="158" y="372" on="1"/>
        <pt x="414" y="372" on="1"/>
        <pt x="414" y="301" on="1"/>
        <pt x="158" y="301" on="1"/>
      </contour>
      <contour>
        <pt x="437" y="883" on="1"/>
        <pt x="313" y="727" on="1"/>
        <pt x="244" y="727" on="1"/>
        <pt x="343" y="883" on="1"/>
      </contour>
    </TTGlyph>
    <TTGlyph name="Ebreve" xMin="77" yMin="0" xMax="453" yMax="883">
      <contour>
        <pt x="158" y="71" on="1"/>
        <pt x="453" y="71" on="1"/>
        <pt x="453" y="0" on="1"/>
        <pt x="77" y="0" on="1"/>
        <pt x="77" y="674" on="1"/>
        <pt x="448" y="674" on="1"/>
        <pt x="448" y="603" on="1"/>
        <pt x="158" y="603" on="1"/>
        <pt x="158" y="372" on="1"/>
        <pt x="414" y="372" on="1"/>
        <pt x="414" y="301" on="1"/>
        <pt x="158" y="301" on="1"/>
      </contour>
      <contour>
        <pt x="368" y="883" on="1"/>
        <pt x="433" y="883" on="1"/>
        <pt x="433" y="810" on="0"/>
        <pt x="351" y="724" on="0"/>
        <pt x="187" y="724" on="0"/>
        <pt x="104" y="810" on="0"/>
        <pt x="104" y="883" on="1"/>
        <pt x="169" y="883" on="1"/>
        <pt x="169" y="837" on="0"/>
        <pt x="217" y="781" on="0"/>
        <pt x="320" y="781" on="0"/>
        <pt x="368" y="837" on="0"/>
      </contour>
    </TTGlyph>
    <TTGlyph name="Ecaron" xMin="77" yMin="0" xMax="453" yMax="882">
      <contour>
        <pt x="158" y="71" on="1"/>
        <pt x="453" y="71" on="1"/>
        <pt x="453" y="0" on="1"/>
        <pt x="77" y="0" on="1"/>
        <pt x="77" y="674" on="1"/>
        <pt x="448" y="674" on="1"/>
        <pt x="448" y="603" on="1"/>
        <pt x="158" y="603" on="1"/>
        <pt x="158" y="372" on="1"/>
        <pt x="414" y="372" on="1"/>
        <pt x="414" y="301" on="1"/>
        <pt x="158" y="301" on="1"/>
      </contour>
      <contour>
        <pt x="309" y="726" on="1"/>
        <pt x="233" y="726" on="1"/>
        <pt x="106" y="882" on="1"/>
        <pt x="186" y="882" on="1"/>
        <pt x="272" y="777" on="1"/>
        <pt x="356" y="882" on="1"/>
        <pt x="436" y="882" on="1"/>
      </contour>
    </TTGlyph>
    <TTGlyph name="Ecircumflex" xMin="77" yMin="0" xMax="453" yMax="883">
      <contour>
        <pt x="158" y="71" on="1"/>
        <pt x="453" y="71" on="1"/>
        <pt x="453" y="0" on="1"/>
        <pt x="77" y="0" on="1"/>
        <pt x="77" y="674" on="1"/>
        <pt x="448" y="674" on="1"/>
        <pt x="448" y="603" on="1"/>
        <pt x="158" y="603" on="1"/>
        <pt x="158" y="372" on="1"/>
        <pt x="414" y="372" on="1"/>
        <pt x="414" y="301" on="1"/>
        <pt x="158" y="301" on="1"/>
      </contour>
      <contour>
        <pt x="273" y="832" on="1"/>
        <pt x="188" y="727" on="1"/>
        <pt x="108" y="727" on="1"/>
        <pt x="235" y="883" on="1"/>
        <pt x="311" y="883" on="1"/>
        <pt x="438" y="727" on="1"/>
        <pt x="358" y="727" on="1"/>
      </contour>
    </TTGlyph>
    <TTGlyph name="Edieresis" xMin="77" yMin="0" xMax="453" yMax="856">
      <contour>
        <pt x="158" y="71" on="1"/>
        <pt x="453" y="71" on="1"/>
        <pt x="453" y="0" on="1"/>
        <pt x="77" y="0" on="1"/>
        <pt x="77" y="674" on="1"/>
        <pt x="448" y="674" on="1"/>
        <pt x="448" y="603" on="1"/>
        <pt x="158" y="603" on="1"/>
        <pt x="158" y="372" on="1"/>
        <pt x="414" y="372" on="1"/>
        <pt x="414" y="301" on="1"/>
        <pt x="158" y="301" on="1"/>
      </contour>
      <contour>
        <pt x="190" y="753" on="0"/>
        <pt x="146" y="753" on="0"/>
        <pt x="116" y="783" on="0"/>
        <pt x="116" y="827" on="0"/>
        <pt x="146" y="856" on="0"/>
        <pt x="190" y="856" on="0"/>
        <pt x="219" y="827" on="0"/>
        <pt x="219" y="783" on="0"/>
      </contour>
      <contour>
        <pt x="391" y="753" on="0"/>
        <pt x="347" y="753" on="0"/>
        <pt x="318" y="783" on="0"/>
        <pt x="318" y="827" on="0"/>
        <pt x="347" y="856" on="0"/>
        <pt x="391" y="856" on="0"/>
        <pt x="421" y="827" on="0"/>
        <pt x="421" y="783" on="0"/>
      </contour>
    </TTGlyph>
    <TTGlyph name="Edotaccent" xMin="77" yMin="0" xMax="453" yMax="858">
      <contour>
        <pt x="158" y="71" on="1"/>
        <pt x="453" y="71" on="1"/>
        <pt x="453" y="0" on="1"/>
        <pt x="77" y="0" on="1"/>
        <pt x="77" y="674" on="1"/>
        <pt x="448" y="674" on="1"/>
        <pt x="448" y="603" on="1"/>
        <pt x="158" y="603" on="1"/>
        <pt x="158" y="372" on="1"/>
        <pt x="414" y="372" on="1"/>
        <pt x="414" y="301" on="1"/>
        <pt x="158" y="301" on="1"/>
      </contour>
      <contour>
        <pt x="297" y="755" on="0"/>
        <pt x="253" y="755" on="0"/>
        <pt x="223" y="785" on="0"/>
        <pt x="223" y="829" on="0"/>
        <pt x="253" y="858" on="0"/>
        <pt x="297" y="858" on="0"/>
        <pt x="326" y="829" on="0"/>
        <pt x="326" y="785" on="0"/>
      </contour>
    </TTGlyph>
    <TTGlyph name="Egrave" xMin="77" yMin="0" xMax="453" yMax="882">
      <contour>
        <pt x="158" y="71" on="1"/>
        <pt x="453" y="71" on="1"/>
        <pt x="453" y="0" on="1"/>
        <pt x="77" y="0" on="1"/>
        <pt x="77" y="674" on="1"/>
        <pt x="448" y="674" on="1"/>
        <pt x="448" y="603" on="1"/>
        <pt x="158" y="603" on="1"/>
        <pt x="158" y="372" on="1"/>
        <pt x="414" y="372" on="1"/>
        <pt x="414" y="301" on="1"/>
        <pt x="158" y="301" on="1"/>
      </contour>
      <contour>
        <pt x="320" y="726" on="1"/>
        <pt x="251" y="726" on="1"/>
        <pt x="127" y="882" on="1"/>
        <pt x="222" y="882" on="1"/>
      </contour>
    </TTGlyph>
    <TTGlyph name="Emacron" xMin="77" yMin="0" xMax="453" yMax="834">
      <contour>
        <pt x="158" y="71" on="1"/>
        <pt x="453" y="71" on="1"/>
        <pt x="453" y="0" on="1"/>
        <pt x="77" y="0" on="1"/>
        <pt x="77" y="674" on="1"/>
        <pt x="448" y="674" on="1"/>
        <pt x="448" y="603" on="1"/>
        <pt x="158" y="603" on="1"/>
        <pt x="158" y="372" on="1"/>
        <pt x="414" y="372" on="1"/>
        <pt x="414" y="301" on="1"/>
        <pt x="158" y="301" on="1"/>
      </contour>
      <contour>
        <pt x="404" y="834" on="1"/>
        <pt x="404" y="778" on="1"/>
        <pt x="122" y="778" on="1"/>
        <pt x="122" y="834" on="1"/>
      </contour>
    </TTGlyph>
    <TTGlyph name="Eng" xMin="77" yMin="-199" xMax="596" yMax="674">
      <contour>
        <pt x="515" y="674" on="1"/>
        <pt x="596" y="674" on="1"/>
        <pt x="596" y="-26" on="1"/>
        <pt x="596" y="-199" on="0"/>
        <pt x="439" y="-199" on="1"/>
        <pt x="381" y="-199" on="0"/>
        <pt x="344" y="-177" on="1"/>
        <pt x="344" y="-99" on="1"/>
        <pt x="386" y="-125" on="0"/>
        <pt x="428" y="-125" on="1"/>
        <pt x="515" y="-125" on="0"/>
        <pt x="515" y="-33" on="1"/>
        <pt x="515" y="0" on="1"/>
        <pt x="494" y="0" on="1"/>
        <pt x="214" y="467" on="0"/>
        <pt x="153" y="577" on="1"/>
        <pt x="158" y="473" on="0"/>
        <pt x="158" y="284" on="1"/>
        <pt x="158" y="0" on="1"/>
        <pt x="77" y="0" on="1"/>
        <pt x="77" y="674" on="1"/>
        <pt x="179" y="674" on="1"/>
        <pt x="348" y="390" on="1"/>
        <pt x="519" y="98" on="1"/>
        <pt x="515" y="195" on="0"/>
        <pt x="515" y="389" on="1"/>
      </contour>
    </TTGlyph>
    <TTGlyph name="Eogonek" xMin="77" yMin="-242" xMax="453" yMax="674">
      <contour>
        <pt x="453" y="0" on="1"/>
        <pt x="364" y="0" on="1"/>
        <pt x="251" y="-56" on="0"/>
        <pt x="251" y="-125" on="1"/>
        <pt x="251" y="-154" on="0"/>
        <pt x="286" y="-184" on="0"/>
        <pt x="355" y="-184" on="0"/>
        <pt x="384" y="-162" on="1"/>
        <pt x="384" y="-223" on="1"/>
        <pt x="352" y="-242" on="0"/>
        <pt x="247" y="-242" on="0"/>
        <pt x="183" y="-180" on="0"/>
        <pt x="183" y="-132" on="1"/>
        <pt x="183" y="-58" on="0"/>
        <pt x="261" y="0" on="1"/>
        <pt x="77" y="0" on="1"/>
        <pt x="77" y="674" on="1"/>
        <pt x="448" y="674" on="1"/>
        <pt x="448" y="603" on="1"/>
        <pt x="158" y="603" on="1"/>
        <pt x="158" y="372" on="1"/>
        <pt x="414" y="372" on="1"/>
        <pt x="414" y="301" on="1"/>
        <pt x="158" y="301" on="1"/>
        <pt x="158" y="71" on="1"/>
        <pt x="453" y="71" on="1"/>
      </contour>
    </TTGlyph>
    <TTGlyph name="Eth" xMin="61" yMin="0" xMax="686" yMax="674">
      <contour>
        <pt x="146" y="674" on="1"/>
        <pt x="346" y="674" on="1"/>
        <pt x="496" y="674" on="0"/>
        <pt x="686" y="489" on="0"/>
        <pt x="686" y="196" on="0"/>
        <pt x="509" y="0" on="0"/>
        <pt x="350" y="0" on="1"/>
        <pt x="146" y="0" on="1"/>
        <pt x="146" y="304" on="1"/>
        <pt x="61" y="304" on="1"/>
        <pt x="61" y="372" on="1"/>
        <pt x="146" y="372" on="1"/>
      </contour>
      <contour>
        <pt x="228" y="71" on="1"/>
        <pt x="350" y="71" on="1"/>
        <pt x="414" y="71" on="0"/>
        <pt x="513" y="115" on="0"/>
        <pt x="542" y="154" on="1"/>
        <pt x="602" y="231" on="0"/>
        <pt x="602" y="452" on="0"/>
        <pt x="460" y="602" on="0"/>
        <pt x="345" y="602" on="1"/>
        <pt x="228" y="602" on="1"/>
        <pt x="228" y="372" on="1"/>
        <pt x="403" y="372" on="1"/>
        <pt x="403" y="304" on="1"/>
        <pt x="228" y="304" on="1"/>
      </contour>
    </TTGlyph>
    <TTGlyph name="Euro" xMin="52" yMin="-8" xMax="550" yMax="660">
      <contour>
        <pt x="510" y="584" on="0"/>
        <pt x="368" y="584" on="0"/>
        <pt x="264" y="507" on="0"/>
        <pt x="241" y="436" on="1"/>
        <pt x="440" y="436" on="1"/>
        <pt x="440" y="379" on="1"/>
        <pt x="228" y="379" on="1"/>
        <pt x="225" y="354" on="0"/>
        <pt x="225" y="300" on="0"/>
        <pt x="228" y="278" on="1"/>
        <pt x="440" y="278" on="1"/>
        <pt x="440" y="221" on="1"/>
        <pt x="239" y="221" on="1"/>
        <pt x="261" y="147" on="0"/>
        <pt x="366" y="67" on="0"/>
        <pt x="506" y="67" on="0"/>
        <pt x="550" y="94" on="1"/>
        <pt x="550" y="16" on="1"/>
        <pt x="505" y="-8" on="0"/>
        <pt x="326" y="-8" on="0"/>
        <pt x="179" y="115" on="0"/>
        <pt x="154" y="221" on="1"/>
        <pt x="52" y="221" on="1"/>
        <pt x="52" y="278" on="1"/>
        <pt x="144" y="278" on="1"/>
        <pt x="142" y="308" on="0"/>
        <pt x="142" y="352" on="0"/>
        <pt x="145" y="379" on="1"/>
        <pt x="52" y="379" on="1"/>
        <pt x="52" y="436" on="1"/>
        <pt x="155" y="436" on="1"/>
        <pt x="182" y="542" on="0"/>
        <pt x="330" y="660" on="0"/>
        <pt x="430" y="660" on="1"/>
        <pt x="507" y="660" on="0"/>
        <pt x="550" y="637" on="1"/>
        <pt x="550" y="559" on="1"/>
      </contour>
    </TTGlyph>
    <TTGlyph name="F" xMin="77" yMin="0" xMax="447" yMax="674">
      <contour>
        <pt x="447" y="603" on="1"/>
        <pt x="158" y="603" on="1"/>
        <pt x="158" y="364" on="1"/>
        <pt x="412" y="364" on="1"/>
        <pt x="412" y="293" on="1"/>
        <pt x="158" y="293" on="1"/>
        <pt x="158" y="0" on="1"/>
        <pt x="77" y="0" on="1"/>
        <pt x="77" y="674" on="1"/>
        <pt x="447" y="674" on="1"/>
      </contour>
    </TTGlyph>
    <TTGlyph name="G" xMin="48" yMin="-8" xMax="603" yMax="686">
      <contour>
        <pt x="603" y="378" on="1"/>
        <pt x="603" y="56" on="1"/>
        <pt x="602" y="56" on="1"/>
        <pt x="603" y="53" on="1"/>
        <pt x="522" y="-8" on="0"/>
        <pt x="394" y="-8" on="1"/>
        <pt x="238" y="-8" on="0"/>
        <pt x="48" y="177" on="0"/>
        <pt x="48" y="491" on="0"/>
        <pt x="237" y="686" on="0"/>
        <pt x="381" y="686" on="1"/>
        <pt x="500" y="686" on="0"/>
        <pt x="578" y="640" on="1"/>
        <pt x="578" y="553" on="1"/>
        <pt x="496" y="607" on="0"/>
        <pt x="275" y="607" on="0"/>
        <pt x="133" y="460" on="0"/>
        <pt x="133" y="213" on="0"/>
        <pt x="273" y="70" on="0"/>
        <pt x="396" y="70" on="1"/>
        <pt x="464" y="70" on="0"/>
        <pt x="522" y="97" on="1"/>
        <pt x="522" y="307" on="1"/>
        <pt x="374" y="307" on="1"/>
        <pt x="374" y="378" on="1"/>
      </contour>
    </TTGlyph>
    <TTGlyph name="Gbreve" xMin="48" yMin="-8" xMax="603" yMax="883">
      <contour>
        <pt x="603" y="378" on="1"/>
        <pt x="603" y="56" on="1"/>
        <pt x="602" y="56" on="1"/>
        <pt x="603" y="53" on="1"/>
        <pt x="522" y="-8" on="0"/>
        <pt x="394" y="-8" on="1"/>
        <pt x="238" y="-8" on="0"/>
        <pt x="48" y="177" on="0"/>
        <pt x="48" y="491" on="0"/>
        <pt x="237" y="686" on="0"/>
        <pt x="381" y="686" on="1"/>
        <pt x="500" y="686" on="0"/>
        <pt x="578" y="640" on="1"/>
        <pt x="578" y="553" on="1"/>
        <pt x="496" y="607" on="0"/>
        <pt x="275" y="607" on="0"/>
        <pt x="133" y="460" on="0"/>
        <pt x="133" y="213" on="0"/>
        <pt x="273" y="70" on="0"/>
        <pt x="396" y="70" on="1"/>
        <pt x="464" y="70" on="0"/>
        <pt x="522" y="97" on="1"/>
        <pt x="522" y="307" on="1"/>
        <pt x="374" y="307" on="1"/>
        <pt x="374" y="378" on="1"/>
      </contour>
      <contour>
        <pt x="468" y="883" on="1"/>
        <pt x="533" y="883" on="1"/>
        <pt x="533" y="810" on="0"/>
        <pt x="451" y="724" on="0"/>
        <pt x="287" y="724" on="0"/>
        <pt x="204" y="810" on="0"/>
        <pt x="204" y="883" on="1"/>
        <pt x="269" y="883" on="1"/>
        <pt x="269" y="837" on="0"/>
        <pt x="317" y="781" on="0"/>
        <pt x="420" y="781" on="0"/>
        <pt x="468" y="837" on="0"/>
      </contour>
    </TTGlyph>
    <TTGlyph name="Gcircumflex" xMin="48" yMin="-8" xMax="603" yMax="882">
      <contour>
        <pt x="603" y="378" on="1"/>
        <pt x="603" y="56" on="1"/>
        <pt x="602" y="56" on="1"/>
        <pt x="603" y="53" on="1"/>
        <pt x="522" y="-8" on="0"/>
        <pt x="394" y="-8" on="1"/>
        <pt x="238" y="-8" on="0"/>
        <pt x="48" y="177" on="0"/>
        <pt x="48" y="491" on="0"/>
        <pt x="237" y="686" on="0"/>
        <pt x="381" y="686" on="1"/>
        <pt x="500" y="686" on="0"/>
        <pt x="578" y="640" on="1"/>
        <pt x="578" y="553" on="1"/>
        <pt x="496" y="607" on="0"/>
        <pt x="275" y="607" on="0"/>
        <pt x="133" y="460" on="0"/>
        <pt x="133" y="213" on="0"/>
        <pt x="273" y="70" on="0"/>
        <pt x="396" y="70" on="1"/>
        <pt x="464" y="70" on="0"/>
        <pt x="522" y="97" on="1"/>
        <pt x="522" y="307" on="1"/>
        <pt x="374" y="307" on="1"/>
        <pt x="374" y="378" on="1"/>
      </contour>
      <contour>
        <pt x="366" y="831" on="1"/>
        <pt x="281" y="726" on="1"/>
        <pt x="201" y="726" on="1"/>
        <pt x="328" y="882" on="1"/>
        <pt x="404" y="882" on="1"/>
        <pt x="531" y="726" on="1"/>
        <pt x="451" y="726" on="1"/>
      </contour>
    </TTGlyph>
    <TTGlyph name="Gdotaccent" xMin="48" yMin="-8" xMax="603" yMax="857">
      <contour>
        <pt x="603" y="378" on="1"/>
        <pt x="603" y="56" on="1"/>
        <pt x="602" y="56" on="1"/>
        <pt x="603" y="53" on="1"/>
        <pt x="522" y="-8" on="0"/>
        <pt x="394" y="-8" on="1"/>
        <pt x="238" y="-8" on="0"/>
        <pt x="48" y="177" on="0"/>
        <pt x="48" y="491" on="0"/>
        <pt x="237" y="686" on="0"/>
        <pt x="381" y="686" on="1"/>
        <pt x="500" y="686" on="0"/>
        <pt x="578" y="640" on="1"/>
        <pt x="578" y="553" on="1"/>
        <pt x="496" y="607" on="0"/>
        <pt x="275" y="607" on="0"/>
        <pt x="133" y="460" on="0"/>
        <pt x="133" y="213" on="0"/>
        <pt x="273" y="70" on="0"/>
        <pt x="396" y="70" on="1"/>
        <pt x="464" y="70" on="0"/>
        <pt x="522" y="97" on="1"/>
        <pt x="522" y="307" on="1"/>
        <pt x="374" y="307" on="1"/>
        <pt x="374" y="378" on="1"/>
      </contour>
      <contour>
        <pt x="397" y="754" on="0"/>
        <pt x="353" y="754" on="0"/>
        <pt x="323" y="784" on="0"/>
        <pt x="323" y="828" on="0"/>
        <pt x="353" y="857" on="0"/>
        <pt x="397" y="857" on="0"/>
        <pt x="426" y="828" on="0"/>
        <pt x="426" y="784" on="0"/>
      </contour>
    </TTGlyph>
    <TTGlyph name="H" xMin="77" yMin="0" xMax="566" yMax="674">
      <contour>
        <pt x="485" y="674" on="1"/>
        <pt x="566" y="674" on="1"/>
        <pt x="566" y="0" on="1"/>
        <pt x="485" y="0" on="1"/>
        <pt x="485" y="305" on="1"/>
        <pt x="158" y="305" on="1"/>
        <pt x="158" y="0" on="1"/>
        <pt x="77" y="0" on="1"/>
        <pt x="77" y="674" on="1"/>
        <pt x="158" y="674" on="1"/>
        <pt x="158" y="378" on="1"/>
        <pt x="485" y="378" on="1"/>
      </contour>
    </TTGlyph>
    <TTGlyph name="Hbar" xMin="33" yMin="0" xMax="672" yMax="674">
      <contour>
        <pt x="672" y="570" on="1"/>
        <pt x="672" y="513" on="1"/>
        <pt x="598" y="513" on="1"/>
        <pt x="598" y="0" on="1"/>
        <pt x="516" y="0" on="1"/>
        <pt x="516" y="305" on="1"/>
        <pt x="189" y="305" on="1"/>
        <pt x="189" y="0" on="1"/>
        <pt x="108" y="0" on="1"/>
        <pt x="108" y="513" on="1"/>
        <pt x="33" y="513" on="1"/>
        <pt x="33" y="570" on="1"/>
        <pt x="108" y="570" on="1"/>
        <pt x="108" y="674" on="1"/>
        <pt x="189" y="674" on="1"/>
        <pt x="189" y="570" on="1"/>
        <pt x="516" y="570" on="1"/>
        <pt x="516" y="674" on="1"/>
        <pt x="598" y="674" on="1"/>
        <pt x="598" y="570" on="1"/>
      </contour>
      <contour>
        <pt x="516" y="378" on="1"/>
        <pt x="516" y="513" on="1"/>
        <pt x="189" y="513" on="1"/>
        <pt x="189" y="378" on="1"/>
      </contour>
    </TTGlyph>
    <TTGlyph name="Hcircumflex" xMin="77" yMin="0" xMax="566" yMax="882">
      <contour>
        <pt x="485" y="674" on="1"/>
        <pt x="566" y="674" on="1"/>
        <pt x="566" y="0" on="1"/>
        <pt x="485" y="0" on="1"/>
        <pt x="485" y="305" on="1"/>
        <pt x="158" y="305" on="1"/>
        <pt x="158" y="0" on="1"/>
        <pt x="77" y="0" on="1"/>
        <pt x="77" y="674" on="1"/>
        <pt x="158" y="674" on="1"/>
        <pt x="158" y="378" on="1"/>
        <pt x="485" y="378" on="1"/>
      </contour>
      <contour>
        <pt x="325" y="831" on="1"/>
        <pt x="240" y="726" on="1"/>
        <pt x="160" y="726" on="1"/>
        <pt x="287" y="882" on="1"/>
        <pt x="363" y="882" on="1"/>
        <pt x="490" y="726" on="1"/>
        <pt x="410" y="726" on="1"/>
      </contour>
    </TTGlyph>
    <TTGlyph name="I" xMin="83" yMin="0" xMax="164" yMax="674">
      <contour>
        <pt x="83" y="0" on="1"/>
        <pt x="83" y="674" on="1"/>
        <pt x="164" y="674" on="1"/>
        <pt x="164" y="0" on="1"/>
      </contour>
    </TTGlyph>
    <TTGlyph name="IJ" xMin="83" yMin="0" xMax="487" yMax="674">
      <contour>
        <pt x="319" y="74" on="1"/>
        <pt x="406" y="74" on="0"/>
        <pt x="406" y="166" on="1"/>
        <pt x="406" y="674" on="1"/>
        <pt x="487" y="674" on="1"/>
        <pt x="487" y="173" on="1"/>
        <pt x="487" y="0" on="0"/>
        <pt x="330" y="0" on="1"/>
        <pt x="274" y="0" on="0"/>
        <pt x="235" y="22" on="1"/>
        <pt x="235" y="100" on="1"/>
        <pt x="275" y="74" on="0"/>
      </contour>
      <contour>
        <pt x="83" y="0" on="1"/>
        <pt x="83" y="674" on="1"/>
        <pt x="164" y="674" on="1"/>
        <pt x="164" y="0" on="1"/>
      </contour>
    </TTGlyph>
    <TTGlyph name="Iacute" xMin="83" yMin="0" xMax="286" yMax="883">
      <contour>
        <pt x="93" y="727" on="1"/>
        <pt x="192" y="883" on="1"/>
        <pt x="286" y="883" on="1"/>
        <pt x="162" y="727" on="1"/>
      </contour>
      <contour>
        <pt x="83" y="0" on="1"/>
        <pt x="83" y="674" on="1"/>
        <pt x="164" y="674" on="1"/>
        <pt x="164" y="0" on="1"/>
      </contour>
    </TTGlyph>
    <TTGlyph name="Ibreve" xMin="-40" yMin="0" xMax="289" yMax="883">
      <contour>
        <pt x="83" y="0" on="1"/>
        <pt x="83" y="674" on="1"/>
        <pt x="164" y="674" on="1"/>
        <pt x="164" y="0" on="1"/>
      </contour>
      <contour>
        <pt x="-40" y="883" on="1"/>
        <pt x="25" y="883" on="1"/>
        <pt x="25" y="837" on="0"/>
        <pt x="73" y="781" on="0"/>
        <pt x="176" y="781" on="0"/>
        <pt x="224" y="837" on="0"/>
        <pt x="224" y="883" on="1"/>
        <pt x="289" y="883" on="1"/>
        <pt x="289" y="810" on="0"/>
        <pt x="207" y="724" on="0"/>
        <pt x="43" y="724" on="0"/>
        <pt x="-40" y="810" on="0"/>
      </contour>
    </TTGlyph>
    <TTGlyph name="Icircumflex" xMin="-41" yMin="0" xMax="289" yMax="883">
      <contour>
        <pt x="83" y="0" on="1"/>
        <pt x="83" y="674" on="1"/>
        <pt x="164" y="674" on="1"/>
        <pt x="164" y="0" on="1"/>
      </contour>
      <contour>
        <pt x="86" y="883" on="1"/>
        <pt x="162" y="883" on="1"/>
        <pt x="289" y="727" on="1"/>
        <pt x="209" y="727" on="1"/>
        <pt x="124" y="832" on="1"/>
        <pt x="39" y="727" on="1"/>
        <pt x="-41" y="727" on="1"/>
      </contour>
    </TTGlyph>
    <TTGlyph name="Idieresis" xMin="-27" yMin="0" xMax="278" yMax="857">
      <contour>
        <pt x="175" y="784" on="0"/>
        <pt x="175" y="828" on="0"/>
        <pt x="204" y="857" on="0"/>
        <pt x="248" y="857" on="0"/>
        <pt x="278" y="828" on="0"/>
        <pt x="278" y="784" on="0"/>
        <pt x="248" y="754" on="0"/>
        <pt x="204" y="754" on="0"/>
      </contour>
      <contour>
        <pt x="-27" y="784" on="0"/>
        <pt x="-27" y="828" on="0"/>
        <pt x="3" y="857" on="0"/>
        <pt x="47" y="857" on="0"/>
        <pt x="76" y="828" on="0"/>
        <pt x="76" y="784" on="0"/>
        <pt x="47" y="754" on="0"/>
        <pt x="3" y="754" on="0"/>
      </contour>
      <contour>
        <pt x="83" y="0" on="1"/>
        <pt x="83" y="674" on="1"/>
        <pt x="164" y="674" on="1"/>
        <pt x="164" y="0" on="1"/>
      </contour>
    </TTGlyph>
    <TTGlyph name="Idotaccent" xMin="73" yMin="0" xMax="176" yMax="859">
      <contour>
        <pt x="73" y="786" on="0"/>
        <pt x="73" y="830" on="0"/>
        <pt x="103" y="859" on="0"/>
        <pt x="147" y="859" on="0"/>
        <pt x="176" y="830" on="0"/>
        <pt x="176" y="786" on="0"/>
        <pt x="147" y="756" on="0"/>
        <pt x="103" y="756" on="0"/>
      </contour>
      <contour>
        <pt x="83" y="0" on="1"/>
        <pt x="83" y="674" on="1"/>
        <pt x="164" y="674" on="1"/>
        <pt x="164" y="0" on="1"/>
      </contour>
    </TTGlyph>
    <TTGlyph name="Igrave" xMin="-40" yMin="0" xMax="164" yMax="883">
      <contour>
        <pt x="55" y="883" on="1"/>
        <pt x="153" y="727" on="1"/>
        <pt x="84" y="727" on="1"/>
        <pt x="-40" y="883" on="1"/>
      </contour>
      <contour>
        <pt x="83" y="0" on="1"/>
        <pt x="83" y="674" on="1"/>
        <pt x="164" y="674" on="1"/>
        <pt x="164" y="0" on="1"/>
      </contour>
    </TTGlyph>
    <TTGlyph name="Imacron" xMin="-17" yMin="0" xMax="265" yMax="833">
      <contour>
        <pt x="265" y="777" on="1"/>
        <pt x="-17" y="777" on="1"/>
        <pt x="-17" y="833" on="1"/>
        <pt x="265" y="833" on="1"/>
      </contour>
      <contour>
        <pt x="83" y="0" on="1"/>
        <pt x="83" y="674" on="1"/>
        <pt x="164" y="674" on="1"/>
        <pt x="164" y="0" on="1"/>
      </contour>
    </TTGlyph>
    <TTGlyph name="Iogonek" xMin="-16" yMin="-242" xMax="185" yMax="674">
      <contour>
        <pt x="52" y="-125" on="1"/>
        <pt x="52" y="-154" on="0"/>
        <pt x="87" y="-184" on="0"/>
        <pt x="156" y="-184" on="0"/>
        <pt x="185" y="-162" on="1"/>
        <pt x="185" y="-223" on="1"/>
        <pt x="153" y="-242" on="0"/>
        <pt x="48" y="-242" on="0"/>
        <pt x="-16" y="-180" on="0"/>
        <pt x="-16" y="-132" on="1"/>
        <pt x="-16" y="-46" on="0"/>
        <pt x="83" y="14" on="1"/>
        <pt x="83" y="674" on="1"/>
        <pt x="164" y="674" on="1"/>
        <pt x="164" y="1" on="1"/>
        <pt x="165" y="0" on="1"/>
        <pt x="52" y="-56" on="0"/>
      </contour>
    </TTGlyph>
    <TTGlyph name="Itilde" xMin="-46" yMin="0" xMax="292" yMax="859">
      <contour>
        <pt x="193" y="755" on="1"/>
        <pt x="166" y="755" on="0"/>
        <pt x="81" y="799" on="0"/>
        <pt x="65" y="799" on="1"/>
        <pt x="24" y="799" on="0"/>
        <pt x="-3" y="751" on="1"/>
        <pt x="-46" y="788" on="1"/>
        <pt x="-32" y="818" on="0"/>
        <pt x="23" y="859" on="0"/>
        <pt x="85" y="859" on="0"/>
        <pt x="171" y="815" on="0"/>
        <pt x="189" y="815" on="1"/>
        <pt x="223" y="815" on="0"/>
        <pt x="243" y="858" on="1"/>
        <pt x="292" y="824" on="1"/>
        <pt x="260" y="755" on="0"/>
      </contour>
      <contour>
        <pt x="83" y="0" on="1"/>
        <pt x="83" y="674" on="1"/>
        <pt x="164" y="674" on="1"/>
        <pt x="164" y="0" on="1"/>
      </contour>
    </TTGlyph>
    <TTGlyph name="J" xMin="30" yMin="0" xMax="282" yMax="674">
      <contour>
        <pt x="114" y="74" on="1"/>
        <pt x="201" y="74" on="0"/>
        <pt x="201" y="166" on="1"/>
        <pt x="201" y="674" on="1"/>
        <pt x="282" y="674" on="1"/>
        <pt x="282" y="173" on="1"/>
        <pt x="282" y="0" on="0"/>
        <pt x="125" y="0" on="1"/>
        <pt x="69" y="0" on="0"/>
        <pt x="30" y="22" on="1"/>
        <pt x="30" y="100" on="1"/>
        <pt x="70" y="74" on="0"/>
      </contour>
    </TTGlyph>
    <TTGlyph name="Jcircumflex" xMin="30" yMin="0" xMax="408" yMax="882">
      <contour>
        <pt x="205" y="882" on="1"/>
        <pt x="281" y="882" on="1"/>
        <pt x="408" y="726" on="1"/>
        <pt x="328" y="726" on="1"/>
        <pt x="243" y="831" on="1"/>
        <pt x="158" y="726" on="1"/>
        <pt x="78" y="726" on="1"/>
      </contour>
      <contour>
        <pt x="114" y="74" on="1"/>
        <pt x="201" y="74" on="0"/>
        <pt x="201" y="166" on="1"/>
        <pt x="201" y="674" on="1"/>
        <pt x="282" y="674" on="1"/>
        <pt x="282" y="173" on="1"/>
        <pt x="282" y="0" on="0"/>
        <pt x="125" y="0" on="1"/>
        <pt x="69" y="0" on="0"/>
        <pt x="30" y="22" on="1"/>
        <pt x="30" y="100" on="1"/>
        <pt x="70" y="74" on="0"/>
      </contour>
    </TTGlyph>
    <TTGlyph name="K" xMin="77" yMin="0" xMax="545" yMax="674">
      <contour>
        <pt x="274" y="333" on="1"/>
        <pt x="545" y="0" on="1"/>
        <pt x="440" y="0" on="1"/>
        <pt x="174" y="333" on="1"/>
        <pt x="431" y="674" on="1"/>
        <pt x="531" y="674" on="1"/>
      </contour>
      <contour>
        <pt x="77" y="0" on="1"/>
        <pt x="77" y="674" on="1"/>
        <pt x="158" y="674" on="1"/>
        <pt x="158" y="0" on="1"/>
      </contour>
    </TTGlyph>
    <TTGlyph name="L" xMin="77" yMin="0" xMax="445" yMax="674">
      <contour>
        <pt x="158" y="73" on="1"/>
        <pt x="445" y="73" on="1"/>
        <pt x="445" y="0" on="1"/>
        <pt x="77" y="0" on="1"/>
        <pt x="77" y="674" on="1"/>
        <pt x="158" y="674" on="1"/>
      </contour>
    </TTGlyph>
    <TTGlyph name="Lacute" xMin="77" yMin="0" xMax="448" yMax="883">
      <contour>
        <pt x="158" y="674" on="1"/>
        <pt x="158" y="73" on="1"/>
        <pt x="445" y="73" on="1"/>
        <pt x="445" y="0" on="1"/>
        <pt x="77" y="0" on="1"/>
        <pt x="77" y="674" on="1"/>
      </contour>
      <contour>
        <pt x="448" y="883" on="1"/>
        <pt x="324" y="727" on="1"/>
        <pt x="255" y="727" on="1"/>
        <pt x="354" y="883" on="1"/>
      </contour>
    </TTGlyph>
    <TTGlyph name="Lcaron" xMin="77" yMin="0" xMax="445" yMax="701">
      <contour>
        <pt x="158" y="73" on="1"/>
        <pt x="445" y="73" on="1"/>
        <pt x="445" y="0" on="1"/>
        <pt x="77" y="0" on="1"/>
        <pt x="77" y="674" on="1"/>
        <pt x="158" y="674" on="1"/>
      </contour>
      <contour>
        <pt x="424" y="701" on="1"/>
        <pt x="313" y="509" on="1"/>
        <pt x="248" y="509" on="1"/>
        <pt x="333" y="701" on="1"/>
      </contour>
    </TTGlyph>
    <TTGlyph name="Ldot" xMin="77" yMin="0" xMax="445" yMax="674">
      <contour>
        <pt x="158" y="73" on="1"/>
        <pt x="445" y="73" on="1"/>
        <pt x="445" y="0" on="1"/>
        <pt x="77" y="0" on="1"/>
        <pt x="77" y="674" on="1"/>
        <pt x="158" y="674" on="1"/>
      </contour>
      <contour>
        <pt x="377" y="342" on="0"/>
        <pt x="343" y="310" on="0"/>
        <pt x="294" y="310" on="0"/>
        <pt x="262" y="342" on="0"/>
        <pt x="262" y="390" on="0"/>
        <pt x="295" y="424" on="0"/>
        <pt x="343" y="424" on="0"/>
        <pt x="377" y="390" on="0"/>
      </contour>
    </TTGlyph>
    <TTGlyph name="Lslash" xMin="29" yMin="0" xMax="465" yMax="674">
      <contour>
        <pt x="178" y="73" on="1"/>
        <pt x="465" y="73" on="1"/>
        <pt x="465" y="0" on="1"/>
        <pt x="97" y="0" on="1"/>
        <pt x="97" y="245" on="1"/>
        <pt x="29" y="198" on="1"/>
        <pt x="29" y="275" on="1"/>
        <pt x="97" y="322" on="1"/>
        <pt x="97" y="674" on="1"/>
        <pt x="178" y="674" on="1"/>
        <pt x="178" y="378" on="1"/>
        <pt x="328" y="482" on="1"/>
        <pt x="328" y="404" on="1"/>
        <pt x="178" y="301" on="1"/>
      </contour>
    </TTGlyph>
    <TTGlyph name="M" xMin="70" yMin="0" xMax="788" yMax="674">
      <contour>
        <pt x="70" y="0" on="1"/>
        <pt x="119" y="674" on="1"/>
        <pt x="222" y="674" on="1"/>
        <pt x="311" y="428" on="1"/>
        <pt x="419" y="114" on="1"/>
        <pt x="487" y="307" on="0"/>
        <pt x="626" y="674" on="1"/>
        <pt x="729" y="674" on="1"/>
        <pt x="788" y="0" on="1"/>
        <pt x="707" y="0" on="1"/>
        <pt x="660" y="565" on="1"/>
        <pt x="595" y="383" on="0"/>
        <pt x="457" y="15" on="1"/>
        <pt x="380" y="15" on="1"/>
        <pt x="189" y="559" on="1"/>
        <pt x="189" y="532" on="0"/>
        <pt x="151" y="0" on="1"/>
      </contour>
    </TTGlyph>
    <TTGlyph name="N" xMin="77" yMin="0" xMax="596" yMax="674">
      <contour>
        <pt x="77" y="0" on="1"/>
        <pt x="77" y="674" on="1"/>
        <pt x="179" y="674" on="1"/>
        <pt x="348" y="390" on="1"/>
        <pt x="519" y="98" on="1"/>
        <pt x="515" y="195" on="0"/>
        <pt x="515" y="389" on="1"/>
        <pt x="515" y="674" on="1"/>
        <pt x="596" y="674" on="1"/>
        <pt x="596" y="0" on="1"/>
        <pt x="494" y="0" on="1"/>
        <pt x="214" y="467" on="0"/>
        <pt x="153" y="577" on="1"/>
        <pt x="158" y="473" on="0"/>
        <pt x="158" y="284" on="1"/>
        <pt x="158" y="0" on="1"/>
      </contour>
    </TTGlyph>
    <TTGlyph name="Nacute" xMin="77" yMin="0" xMax="596" yMax="882">
      <contour>
        <pt x="77" y="0" on="1"/>
        <pt x="77" y="674" on="1"/>
        <pt x="179" y="674" on="1"/>
        <pt x="348" y="390" on="1"/>
        <pt x="519" y="98" on="1"/>
        <pt x="515" y="195" on="0"/>
        <pt x="515" y="389" on="1"/>
        <pt x="515" y="674" on="1"/>
        <pt x="596" y="674" on="1"/>
        <pt x="596" y="0" on="1"/>
        <pt x="494" y="0" on="1"/>
        <pt x="214" y="467" on="0"/>
        <pt x="153" y="577" on="1"/>
        <pt x="158" y="473" on="0"/>
        <pt x="158" y="284" on="1"/>
        <pt x="158" y="0" on="1"/>
      </contour>
      <contour>
        <pt x="326" y="726" on="1"/>
        <pt x="425" y="882" on="1"/>
        <pt x="519" y="882" on="1"/>
        <pt x="395" y="726" on="1"/>
      </contour>
    </TTGlyph>
    <TTGlyph name="Ncaron" xMin="77" yMin="0" xMax="596" yMax="883">
      <contour>
        <pt x="391" y="727" on="1"/>
        <pt x="315" y="727" on="1"/>
        <pt x="188" y="883" on="1"/>
        <pt x="268" y="883" on="1"/>
        <pt x="354" y="778" on="1"/>
        <pt x="438" y="883" on="1"/>
        <pt x="518" y="883" on="1"/>
      </contour>
      <contour>
        <pt x="77" y="0" on="1"/>
        <pt x="77" y="674" on="1"/>
        <pt x="179" y="674" on="1"/>
        <pt x="348" y="390" on="1"/>
        <pt x="519" y="98" on="1"/>
        <pt x="515" y="195" on="0"/>
        <pt x="515" y="389" on="1"/>
        <pt x="515" y="674" on="1"/>
        <pt x="596" y="674" on="1"/>
        <pt x="596" y="0" on="1"/>
        <pt x="494" y="0" on="1"/>
        <pt x="214" y="467" on="0"/>
        <pt x="153" y="577" on="1"/>
        <pt x="158" y="473" on="0"/>
        <pt x="158" y="284" on="1"/>
        <pt x="158" y="0" on="1"/>
      </contour>
    </TTGlyph>
    <TTGlyph name="Ntilde" xMin="77" yMin="0" xMax="596" yMax="861">
      <contour>
        <pt x="415" y="757" on="1"/>
        <pt x="388" y="757" on="0"/>
        <pt x="303" y="801" on="0"/>
        <pt x="287" y="801" on="1"/>
        <pt x="246" y="801" on="0"/>
        <pt x="219" y="753" on="1"/>
        <pt x="176" y="790" on="1"/>
        <pt x="190" y="820" on="0"/>
        <pt x="245" y="861" on="0"/>
        <pt x="307" y="861" on="0"/>
        <pt x="393" y="817" on="0"/>
        <pt x="411" y="817" on="1"/>
        <pt x="445" y="817" on="0"/>
        <pt x="465" y="860" on="1"/>
        <pt x="514" y="826" on="1"/>
        <pt x="482" y="757" on="0"/>
      </contour>
      <contour>
        <pt x="77" y="0" on="1"/>
        <pt x="77" y="674" on="1"/>
        <pt x="179" y="674" on="1"/>
        <pt x="348" y="390" on="1"/>
        <pt x="519" y="98" on="1"/>
        <pt x="515" y="195" on="0"/>
        <pt x="515" y="389" on="1"/>
        <pt x="515" y="674" on="1"/>
        <pt x="596" y="674" on="1"/>
        <pt x="596" y="0" on="1"/>
        <pt x="494" y="0" on="1"/>
        <pt x="214" y="467" on="0"/>
        <pt x="153" y="577" on="1"/>
        <pt x="158" y="473" on="0"/>
        <pt x="158" y="284" on="1"/>
        <pt x="158" y="0" on="1"/>
      </contour>
    </TTGlyph>
    <TTGlyph name="O" xMin="48" yMin="-8" xMax="653" yMax="687">
      <contour>
        <pt x="248" y="611" on="0"/>
        <pt x="133" y="466" on="0"/>
        <pt x="133" y="215" on="0"/>
        <pt x="252" y="69" on="0"/>
        <pt x="454" y="69" on="0"/>
        <pt x="567" y="213" on="0"/>
        <pt x="567" y="467" on="0"/>
        <pt x="453" y="611" on="0"/>
      </contour>
      <contour>
        <pt x="214" y="-8" on="0"/>
        <pt x="48" y="182" on="0"/>
        <pt x="48" y="499" on="0"/>
        <pt x="211" y="687" on="0"/>
        <pt x="492" y="687" on="0"/>
        <pt x="653" y="500" on="0"/>
        <pt x="653" y="181" on="0"/>
        <pt x="490" y="-8" on="0"/>
      </contour>
    </TTGlyph>
    <TTGlyph name="OE" xMin="48" yMin="-8" xMax="935" yMax="687">
      <contour>
        <pt x="638" y="71" on="1"/>
        <pt x="935" y="71" on="1"/>
        <pt x="935" y="0" on="1"/>
        <pt x="559" y="0" on="1"/>
        <pt x="559" y="88" on="1"/>
        <pt x="480" y="-8" on="0"/>
        <pt x="210" y="-8" on="0"/>
        <pt x="48" y="181" on="0"/>
        <pt x="48" y="499" on="0"/>
        <pt x="207" y="687" on="0"/>
        <pt x="481" y="687" on="0"/>
        <pt x="559" y="592" on="1"/>
        <pt x="559" y="674" on="1"/>
        <pt x="930" y="674" on="1"/>
        <pt x="930" y="603" on="1"/>
        <pt x="638" y="603" on="1"/>
        <pt x="638" y="372" on="1"/>
        <pt x="896" y="372" on="1"/>
        <pt x="896" y="301" on="1"/>
        <pt x="638" y="301" on="1"/>
      </contour>
      <contour>
        <pt x="133" y="214" on="0"/>
        <pt x="248" y="69" on="0"/>
        <pt x="448" y="69" on="0"/>
        <pt x="559" y="213" on="0"/>
        <pt x="559" y="467" on="0"/>
        <pt x="448" y="611" on="0"/>
        <pt x="244" y="611" on="0"/>
        <pt x="133" y="467" on="0"/>
      </contour>
    </TTGlyph>
    <TTGlyph name="Oacute" xMin="48" yMin="-8" xMax="653" yMax="883">
      <contour>
        <pt x="248" y="611" on="0"/>
        <pt x="133" y="466" on="0"/>
        <pt x="133" y="215" on="0"/>
        <pt x="252" y="69" on="0"/>
        <pt x="454" y="69" on="0"/>
        <pt x="567" y="213" on="0"/>
        <pt x="567" y="467" on="0"/>
        <pt x="453" y="611" on="0"/>
      </contour>
      <contour>
        <pt x="214" y="-8" on="0"/>
        <pt x="48" y="182" on="0"/>
        <pt x="48" y="499" on="0"/>
        <pt x="211" y="687" on="0"/>
        <pt x="492" y="687" on="0"/>
        <pt x="653" y="500" on="0"/>
        <pt x="653" y="181" on="0"/>
        <pt x="490" y="-8" on="0"/>
      </contour>
      <contour>
        <pt x="324" y="727" on="1"/>
        <pt x="423" y="883" on="1"/>
        <pt x="517" y="883" on="1"/>
        <pt x="393" y="727" on="1"/>
      </contour>
    </TTGlyph>
    <TTGlyph name="Obreve" xMin="48" yMin="-8" xMax="653" yMax="883">
      <contour>
        <pt x="214" y="-8" on="0"/>
        <pt x="48" y="182" on="0"/>
        <pt x="48" y="499" on="0"/>
        <pt x="211" y="687" on="0"/>
        <pt x="492" y="687" on="0"/>
        <pt x="653" y="500" on="0"/>
        <pt x="653" y="181" on="0"/>
        <pt x="490" y="-8" on="0"/>
      </contour>
      <contour>
        <pt x="248" y="611" on="0"/>
        <pt x="133" y="466" on="0"/>
        <pt x="133" y="215" on="0"/>
        <pt x="252" y="69" on="0"/>
        <pt x="454" y="69" on="0"/>
        <pt x="567" y="213" on="0"/>
        <pt x="567" y="467" on="0"/>
        <pt x="453" y="611" on="0"/>
      </contour>
      <contour>
        <pt x="191" y="883" on="1"/>
        <pt x="256" y="883" on="1"/>
        <pt x="256" y="837" on="0"/>
        <pt x="304" y="781" on="0"/>
        <pt x="407" y="781" on="0"/>
        <pt x="455" y="837" on="0"/>
        <pt x="455" y="883" on="1"/>
        <pt x="520" y="883" on="1"/>
        <pt x="520" y="810" on="0"/>
        <pt x="438" y="724" on="0"/>
        <pt x="274" y="724" on="0"/>
        <pt x="191" y="810" on="0"/>
      </contour>
    </TTGlyph>
    <TTGlyph name="Ocircumflex" xMin="48" yMin="-8" xMax="653" yMax="883">
      <contour>
        <pt x="319" y="883" on="1"/>
        <pt x="395" y="883" on="1"/>
        <pt x="522" y="727" on="1"/>
        <pt x="442" y="727" on="1"/>
        <pt x="357" y="832" on="1"/>
        <pt x="272" y="727" on="1"/>
        <pt x="192" y="727" on="1"/>
      </contour>
      <contour>
        <pt x="214" y="-8" on="0"/>
        <pt x="48" y="182" on="0"/>
        <pt x="48" y="499" on="0"/>
        <pt x="211" y="687" on="0"/>
        <pt x="492" y="687" on="0"/>
        <pt x="653" y="500" on="0"/>
        <pt x="653" y="181" on="0"/>
        <pt x="490" y="-8" on="0"/>
      </contour>
      <contour>
        <pt x="248" y="611" on="0"/>
        <pt x="133" y="466" on="0"/>
        <pt x="133" y="215" on="0"/>
        <pt x="252" y="69" on="0"/>
        <pt x="454" y="69" on="0"/>
        <pt x="567" y="213" on="0"/>
        <pt x="567" y="467" on="0"/>
        <pt x="453" y="611" on="0"/>
      </contour>
    </TTGlyph>
    <TTGlyph name="Odieresis" xMin="48" yMin="-8" xMax="653" yMax="857">
      <contour>
        <pt x="248" y="611" on="0"/>
        <pt x="133" y="466" on="0"/>
        <pt x="133" y="215" on="0"/>
        <pt x="252" y="69" on="0"/>
        <pt x="454" y="69" on="0"/>
        <pt x="567" y="213" on="0"/>
        <pt x="567" y="467" on="0"/>
        <pt x="453" y="611" on="0"/>
      </contour>
      <contour>
        <pt x="214" y="-8" on="0"/>
        <pt x="48" y="182" on="0"/>
        <pt x="48" y="499" on="0"/>
        <pt x="211" y="687" on="0"/>
        <pt x="492" y="687" on="0"/>
        <pt x="653" y="500" on="0"/>
        <pt x="653" y="181" on="0"/>
        <pt x="490" y="-8" on="0"/>
      </contour>
      <contour>
        <pt x="404" y="784" on="0"/>
        <pt x="404" y="828" on="0"/>
        <pt x="433" y="857" on="0"/>
        <pt x="477" y="857" on="0"/>
        <pt x="507" y="828" on="0"/>
        <pt x="507" y="784" on="0"/>
        <pt x="477" y="754" on="0"/>
        <pt x="433" y="754" on="0"/>
      </contour>
      <contour>
        <pt x="202" y="784" on="0"/>
        <pt x="202" y="828" on="0"/>
        <pt x="232" y="857" on="0"/>
        <pt x="276" y="857" on="0"/>
        <pt x="305" y="828" on="0"/>
        <pt x="305" y="784" on="0"/>
        <pt x="276" y="754" on="0"/>
        <pt x="232" y="754" on="0"/>
      </contour>
    </TTGlyph>
    <TTGlyph name="Ograve" xMin="48" yMin="-8" xMax="653" yMax="883">
      <contour>
        <pt x="295" y="883" on="1"/>
        <pt x="393" y="727" on="1"/>
        <pt x="324" y="727" on="1"/>
        <pt x="200" y="883" on="1"/>
      </contour>
      <contour>
        <pt x="248" y="611" on="0"/>
        <pt x="133" y="466" on="0"/>
        <pt x="133" y="215" on="0"/>
        <pt x="252" y="69" on="0"/>
        <pt x="454" y="69" on="0"/>
        <pt x="567" y="213" on="0"/>
        <pt x="567" y="467" on="0"/>
        <pt x="453" y="611" on="0"/>
      </contour>
      <contour>
        <pt x="214" y="-8" on="0"/>
        <pt x="48" y="182" on="0"/>
        <pt x="48" y="499" on="0"/>
        <pt x="211" y="687" on="0"/>
        <pt x="492" y="687" on="0"/>
        <pt x="653" y="500" on="0"/>
        <pt x="653" y="181" on="0"/>
        <pt x="490" y="-8" on="0"/>
      </contour>
    </TTGlyph>
    <TTGlyph name="Ohungarumlaut" xMin="48" yMin="-8" xMax="653" yMax="883">
      <contour>
        <pt x="248" y="611" on="0"/>
        <pt x="133" y="466" on="0"/>
        <pt x="133" y="215" on="0"/>
        <pt x="252" y="69" on="0"/>
        <pt x="454" y="69" on="0"/>
        <pt x="567" y="213" on="0"/>
        <pt x="567" y="467" on="0"/>
        <pt x="453" y="611" on="0"/>
      </contour>
      <contour>
        <pt x="214" y="-8" on="0"/>
        <pt x="48" y="182" on="0"/>
        <pt x="48" y="499" on="0"/>
        <pt x="211" y="687" on="0"/>
        <pt x="492" y="687" on="0"/>
        <pt x="653" y="500" on="0"/>
        <pt x="653" y="181" on="0"/>
        <pt x="490" y="-8" on="0"/>
      </contour>
      <contour>
        <pt x="257" y="727" on="1"/>
        <pt x="353" y="883" on="1"/>
        <pt x="445" y="883" on="1"/>
        <pt x="318" y="727" on="1"/>
      </contour>
      <contour>
        <pt x="413" y="727" on="1"/>
        <pt x="514" y="883" on="1"/>
        <pt x="608" y="883" on="1"/>
        <pt x="474" y="727" on="1"/>
      </contour>
    </TTGlyph>
    <TTGlyph name="Omacron" xMin="48" yMin="-8" xMax="653" yMax="833">
      <contour>
        <pt x="248" y="611" on="0"/>
        <pt x="133" y="466" on="0"/>
        <pt x="133" y="215" on="0"/>
        <pt x="252" y="69" on="0"/>
        <pt x="454" y="69" on="0"/>
        <pt x="567" y="213" on="0"/>
        <pt x="567" y="467" on="0"/>
        <pt x="453" y="611" on="0"/>
      </contour>
      <contour>
        <pt x="214" y="-8" on="0"/>
        <pt x="48" y="182" on="0"/>
        <pt x="48" y="499" on="0"/>
        <pt x="211" y="687" on="0"/>
        <pt x="492" y="687" on="0"/>
        <pt x="653" y="500" on="0"/>
        <pt x="653" y="181" on="0"/>
        <pt x="490" y="-8" on="0"/>
      </contour>
      <contour>
        <pt x="492" y="777" on="1"/>
        <pt x="210" y="777" on="1"/>
        <pt x="210" y="833" on="1"/>
        <pt x="492" y="833" on="1"/>
      </contour>
    </TTGlyph>
    <TTGlyph name="Oslash" xMin="41" yMin="-9" xMax="647" yMax="687">
      <contour>
        <pt x="572" y="586" on="1"/>
        <pt x="646" y="493" on="0"/>
        <pt x="646" y="181" on="0"/>
        <pt x="483" y="-8" on="0"/>
        <pt x="345" y="-8" on="1"/>
        <pt x="242" y="-8" on="0"/>
        <pt x="168" y="46" on="1"/>
        <pt x="127" y="-9" on="1"/>
        <pt x="41" y="-9" on="1"/>
        <pt x="118" y="94" on="1"/>
        <pt x="41" y="190" on="0"/>
        <pt x="41" y="499" on="0"/>
        <pt x="204" y="687" on="0"/>
        <pt x="343" y="687" on="1"/>
        <pt x="448" y="687" on="0"/>
        <pt x="520" y="635" on="1"/>
        <pt x="559" y="687" on="1"/>
        <pt x="647" y="687" on="1"/>
      </contour>
      <contour>
        <pt x="343" y="612" on="1"/>
        <pt x="241" y="612" on="0"/>
        <pt x="125" y="467" on="0"/>
        <pt x="125" y="234" on="0"/>
        <pt x="169" y="163" on="1"/>
        <pt x="473" y="571" on="1"/>
        <pt x="421" y="612" on="0"/>
      </contour>
      <contour>
        <pt x="345" y="67" on="1"/>
        <pt x="448" y="67" on="0"/>
        <pt x="562" y="212" on="0"/>
        <pt x="562" y="449" on="0"/>
        <pt x="520" y="518" on="1"/>
        <pt x="216" y="110" on="1"/>
        <pt x="270" y="67" on="0"/>
      </contour>
    </TTGlyph>
    <TTGlyph name="Otilde" xMin="48" yMin="-8" xMax="653" yMax="862">
      <contour>
        <pt x="422" y="758" on="1"/>
        <pt x="395" y="758" on="0"/>
        <pt x="310" y="802" on="0"/>
        <pt x="294" y="802" on="1"/>
        <pt x="253" y="802" on="0"/>
        <pt x="226" y="754" on="1"/>
        <pt x="183" y="791" on="1"/>
        <pt x="197" y="821" on="0"/>
        <pt x="252" y="862" on="0"/>
        <pt x="314" y="862" on="0"/>
        <pt x="400" y="818" on="0"/>
        <pt x="418" y="818" on="1"/>
        <pt x="452" y="818" on="0"/>
        <pt x="472" y="861" on="1"/>
        <pt x="521" y="827" on="1"/>
        <pt x="489" y="758" on="0"/>
      </contour>
      <contour>
        <pt x="248" y="611" on="0"/>
        <pt x="133" y="466" on="0"/>
        <pt x="133" y="215" on="0"/>
        <pt x="252" y="69" on="0"/>
        <pt x="454" y="69" on="0"/>
        <pt x="567" y="213" on="0"/>
        <pt x="567" y="467" on="0"/>
        <pt x="453" y="611" on="0"/>
      </contour>
      <contour>
        <pt x="214" y="-8" on="0"/>
        <pt x="48" y="182" on="0"/>
        <pt x="48" y="499" on="0"/>
        <pt x="211" y="687" on="0"/>
        <pt x="492" y="687" on="0"/>
        <pt x="653" y="500" on="0"/>
        <pt x="653" y="181" on="0"/>
        <pt x="490" y="-8" on="0"/>
      </contour>
    </TTGlyph>
    <TTGlyph name="P" xMin="77" yMin="0" xMax="506" yMax="674">
      <contour>
        <pt x="77" y="674" on="1"/>
        <pt x="254" y="674" on="1"/>
        <pt x="371" y="674" on="0"/>
        <pt x="506" y="553" on="0"/>
        <pt x="506" y="367" on="0"/>
        <pt x="372" y="248" on="0"/>
        <pt x="262" y="248" on="1"/>
        <pt x="158" y="248" on="1"/>
        <pt x="158" y="0" on="1"/>
        <pt x="77" y="0" on="1"/>
      </contour>
      <contour>
        <pt x="158" y="317" on="1"/>
        <pt x="267" y="317" on="1"/>
        <pt x="340" y="318" on="0"/>
        <pt x="424" y="398" on="0"/>
        <pt x="424" y="523" on="0"/>
        <pt x="337" y="604" on="0"/>
        <pt x="259" y="605" on="1"/>
        <pt x="158" y="605" on="1"/>
      </contour>
    </TTGlyph>
    <TTGlyph name="Q" xMin="48" yMin="-142" xMax="683" yMax="687">
      <contour>
        <pt x="351" y="-8" on="1"/>
        <pt x="214" y="-8" on="0"/>
        <pt x="48" y="182" on="0"/>
        <pt x="48" y="499" on="0"/>
        <pt x="211" y="687" on="0"/>
        <pt x="492" y="687" on="0"/>
        <pt x="653" y="500" on="0"/>
        <pt x="653" y="340" on="1"/>
        <pt x="653" y="224" on="0"/>
        <pt x="564" y="57" on="0"/>
        <pt x="483" y="19" on="1"/>
        <pt x="683" y="-105" on="1"/>
        <pt x="595" y="-142" on="1"/>
        <pt x="395" y="-5" on="1"/>
        <pt x="374" y="-8" on="0"/>
      </contour>
      <contour>
        <pt x="248" y="611" on="0"/>
        <pt x="133" y="466" on="0"/>
        <pt x="133" y="215" on="0"/>
        <pt x="252" y="69" on="0"/>
        <pt x="454" y="69" on="0"/>
        <pt x="567" y="213" on="0"/>
        <pt x="567" y="467" on="0"/>
        <pt x="453" y="611" on="0"/>
      </contour>
    </TTGlyph>
    <TTGlyph name="R" xMin="77" yMin="0" xMax="525" yMax="674">
      <contour>
        <pt x="263" y="266" on="1"/>
        <pt x="158" y="266" on="1"/>
        <pt x="158" y="0" on="1"/>
        <pt x="77" y="0" on="1"/>
        <pt x="77" y="674" on="1"/>
        <pt x="246" y="674" on="1"/>
        <pt x="363" y="674" on="0"/>
        <pt x="484" y="564" on="0"/>
        <pt x="484" y="467" on="1"/>
        <pt x="482" y="397" on="0"/>
        <pt x="412" y="299" on="0"/>
        <pt x="348" y="279" on="1"/>
        <pt x="525" y="0" on="1"/>
        <pt x="428" y="0" on="1"/>
      </contour>
      <contour>
        <pt x="158" y="604" on="1"/>
        <pt x="158" y="335" on="1"/>
        <pt x="260" y="335" on="1"/>
        <pt x="329" y="335" on="0"/>
        <pt x="402" y="410" on="0"/>
        <pt x="402" y="469" on="1"/>
        <pt x="402" y="604" on="0"/>
        <pt x="251" y="604" on="1"/>
      </contour>
    </TTGlyph>
    <TTGlyph name="Racute" xMin="77" yMin="0" xMax="525" yMax="883">
      <contour>
        <pt x="263" y="266" on="1"/>
        <pt x="158" y="266" on="1"/>
        <pt x="158" y="0" on="1"/>
        <pt x="77" y="0" on="1"/>
        <pt x="77" y="674" on="1"/>
        <pt x="246" y="674" on="1"/>
        <pt x="363" y="674" on="0"/>
        <pt x="484" y="564" on="0"/>
        <pt x="484" y="467" on="1"/>
        <pt x="482" y="397" on="0"/>
        <pt x="412" y="299" on="0"/>
        <pt x="348" y="279" on="1"/>
        <pt x="525" y="0" on="1"/>
        <pt x="428" y="0" on="1"/>
      </contour>
      <contour>
        <pt x="158" y="604" on="1"/>
        <pt x="158" y="335" on="1"/>
        <pt x="260" y="335" on="1"/>
        <pt x="329" y="335" on="0"/>
        <pt x="402" y="410" on="0"/>
        <pt x="402" y="469" on="1"/>
        <pt x="402" y="604" on="0"/>
        <pt x="251" y="604" on="1"/>
      </contour>
      <contour>
        <pt x="429" y="883" on="1"/>
        <pt x="305" y="727" on="1"/>
        <pt x="236" y="727" on="1"/>
        <pt x="335" y="883" on="1"/>
      </contour>
    </TTGlyph>
    <TTGlyph name="Rcaron" xMin="77" yMin="0" xMax="525" yMax="882">
      <contour>
        <pt x="263" y="266" on="1"/>
        <pt x="158" y="266" on="1"/>
        <pt x="158" y="0" on="1"/>
        <pt x="77" y="0" on="1"/>
        <pt x="77" y="674" on="1"/>
        <pt x="246" y="674" on="1"/>
        <pt x="363" y="674" on="0"/>
        <pt x="484" y="564" on="0"/>
        <pt x="484" y="467" on="1"/>
        <pt x="482" y="397" on="0"/>
        <pt x="412" y="299" on="0"/>
        <pt x="348" y="279" on="1"/>
        <pt x="525" y="0" on="1"/>
        <pt x="428" y="0" on="1"/>
      </contour>
      <contour>
        <pt x="158" y="604" on="1"/>
        <pt x="158" y="335" on="1"/>
        <pt x="260" y="335" on="1"/>
        <pt x="329" y="335" on="0"/>
        <pt x="402" y="410" on="0"/>
        <pt x="402" y="469" on="1"/>
        <pt x="402" y="604" on="0"/>
        <pt x="251" y="604" on="1"/>
      </contour>
      <contour>
        <pt x="316" y="726" on="1"/>
        <pt x="240" y="726" on="1"/>
        <pt x="113" y="882" on="1"/>
        <pt x="193" y="882" on="1"/>
        <pt x="279" y="777" on="1"/>
        <pt x="363" y="882" on="1"/>
        <pt x="443" y="882" on="1"/>
      </contour>
    </TTGlyph>
    <TTGlyph name="S" xMin="66" yMin="-7" xMax="467" yMax="680">
      <contour>
        <pt x="430" y="564" on="1"/>
        <pt x="369" y="604" on="0"/>
        <pt x="223" y="604" on="0"/>
        <pt x="151" y="547" on="0"/>
        <pt x="151" y="501" on="1"/>
        <pt x="151" y="452" on="0"/>
        <pt x="194" y="422" on="1"/>
        <pt x="226" y="401" on="0"/>
        <pt x="322" y="358" on="0"/>
        <pt x="358" y="341" on="0"/>
        <pt x="415" y="304" on="0"/>
        <pt x="430" y="286" on="1"/>
        <pt x="467" y="241" on="0"/>
        <pt x="467" y="179" on="1"/>
        <pt x="467" y="90" on="0"/>
        <pt x="345" y="-7" on="0"/>
        <pt x="143" y="-7" on="0"/>
        <pt x="69" y="36" on="1"/>
        <pt x="69" y="123" on="1"/>
        <pt x="142" y="68" on="0"/>
        <pt x="247" y="68" on="1"/>
        <pt x="310" y="68" on="0"/>
        <pt x="382" y="124" on="0"/>
        <pt x="382" y="177" on="1"/>
        <pt x="382" y="221" on="0"/>
        <pt x="346" y="248" on="1"/>
        <pt x="306" y="278" on="0"/>
        <pt x="200" y="323" on="0"/>
        <pt x="155" y="347" on="0"/>
        <pt x="124" y="370" on="1"/>
        <pt x="66" y="416" on="0"/>
        <pt x="66" y="583" on="0"/>
        <pt x="189" y="680" on="0"/>
        <pt x="369" y="680" on="0"/>
        <pt x="430" y="649" on="1"/>
      </contour>
    </TTGlyph>
    <TTGlyph name="Sacute" xMin="66" yMin="-7" xMax="467" yMax="882">
      <contour>
        <pt x="430" y="564" on="1"/>
        <pt x="369" y="604" on="0"/>
        <pt x="223" y="604" on="0"/>
        <pt x="151" y="547" on="0"/>
        <pt x="151" y="501" on="1"/>
        <pt x="151" y="452" on="0"/>
        <pt x="194" y="422" on="1"/>
        <pt x="226" y="401" on="0"/>
        <pt x="322" y="358" on="0"/>
        <pt x="358" y="341" on="0"/>
        <pt x="415" y="304" on="0"/>
        <pt x="430" y="286" on="1"/>
        <pt x="467" y="241" on="0"/>
        <pt x="467" y="179" on="1"/>
        <pt x="467" y="90" on="0"/>
        <pt x="345" y="-7" on="0"/>
        <pt x="143" y="-7" on="0"/>
        <pt x="69" y="36" on="1"/>
        <pt x="69" y="123" on="1"/>
        <pt x="142" y="68" on="0"/>
        <pt x="247" y="68" on="1"/>
        <pt x="310" y="68" on="0"/>
        <pt x="382" y="124" on="0"/>
        <pt x="382" y="177" on="1"/>
        <pt x="382" y="221" on="0"/>
        <pt x="346" y="248" on="1"/>
        <pt x="306" y="278" on="0"/>
        <pt x="200" y="323" on="0"/>
        <pt x="155" y="347" on="0"/>
        <pt x="124" y="370" on="1"/>
        <pt x="66" y="416" on="0"/>
        <pt x="66" y="583" on="0"/>
        <pt x="189" y="680" on="0"/>
        <pt x="369" y="680" on="0"/>
        <pt x="430" y="649" on="1"/>
      </contour>
      <contour>
        <pt x="247" y="726" on="1"/>
        <pt x="346" y="882" on="1"/>
        <pt x="440" y="882" on="1"/>
        <pt x="316" y="726" on="1"/>
      </contour>
    </TTGlyph>
    <TTGlyph name="Scaron" xMin="66" yMin="-7" xMax="467" yMax="882">
      <contour>
        <pt x="301" y="726" on="1"/>
        <pt x="225" y="726" on="1"/>
        <pt x="98" y="882" on="1"/>
        <pt x="178" y="882" on="1"/>
        <pt x="264" y="777" on="1"/>
        <pt x="348" y="882" on="1"/>
        <pt x="428" y="882" on="1"/>
      </contour>
      <contour>
        <pt x="430" y="564" on="1"/>
        <pt x="369" y="604" on="0"/>
        <pt x="223" y="604" on="0"/>
        <pt x="151" y="547" on="0"/>
        <pt x="151" y="501" on="1"/>
        <pt x="151" y="452" on="0"/>
        <pt x="194" y="422" on="1"/>
        <pt x="226" y="401" on="0"/>
        <pt x="322" y="358" on="0"/>
        <pt x="358" y="341" on="0"/>
        <pt x="415" y="304" on="0"/>
        <pt x="430" y="286" on="1"/>
        <pt x="467" y="241" on="0"/>
        <pt x="467" y="179" on="1"/>
        <pt x="467" y="90" on="0"/>
        <pt x="345" y="-7" on="0"/>
        <pt x="143" y="-7" on="0"/>
        <pt x="69" y="36" on="1"/>
        <pt x="69" y="123" on="1"/>
        <pt x="142" y="68" on="0"/>
        <pt x="247" y="68" on="1"/>
        <pt x="310" y="68" on="0"/>
        <pt x="382" y="124" on="0"/>
        <pt x="382" y="177" on="1"/>
        <pt x="382" y="221" on="0"/>
        <pt x="346" y="248" on="1"/>
        <pt x="306" y="278" on="0"/>
        <pt x="200" y="323" on="0"/>
        <pt x="155" y="347" on="0"/>
        <pt x="124" y="370" on="1"/>
        <pt x="66" y="416" on="0"/>
        <pt x="66" y="583" on="0"/>
        <pt x="189" y="680" on="0"/>
        <pt x="369" y="680" on="0"/>
        <pt x="430" y="649" on="1"/>
      </contour>
    </TTGlyph>
    <TTGlyph name="Scircumflex" xMin="66" yMin="-7" xMax="467" yMax="882">
      <contour>
        <pt x="219" y="882" on="1"/>
        <pt x="295" y="882" on="1"/>
        <pt x="422" y="726" on="1"/>
        <pt x="342" y="726" on="1"/>
        <pt x="257" y="831" on="1"/>
        <pt x="172" y="726" on="1"/>
        <pt x="92" y="726" on="1"/>
      </contour>
      <contour>
        <pt x="430" y="564" on="1"/>
        <pt x="369" y="604" on="0"/>
        <pt x="223" y="604" on="0"/>
        <pt x="151" y="547" on="0"/>
        <pt x="151" y="501" on="1"/>
        <pt x="151" y="452" on="0"/>
        <pt x="194" y="422" on="1"/>
        <pt x="226" y="401" on="0"/>
        <pt x="322" y="358" on="0"/>
        <pt x="358" y="341" on="0"/>
        <pt x="415" y="304" on="0"/>
        <pt x="430" y="286" on="1"/>
        <pt x="467" y="241" on="0"/>
        <pt x="467" y="179" on="1"/>
        <pt x="467" y="90" on="0"/>
        <pt x="345" y="-7" on="0"/>
        <pt x="143" y="-7" on="0"/>
        <pt x="69" y="36" on="1"/>
        <pt x="69" y="123" on="1"/>
        <pt x="142" y="68" on="0"/>
        <pt x="247" y="68" on="1"/>
        <pt x="310" y="68" on="0"/>
        <pt x="382" y="124" on="0"/>
        <pt x="382" y="177" on="1"/>
        <pt x="382" y="221" on="0"/>
        <pt x="346" y="248" on="1"/>
        <pt x="306" y="278" on="0"/>
        <pt x="200" y="323" on="0"/>
        <pt x="155" y="347" on="0"/>
        <pt x="124" y="370" on="1"/>
        <pt x="66" y="416" on="0"/>
        <pt x="66" y="583" on="0"/>
        <pt x="189" y="680" on="0"/>
        <pt x="369" y="680" on="0"/>
        <pt x="430" y="649" on="1"/>
      </contour>
    </TTGlyph>
    <TTGlyph name="T" xMin="18" yMin="0" xMax="463" yMax="674">
      <contour>
        <pt x="463" y="674" on="1"/>
        <pt x="463" y="603" on="1"/>
        <pt x="281" y="603" on="1"/>
        <pt x="281" y="0" on="1"/>
        <pt x="200" y="0" on="1"/>
        <pt x="200" y="603" on="1"/>
        <pt x="18" y="603" on="1"/>
        <pt x="18" y="674" on="1"/>
      </contour>
    </TTGlyph>
    <TTGlyph name="Tbar" xMin="18" yMin="0" xMax="463" yMax="674">
      <contour>
        <pt x="463" y="603" on="1"/>
        <pt x="281" y="603" on="1"/>
        <pt x="281" y="362" on="1"/>
        <pt x="399" y="362" on="1"/>
        <pt x="399" y="298" on="1"/>
        <pt x="281" y="298" on="1"/>
        <pt x="281" y="0" on="1"/>
        <pt x="200" y="0" on="1"/>
        <pt x="200" y="298" on="1"/>
        <pt x="82" y="298" on="1"/>
        <pt x="82" y="362" on="1"/>
        <pt x="200" y="362" on="1"/>
        <pt x="200" y="603" on="1"/>
        <pt x="18" y="603" on="1"/>
        <pt x="18" y="674" on="1"/>
        <pt x="463" y="674" on="1"/>
      </contour>
    </TTGlyph>
    <TTGlyph name="Tcaron" xMin="18" yMin="0" xMax="463" yMax="883">
      <contour>
        <pt x="463" y="674" on="1"/>
        <pt x="463" y="603" on="1"/>
        <pt x="281" y="603" on="1"/>
        <pt x="281" y="0" on="1"/>
        <pt x="200" y="0" on="1"/>
        <pt x="200" y="603" on="1"/>
        <pt x="18" y="603" on="1"/>
        <pt x="18" y="674" on="1"/>
      </contour>
      <contour>
        <pt x="279" y="727" on="1"/>
        <pt x="203" y="727" on="1"/>
        <pt x="76" y="883" on="1"/>
        <pt x="156" y="883" on="1"/>
        <pt x="242" y="778" on="1"/>
        <pt x="326" y="883" on="1"/>
        <pt x="406" y="883" on="1"/>
      </contour>
    </TTGlyph>
    <TTGlyph name="Thorn" xMin="77" yMin="0" xMax="498" yMax="674">
      <contour>
        <pt x="158" y="550" on="1"/>
        <pt x="246" y="550" on="1"/>
        <pt x="368" y="550" on="0"/>
        <pt x="498" y="431" on="0"/>
        <pt x="498" y="241" on="0"/>
        <pt x="369" y="124" on="0"/>
        <pt x="254" y="124" on="1"/>
        <pt x="158" y="124" on="1"/>
        <pt x="158" y="0" on="1"/>
        <pt x="77" y="0" on="1"/>
        <pt x="77" y="674" on="1"/>
        <pt x="158" y="674" on="1"/>
      </contour>
      <contour>
        <pt x="158" y="193" on="1"/>
        <pt x="257" y="193" on="1"/>
        <pt x="336" y="193" on="0"/>
        <pt x="416" y="270" on="0"/>
        <pt x="416" y="400" on="0"/>
        <pt x="334" y="481" on="0"/>
        <pt x="249" y="481" on="1"/>
        <pt x="158" y="481" on="1"/>
      </contour>
    </TTGlyph>
    <TTGlyph name="U" xMin="76" yMin="-8" xMax="569" yMax="674">
      <contour>
        <pt x="488" y="254" on="1"/>
        <pt x="488" y="674" on="1"/>
        <pt x="569" y="674" on="1"/>
        <pt x="569" y="256" on="1"/>
        <pt x="569" y="126" on="0"/>
        <pt x="438" y="-8" on="0"/>
        <pt x="206" y="-8" on="0"/>
        <pt x="76" y="123" on="0"/>
        <pt x="76" y="248" on="1"/>
        <pt x="76" y="674" on="1"/>
        <pt x="157" y="674" on="1"/>
        <pt x="157" y="249" on="1"/>
        <pt x="157" y="156" on="0"/>
        <pt x="246" y="68" on="0"/>
        <pt x="321" y="68" on="1"/>
        <pt x="488" y="68" on="0"/>
      </contour>
    </TTGlyph>
    <TTGlyph name="Uacute" xMin="76" yMin="-8" xMax="569" yMax="883">
      <contour>
        <pt x="488" y="254" on="1"/>
        <pt x="488" y="674" on="1"/>
        <pt x="569" y="674" on="1"/>
        <pt x="569" y="256" on="1"/>
        <pt x="569" y="126" on="0"/>
        <pt x="438" y="-8" on="0"/>
        <pt x="206" y="-8" on="0"/>
        <pt x="76" y="123" on="0"/>
        <pt x="76" y="248" on="1"/>
        <pt x="76" y="674" on="1"/>
        <pt x="157" y="674" on="1"/>
        <pt x="157" y="249" on="1"/>
        <pt x="157" y="156" on="0"/>
        <pt x="246" y="68" on="0"/>
        <pt x="321" y="68" on="1"/>
        <pt x="488" y="68" on="0"/>
      </contour>
      <contour>
        <pt x="300" y="727" on="1"/>
        <pt x="399" y="883" on="1"/>
        <pt x="493" y="883" on="1"/>
        <pt x="369" y="727" on="1"/>
      </contour>
    </TTGlyph>
    <TTGlyph name="Ubreve" xMin="76" yMin="-8" xMax="569" yMax="882">
      <contour>
        <pt x="488" y="254" on="1"/>
        <pt x="488" y="674" on="1"/>
        <pt x="569" y="674" on="1"/>
        <pt x="569" y="256" on="1"/>
        <pt x="569" y="126" on="0"/>
        <pt x="438" y="-8" on="0"/>
        <pt x="206" y="-8" on="0"/>
        <pt x="76" y="123" on="0"/>
        <pt x="76" y="248" on="1"/>
        <pt x="76" y="674" on="1"/>
        <pt x="157" y="674" on="1"/>
        <pt x="157" y="249" on="1"/>
        <pt x="157" y="156" on="0"/>
        <pt x="246" y="68" on="0"/>
        <pt x="321" y="68" on="1"/>
        <pt x="488" y="68" on="0"/>
      </contour>
      <contour>
        <pt x="161" y="882" on="1"/>
        <pt x="226" y="882" on="1"/>
        <pt x="226" y="836" on="0"/>
        <pt x="274" y="780" on="0"/>
        <pt x="377" y="780" on="0"/>
        <pt x="425" y="836" on="0"/>
        <pt x="425" y="882" on="1"/>
        <pt x="490" y="882" on="1"/>
        <pt x="490" y="809" on="0"/>
        <pt x="408" y="723" on="0"/>
        <pt x="244" y="723" on="0"/>
        <pt x="161" y="809" on="0"/>
      </contour>
    </TTGlyph>
    <TTGlyph name="Ucircumflex" xMin="76" yMin="-8" xMax="569" yMax="883">
      <contour>
        <pt x="286" y="883" on="1"/>
        <pt x="362" y="883" on="1"/>
        <pt x="489" y="727" on="1"/>
        <pt x="409" y="727" on="1"/>
        <pt x="324" y="832" on="1"/>
        <pt x="239" y="727" on="1"/>
        <pt x="159" y="727" on="1"/>
      </contour>
      <contour>
        <pt x="488" y="254" on="1"/>
        <pt x="488" y="674" on="1"/>
        <pt x="569" y="674" on="1"/>
        <pt x="569" y="256" on="1"/>
        <pt x="569" y="126" on="0"/>
        <pt x="438" y="-8" on="0"/>
        <pt x="206" y="-8" on="0"/>
        <pt x="76" y="123" on="0"/>
        <pt x="76" y="248" on="1"/>
        <pt x="76" y="674" on="1"/>
        <pt x="157" y="674" on="1"/>
        <pt x="157" y="249" on="1"/>
        <pt x="157" y="156" on="0"/>
        <pt x="246" y="68" on="0"/>
        <pt x="321" y="68" on="1"/>
        <pt x="488" y="68" on="0"/>
      </contour>
    </TTGlyph>
    <TTGlyph name="Udieresis" xMin="76" yMin="-8" xMax="569" yMax="857">
      <contour>
        <pt x="488" y="254" on="1"/>
        <pt x="488" y="674" on="1"/>
        <pt x="569" y="674" on="1"/>
        <pt x="569" y="256" on="1"/>
        <pt x="569" y="126" on="0"/>
        <pt x="438" y="-8" on="0"/>
        <pt x="206" y="-8" on="0"/>
        <pt x="76" y="123" on="0"/>
        <pt x="76" y="248" on="1"/>
        <pt x="76" y="674" on="1"/>
        <pt x="157" y="674" on="1"/>
        <pt x="157" y="249" on="1"/>
        <pt x="157" y="156" on="0"/>
        <pt x="246" y="68" on="0"/>
        <pt x="321" y="68" on="1"/>
        <pt x="488" y="68" on="0"/>
      </contour>
      <contour>
        <pt x="373" y="784" on="0"/>
        <pt x="373" y="828" on="0"/>
        <pt x="402" y="857" on="0"/>
        <pt x="446" y="857" on="0"/>
        <pt x="476" y="828" on="0"/>
        <pt x="476" y="784" on="0"/>
        <pt x="446" y="754" on="0"/>
        <pt x="402" y="754" on="0"/>
      </contour>
      <contour>
        <pt x="171" y="784" on="0"/>
        <pt x="171" y="828" on="0"/>
        <pt x="201" y="857" on="0"/>
        <pt x="245" y="857" on="0"/>
        <pt x="274" y="828" on="0"/>
        <pt x="274" y="784" on="0"/>
        <pt x="245" y="754" on="0"/>
        <pt x="201" y="754" on="0"/>
      </contour>
    </TTGlyph>
    <TTGlyph name="Ugrave" xMin="76" yMin="-8" xMax="569" yMax="883">
      <contour>
        <pt x="262" y="883" on="1"/>
        <pt x="360" y="727" on="1"/>
        <pt x="291" y="727" on="1"/>
        <pt x="167" y="883" on="1"/>
      </contour>
      <contour>
        <pt x="488" y="254" on="1"/>
        <pt x="488" y="674" on="1"/>
        <pt x="569" y="674" on="1"/>
        <pt x="569" y="256" on="1"/>
        <pt x="569" y="126" on="0"/>
        <pt x="438" y="-8" on="0"/>
        <pt x="206" y="-8" on="0"/>
        <pt x="76" y="123" on="0"/>
        <pt x="76" y="248" on="1"/>
        <pt x="76" y="674" on="1"/>
        <pt x="157" y="674" on="1"/>
        <pt x="157" y="249" on="1"/>
        <pt x="157" y="156" on="0"/>
        <pt x="246" y="68" on="0"/>
        <pt x="321" y="68" on="1"/>
        <pt x="488" y="68" on="0"/>
      </contour>
    </TTGlyph>
    <TTGlyph name="Uhungarumlaut" xMin="76" yMin="-8" xMax="569" yMax="883">
      <contour>
        <pt x="211" y="727" on="1"/>
        <pt x="307" y="883" on="1"/>
        <pt x="399" y="883" on="1"/>
        <pt x="272" y="727" on="1"/>
      </contour>
      <contour>
        <pt x="367" y="727" on="1"/>
        <pt x="468" y="883" on="1"/>
        <pt x="562" y="883" on="1"/>
        <pt x="428" y="727" on="1"/>
      </contour>
      <contour>
        <pt x="488" y="254" on="1"/>
        <pt x="488" y="674" on="1"/>
        <pt x="569" y="674" on="1"/>
        <pt x="569" y="256" on="1"/>
        <pt x="569" y="126" on="0"/>
        <pt x="438" y="-8" on="0"/>
        <pt x="206" y="-8" on="0"/>
        <pt x="76" y="123" on="0"/>
        <pt x="76" y="248" on="1"/>
        <pt x="76" y="674" on="1"/>
        <pt x="157" y="674" on="1"/>
        <pt x="157" y="249" on="1"/>
        <pt x="157" y="156" on="0"/>
        <pt x="246" y="68" on="0"/>
        <pt x="321" y="68" on="1"/>
        <pt x="488" y="68" on="0"/>
      </contour>
    </TTGlyph>
    <TTGlyph name="Umacron" xMin="76" yMin="-8" xMax="569" yMax="833">
      <contour>
        <pt x="467" y="777" on="1"/>
        <pt x="185" y="777" on="1"/>
        <pt x="185" y="833" on="1"/>
        <pt x="467" y="833" on="1"/>
      </contour>
      <contour>
        <pt x="488" y="254" on="1"/>
        <pt x="488" y="674" on="1"/>
        <pt x="569" y="674" on="1"/>
        <pt x="569" y="256" on="1"/>
        <pt x="569" y="126" on="0"/>
        <pt x="438" y="-8" on="0"/>
        <pt x="206" y="-8" on="0"/>
        <pt x="76" y="123" on="0"/>
        <pt x="76" y="248" on="1"/>
        <pt x="76" y="674" on="1"/>
        <pt x="157" y="674" on="1"/>
        <pt x="157" y="249" on="1"/>
        <pt x="157" y="156" on="0"/>
        <pt x="246" y="68" on="0"/>
        <pt x="321" y="68" on="1"/>
        <pt x="488" y="68" on="0"/>
      </contour>
    </TTGlyph>
    <TTGlyph name="Uogonek" xMin="76" yMin="-235" xMax="569" yMax="674">
      <contour>
        <pt x="488" y="674" on="1"/>
        <pt x="569" y="674" on="1"/>
        <pt x="569" y="256" on="1"/>
        <pt x="569" y="56" on="0"/>
        <pt x="419" y="7" on="1"/>
        <pt x="307" y="-49" on="0"/>
        <pt x="307" y="-118" on="1"/>
        <pt x="307" y="-147" on="0"/>
        <pt x="342" y="-177" on="0"/>
        <pt x="411" y="-177" on="0"/>
        <pt x="440" y="-155" on="1"/>
        <pt x="440" y="-216" on="1"/>
        <pt x="408" y="-235" on="0"/>
        <pt x="303" y="-235" on="0"/>
        <pt x="239" y="-173" on="0"/>
        <pt x="239" y="-125" on="1"/>
        <pt x="239" y="-62" on="0"/>
        <pt x="299" y="-7" on="1"/>
        <pt x="194" y="-1" on="0"/>
        <pt x="76" y="129" on="0"/>
        <pt x="76" y="248" on="1"/>
        <pt x="76" y="674" on="1"/>
        <pt x="157" y="674" on="1"/>
        <pt x="157" y="249" on="1"/>
        <pt x="157" y="156" on="0"/>
        <pt x="246" y="68" on="0"/>
        <pt x="321" y="68" on="1"/>
        <pt x="488" y="68" on="0"/>
        <pt x="488" y="254" on="1"/>
      </contour>
    </TTGlyph>
    <TTGlyph name="Uring" xMin="76" yMin="-8" xMax="569" yMax="929">
      <contour>
        <pt x="488" y="254" on="1"/>
        <pt x="488" y="674" on="1"/>
        <pt x="569" y="674" on="1"/>
        <pt x="569" y="256" on="1"/>
        <pt x="569" y="126" on="0"/>
        <pt x="438" y="-8" on="0"/>
        <pt x="206" y="-8" on="0"/>
        <pt x="76" y="123" on="0"/>
        <pt x="76" y="248" on="1"/>
        <pt x="76" y="674" on="1"/>
        <pt x="157" y="674" on="1"/>
        <pt x="157" y="249" on="1"/>
        <pt x="157" y="156" on="0"/>
        <pt x="246" y="68" on="0"/>
        <pt x="321" y="68" on="1"/>
        <pt x="488" y="68" on="0"/>
      </contour>
      <contour>
        <pt x="303" y="877" on="0"/>
        <pt x="272" y="846" on="0"/>
        <pt x="272" y="801" on="0"/>
        <pt x="303" y="769" on="0"/>
        <pt x="347" y="769" on="0"/>
        <pt x="379" y="801" on="0"/>
        <pt x="379" y="846" on="0"/>
        <pt x="348" y="877" on="0"/>
      </contour>
      <contour>
        <pt x="219" y="778" on="0"/>
        <pt x="219" y="866" on="0"/>
        <pt x="281" y="929" on="0"/>
        <pt x="369" y="929" on="0"/>
        <pt x="431" y="866" on="0"/>
        <pt x="431" y="778" on="0"/>
        <pt x="369" y="716" on="0"/>
        <pt x="281" y="716" on="0"/>
      </contour>
    </TTGlyph>
    <TTGlyph name="Utilde" xMin="76" yMin="-8" xMax="569" yMax="860">
      <contour>
        <pt x="399" y="756" on="1"/>
        <pt x="372" y="756" on="0"/>
        <pt x="287" y="800" on="0"/>
        <pt x="271" y="800" on="1"/>
        <pt x="230" y="800" on="0"/>
        <pt x="203" y="752" on="1"/>
        <pt x="160" y="789" on="1"/>
        <pt x="174" y="819" on="0"/>
        <pt x="229" y="860" on="0"/>
        <pt x="291" y="860" on="0"/>
        <pt x="377" y="816" on="0"/>
        <pt x="395" y="816" on="1"/>
        <pt x="429" y="816" on="0"/>
        <pt x="449" y="859" on="1"/>
        <pt x="498" y="825" on="1"/>
        <pt x="466" y="756" on="0"/>
      </contour>
      <contour>
        <pt x="488" y="254" on="1"/>
        <pt x="488" y="674" on="1"/>
        <pt x="569" y="674" on="1"/>
        <pt x="569" y="256" on="1"/>
        <pt x="569" y="126" on="0"/>
        <pt x="438" y="-8" on="0"/>
        <pt x="206" y="-8" on="0"/>
        <pt x="76" y="123" on="0"/>
        <pt x="76" y="248" on="1"/>
        <pt x="76" y="674" on="1"/>
        <pt x="157" y="674" on="1"/>
        <pt x="157" y="249" on="1"/>
        <pt x="157" y="156" on="0"/>
        <pt x="246" y="68" on="0"/>
        <pt x="321" y="68" on="1"/>
        <pt x="488" y="68" on="0"/>
      </contour>
    </TTGlyph>
    <TTGlyph name="V" xMin="36" yMin="0" xMax="601" yMax="674">
      <contour>
        <pt x="601" y="674" on="1"/>
        <pt x="366" y="0" on="1"/>
        <pt x="264" y="0" on="1"/>
        <pt x="36" y="674" on="1"/>
        <pt x="123" y="674" on="1"/>
        <pt x="211" y="407" on="1"/>
        <pt x="316" y="73" on="1"/>
        <pt x="367" y="239" on="0"/>
        <pt x="514" y="674" on="1"/>
      </contour>
    </TTGlyph>
    <TTGlyph name="W" xMin="36" yMin="0" xMax="902" yMax="674">
      <contour>
        <pt x="432" y="664" on="1"/>
        <pt x="513" y="664" on="1"/>
        <pt x="587" y="424" on="1"/>
        <pt x="689" y="82" on="1"/>
        <pt x="727" y="263" on="0"/>
        <pt x="820" y="674" on="1"/>
        <pt x="902" y="674" on="1"/>
        <pt x="744" y="0" on="1"/>
        <pt x="640" y="0" on="1"/>
        <pt x="474" y="550" on="1"/>
        <pt x="445" y="439" on="0"/>
        <pt x="315" y="0" on="1"/>
        <pt x="212" y="0" on="1"/>
        <pt x="36" y="674" on="1"/>
        <pt x="121" y="674" on="1"/>
        <pt x="184" y="424" on="1"/>
        <pt x="267" y="85" on="1"/>
        <pt x="324" y="295" on="0"/>
      </contour>
    </TTGlyph>
    <TTGlyph name="Wacute" xMin="36" yMin="0" xMax="902" yMax="883">
      <contour>
        <pt x="446" y="727" on="1"/>
        <pt x="545" y="883" on="1"/>
        <pt x="639" y="883" on="1"/>
        <pt x="515" y="727" on="1"/>
      </contour>
      <contour>
        <pt x="432" y="664" on="1"/>
        <pt x="513" y="664" on="1"/>
        <pt x="587" y="424" on="1"/>
        <pt x="689" y="82" on="1"/>
        <pt x="727" y="263" on="0"/>
        <pt x="820" y="674" on="1"/>
        <pt x="902" y="674" on="1"/>
        <pt x="744" y="0" on="1"/>
        <pt x="640" y="0" on="1"/>
        <pt x="474" y="550" on="1"/>
        <pt x="445" y="439" on="0"/>
        <pt x="315" y="0" on="1"/>
        <pt x="212" y="0" on="1"/>
        <pt x="36" y="674" on="1"/>
        <pt x="121" y="674" on="1"/>
        <pt x="184" y="424" on="1"/>
        <pt x="267" y="85" on="1"/>
        <pt x="324" y="295" on="0"/>
      </contour>
    </TTGlyph>
    <TTGlyph name="Wcircumflex" xMin="36" yMin="0" xMax="902" yMax="883">
      <contour>
        <pt x="437" y="883" on="1"/>
        <pt x="513" y="883" on="1"/>
        <pt x="640" y="727" on="1"/>
        <pt x="560" y="727" on="1"/>
        <pt x="475" y="832" on="1"/>
        <pt x="390" y="727" on="1"/>
        <pt x="310" y="727" on="1"/>
      </contour>
      <contour>
        <pt x="432" y="664" on="1"/>
        <pt x="513" y="664" on="1"/>
        <pt x="587" y="424" on="1"/>
        <pt x="689" y="82" on="1"/>
        <pt x="727" y="263" on="0"/>
        <pt x="820" y="674" on="1"/>
        <pt x="902" y="674" on="1"/>
        <pt x="744" y="0" on="1"/>
        <pt x="640" y="0" on="1"/>
        <pt x="474" y="550" on="1"/>
        <pt x="445" y="439" on="0"/>
        <pt x="315" y="0" on="1"/>
        <pt x="212" y="0" on="1"/>
        <pt x="36" y="674" on="1"/>
        <pt x="121" y="674" on="1"/>
        <pt x="184" y="424" on="1"/>
        <pt x="267" y="85" on="1"/>
        <pt x="324" y="295" on="0"/>
      </contour>
    </TTGlyph>
    <TTGlyph name="Wdieresis" xMin="36" yMin="0" xMax="902" yMax="856">
      <contour>
        <pt x="321" y="783" on="0"/>
        <pt x="321" y="827" on="0"/>
        <pt x="351" y="856" on="0"/>
        <pt x="395" y="856" on="0"/>
        <pt x="424" y="827" on="0"/>
        <pt x="424" y="783" on="0"/>
        <pt x="395" y="753" on="0"/>
        <pt x="351" y="753" on="0"/>
      </contour>
      <contour>
        <pt x="523" y="783" on="0"/>
        <pt x="523" y="827" on="0"/>
        <pt x="552" y="856" on="0"/>
        <pt x="596" y="856" on="0"/>
        <pt x="626" y="827" on="0"/>
        <pt x="626" y="783" on="0"/>
        <pt x="596" y="753" on="0"/>
        <pt x="552" y="753" on="0"/>
      </contour>
      <contour>
        <pt x="432" y="664" on="1"/>
        <pt x="513" y="664" on="1"/>
        <pt x="587" y="424" on="1"/>
        <pt x="689" y="82" on="1"/>
        <pt x="727" y="263" on="0"/>
        <pt x="820" y="674" on="1"/>
        <pt x="902" y="674" on="1"/>
        <pt x="744" y="0" on="1"/>
        <pt x="640" y="0" on="1"/>
        <pt x="474" y="550" on="1"/>
        <pt x="445" y="439" on="0"/>
        <pt x="315" y="0" on="1"/>
        <pt x="212" y="0" on="1"/>
        <pt x="36" y="674" on="1"/>
        <pt x="121" y="674" on="1"/>
        <pt x="184" y="424" on="1"/>
        <pt x="267" y="85" on="1"/>
        <pt x="324" y="295" on="0"/>
      </contour>
    </TTGlyph>
    <TTGlyph name="Wgrave" xMin="36" yMin="0" xMax="902" yMax="882">
      <contour>
        <pt x="432" y="664" on="1"/>
        <pt x="513" y="664" on="1"/>
        <pt x="587" y="424" on="1"/>
        <pt x="689" y="82" on="1"/>
        <pt x="727" y="263" on="0"/>
        <pt x="820" y="674" on="1"/>
        <pt x="902" y="674" on="1"/>
        <pt x="744" y="0" on="1"/>
        <pt x="640" y="0" on="1"/>
        <pt x="474" y="550" on="1"/>
        <pt x="445" y="439" on="0"/>
        <pt x="315" y="0" on="1"/>
        <pt x="212" y="0" on="1"/>
        <pt x="36" y="674" on="1"/>
        <pt x="121" y="674" on="1"/>
        <pt x="184" y="424" on="1"/>
        <pt x="267" y="85" on="1"/>
        <pt x="324" y="295" on="0"/>
      </contour>
      <contour>
        <pt x="403" y="882" on="1"/>
        <pt x="501" y="726" on="1"/>
        <pt x="432" y="726" on="1"/>
        <pt x="308" y="882" on="1"/>
      </contour>
    </TTGlyph>
    <TTGlyph name="X" xMin="39" yMin="0" xMax="574" yMax="674">
      <contour>
        <pt x="303" y="271" on="1"/>
        <pt x="135" y="0" on="1"/>
        <pt x="39" y="0" on="1"/>
        <pt x="256" y="340" on="1"/>
        <pt x="51" y="674" on="1"/>
        <pt x="146" y="674" on="1"/>
        <pt x="301" y="413" on="1"/>
        <pt x="456" y="674" on="1"/>
        <pt x="552" y="674" on="1"/>
        <pt x="348" y="340" on="1"/>
        <pt x="574" y="0" on="1"/>
        <pt x="479" y="0" on="1"/>
      </contour>
    </TTGlyph>
    <TTGlyph name="Y" xMin="26" yMin="0" xMax="567" yMax="674">
      <contour>
        <pt x="336" y="0" on="1"/>
        <pt x="255" y="0" on="1"/>
        <pt x="255" y="250" on="1"/>
        <pt x="26" y="674" on="1"/>
        <pt x="120" y="674" on="1"/>
        <pt x="277" y="370" on="0"/>
        <pt x="295" y="324" on="1"/>
        <pt x="300" y="339" on="0"/>
        <pt x="473" y="674" on="1"/>
        <pt x="567" y="674" on="1"/>
        <pt x="336" y="251" on="1"/>
      </contour>
    </TTGlyph>
    <TTGlyph name="Yacute" xMin="26" yMin="0" xMax="567" yMax="882">
      <contour>
        <pt x="336" y="0" on="1"/>
        <pt x="255" y="0" on="1"/>
        <pt x="255" y="250" on="1"/>
        <pt x="26" y="674" on="1"/>
        <pt x="120" y="674" on="1"/>
        <pt x="277" y="370" on="0"/>
        <pt x="295" y="324" on="1"/>
        <pt x="300" y="339" on="0"/>
        <pt x="473" y="674" on="1"/>
        <pt x="567" y="674" on="1"/>
        <pt x="336" y="251" on="1"/>
      </contour>
      <contour>
        <pt x="472" y="882" on="1"/>
        <pt x="348" y="726" on="1"/>
        <pt x="279" y="726" on="1"/>
        <pt x="378" y="882" on="1"/>
      </contour>
    </TTGlyph>
    <TTGlyph name="Ycircumflex" xMin="26" yMin="0" xMax="567" yMax="882">
      <contour>
        <pt x="336" y="0" on="1"/>
        <pt x="255" y="0" on="1"/>
        <pt x="255" y="250" on="1"/>
        <pt x="26" y="674" on="1"/>
        <pt x="120" y="674" on="1"/>
        <pt x="277" y="370" on="0"/>
        <pt x="295" y="324" on="1"/>
        <pt x="300" y="339" on="0"/>
        <pt x="473" y="674" on="1"/>
        <pt x="567" y="674" on="1"/>
        <pt x="336" y="251" on="1"/>
      </contour>
      <contour>
        <pt x="296" y="831" on="1"/>
        <pt x="211" y="726" on="1"/>
        <pt x="131" y="726" on="1"/>
        <pt x="258" y="882" on="1"/>
        <pt x="334" y="882" on="1"/>
        <pt x="461" y="726" on="1"/>
        <pt x="381" y="726" on="1"/>
      </contour>
    </TTGlyph>
    <TTGlyph name="Ydieresis" xMin="26" yMin="0" xMax="567" yMax="856">
      <contour>
        <pt x="336" y="0" on="1"/>
        <pt x="255" y="0" on="1"/>
        <pt x="255" y="250" on="1"/>
        <pt x="26" y="674" on="1"/>
        <pt x="120" y="674" on="1"/>
        <pt x="277" y="370" on="0"/>
        <pt x="295" y="324" on="1"/>
        <pt x="300" y="339" on="0"/>
        <pt x="473" y="674" on="1"/>
        <pt x="567" y="674" on="1"/>
        <pt x="336" y="251" on="1"/>
      </contour>
      <contour>
        <pt x="219" y="753" on="0"/>
        <pt x="175" y="753" on="0"/>
        <pt x="145" y="783" on="0"/>
        <pt x="145" y="827" on="0"/>
        <pt x="175" y="856" on="0"/>
        <pt x="219" y="856" on="0"/>
        <pt x="248" y="827" on="0"/>
        <pt x="248" y="783" on="0"/>
      </contour>
      <contour>
        <pt x="420" y="753" on="0"/>
        <pt x="376" y="753" on="0"/>
        <pt x="347" y="783" on="0"/>
        <pt x="347" y="827" on="0"/>
        <pt x="376" y="856" on="0"/>
        <pt x="420" y="856" on="0"/>
        <pt x="450" y="827" on="0"/>
        <pt x="450" y="783" on="0"/>
      </contour>
    </TTGlyph>
    <TTGlyph name="Ygrave" xMin="26" yMin="0" xMax="567" yMax="883">
      <contour>
        <pt x="336" y="0" on="1"/>
        <pt x="255" y="0" on="1"/>
        <pt x="255" y="250" on="1"/>
        <pt x="26" y="674" on="1"/>
        <pt x="120" y="674" on="1"/>
        <pt x="277" y="370" on="0"/>
        <pt x="295" y="324" on="1"/>
        <pt x="300" y="339" on="0"/>
        <pt x="473" y="674" on="1"/>
        <pt x="567" y="674" on="1"/>
        <pt x="336" y="251" on="1"/>
      </contour>
      <contour>
        <pt x="341" y="727" on="1"/>
        <pt x="272" y="727" on="1"/>
        <pt x="148" y="883" on="1"/>
        <pt x="243" y="883" on="1"/>
      </contour>
    </TTGlyph>
    <TTGlyph name="Z" xMin="52" yMin="0" xMax="517" yMax="674">
      <contour>
        <pt x="502" y="674" on="1"/>
        <pt x="502" y="608" on="1"/>
        <pt x="146" y="69" on="1"/>
        <pt x="517" y="69" on="1"/>
        <pt x="517" y="0" on="1"/>
        <pt x="52" y="0" on="1"/>
        <pt x="52" y="67" on="1"/>
        <pt x="408" y="605" on="1"/>
        <pt x="57" y="605" on="1"/>
        <pt x="57" y="674" on="1"/>
      </contour>
    </TTGlyph>
    <TTGlyph name="Zacute" xMin="52" yMin="0" xMax="517" yMax="883">
      <contour>
        <pt x="502" y="674" on="1"/>
        <pt x="502" y="608" on="1"/>
        <pt x="146" y="69" on="1"/>
        <pt x="517" y="69" on="1"/>
        <pt x="517" y="0" on="1"/>
        <pt x="52" y="0" on="1"/>
        <pt x="52" y="67" on="1"/>
        <pt x="408" y="605" on="1"/>
        <pt x="57" y="605" on="1"/>
        <pt x="57" y="674" on="1"/>
      </contour>
      <contour>
        <pt x="263" y="727" on="1"/>
        <pt x="362" y="883" on="1"/>
        <pt x="456" y="883" on="1"/>
        <pt x="332" y="727" on="1"/>
      </contour>
    </TTGlyph>
    <TTGlyph name="Zcaron" xMin="52" yMin="0" xMax="517" yMax="883">
      <contour>
        <pt x="321" y="727" on="1"/>
        <pt x="245" y="727" on="1"/>
        <pt x="118" y="883" on="1"/>
        <pt x="198" y="883" on="1"/>
        <pt x="284" y="778" on="1"/>
        <pt x="368" y="883" on="1"/>
        <pt x="448" y="883" on="1"/>
      </contour>
      <contour>
        <pt x="502" y="674" on="1"/>
        <pt x="502" y="608" on="1"/>
        <pt x="146" y="69" on="1"/>
        <pt x="517" y="69" on="1"/>
        <pt x="517" y="0" on="1"/>
        <pt x="52" y="0" on="1"/>
        <pt x="52" y="67" on="1"/>
        <pt x="408" y="605" on="1"/>
        <pt x="57" y="605" on="1"/>
        <pt x="57" y="674" on="1"/>
      </contour>
    </TTGlyph>
    <TTGlyph name="Zdotaccent" xMin="52" yMin="0" xMax="517" yMax="859">
      <contour>
        <pt x="240" y="786" on="0"/>
        <pt x="240" y="830" on="0"/>
        <pt x="270" y="859" on="0"/>
        <pt x="314" y="859" on="0"/>
        <pt x="343" y="830" on="0"/>
        <pt x="343" y="786" on="0"/>
        <pt x="314" y="756" on="0"/>
        <pt x="270" y="756" on="0"/>
      </contour>
      <contour>
        <pt x="502" y="674" on="1"/>
        <pt x="502" y="608" on="1"/>
        <pt x="146" y="69" on="1"/>
        <pt x="517" y="69" on="1"/>
        <pt x="517" y="0" on="1"/>
        <pt x="52" y="0" on="1"/>
        <pt x="52" y="67" on="1"/>
        <pt x="408" y="605" on="1"/>
        <pt x="57" y="605" on="1"/>
        <pt x="57" y="674" on="1"/>
      </contour>
    </TTGlyph>
    <TTGlyph name="a" xMin="47" yMin="-5" xMax="425" yMax="515">
      <contour>
        <pt x="234" y="515" on="1"/>
        <pt x="425" y="515" on="0"/>
        <pt x="425" y="321" on="1"/>
        <pt x="425" y="0" on="1"/>
        <pt x="347" y="0" on="1"/>
        <pt x="347" y="60" on="1"/>
        <pt x="308" y="-5" on="0"/>
        <pt x="205" y="-5" on="1"/>
        <pt x="134" y="-5" on="0"/>
        <pt x="47" y="79" on="0"/>
        <pt x="47" y="216" on="0"/>
        <pt x="158" y="297" on="0"/>
        <pt x="254" y="297" on="1"/>
        <pt x="346" y="297" on="1"/>
        <pt x="346" y="323" on="1"/>
        <pt x="346" y="383" on="0"/>
        <pt x="292" y="444" on="0"/>
        <pt x="147" y="444" on="0"/>
        <pt x="84" y="401" on="1"/>
        <pt x="84" y="480" on="1"/>
        <pt x="141" y="515" on="0"/>
      </contour>
      <contour>
        <pt x="346" y="234" on="1"/>
        <pt x="258" y="234" on="1"/>
        <pt x="194" y="234" on="0"/>
        <pt x="130" y="184" on="0"/>
        <pt x="130" y="108" on="0"/>
        <pt x="180" y="61" on="0"/>
        <pt x="282" y="61" on="0"/>
        <pt x="346" y="122" on="0"/>
        <pt x="346" y="169" on="1"/>
      </contour>
    </TTGlyph>
    <TTGlyph name="aacute" xMin="47" yMin="-5" xMax="425" yMax="716">
      <contour>
        <pt x="234" y="515" on="1"/>
        <pt x="425" y="515" on="0"/>
        <pt x="425" y="321" on="1"/>
        <pt x="425" y="0" on="1"/>
        <pt x="347" y="0" on="1"/>
        <pt x="347" y="60" on="1"/>
        <pt x="308" y="-5" on="0"/>
        <pt x="205" y="-5" on="1"/>
        <pt x="134" y="-5" on="0"/>
        <pt x="47" y="79" on="0"/>
        <pt x="47" y="216" on="0"/>
        <pt x="158" y="297" on="0"/>
        <pt x="254" y="297" on="1"/>
        <pt x="346" y="297" on="1"/>
        <pt x="346" y="323" on="1"/>
        <pt x="346" y="383" on="0"/>
        <pt x="292" y="444" on="0"/>
        <pt x="147" y="444" on="0"/>
        <pt x="84" y="401" on="1"/>
        <pt x="84" y="480" on="1"/>
        <pt x="141" y="515" on="0"/>
      </contour>
      <contour>
        <pt x="346" y="234" on="1"/>
        <pt x="258" y="234" on="1"/>
        <pt x="194" y="234" on="0"/>
        <pt x="130" y="184" on="0"/>
        <pt x="130" y="108" on="0"/>
        <pt x="180" y="61" on="0"/>
        <pt x="282" y="61" on="0"/>
        <pt x="346" y="122" on="0"/>
        <pt x="346" y="169" on="1"/>
      </contour>
      <contour>
        <pt x="416" y="716" on="1"/>
        <pt x="292" y="560" on="1"/>
        <pt x="223" y="560" on="1"/>
        <pt x="322" y="716" on="1"/>
      </contour>
    </TTGlyph>
    <TTGlyph name="abreve" xMin="47" yMin="-5" xMax="425" yMax="715">
      <contour>
        <pt x="234" y="515" on="1"/>
        <pt x="425" y="515" on="0"/>
        <pt x="425" y="321" on="1"/>
        <pt x="425" y="0" on="1"/>
        <pt x="347" y="0" on="1"/>
        <pt x="347" y="60" on="1"/>
        <pt x="308" y="-5" on="0"/>
        <pt x="205" y="-5" on="1"/>
        <pt x="134" y="-5" on="0"/>
        <pt x="47" y="79" on="0"/>
        <pt x="47" y="216" on="0"/>
        <pt x="158" y="297" on="0"/>
        <pt x="254" y="297" on="1"/>
        <pt x="346" y="297" on="1"/>
        <pt x="346" y="323" on="1"/>
        <pt x="346" y="383" on="0"/>
        <pt x="292" y="444" on="0"/>
        <pt x="147" y="444" on="0"/>
        <pt x="84" y="401" on="1"/>
        <pt x="84" y="480" on="1"/>
        <pt x="141" y="515" on="0"/>
      </contour>
      <contour>
        <pt x="346" y="234" on="1"/>
        <pt x="258" y="234" on="1"/>
        <pt x="194" y="234" on="0"/>
        <pt x="130" y="184" on="0"/>
        <pt x="130" y="108" on="0"/>
        <pt x="180" y="61" on="0"/>
        <pt x="282" y="61" on="0"/>
        <pt x="346" y="122" on="0"/>
        <pt x="346" y="169" on="1"/>
      </contour>
      <contour>
        <pt x="349" y="715" on="1"/>
        <pt x="414" y="715" on="1"/>
        <pt x="414" y="642" on="0"/>
        <pt x="332" y="556" on="0"/>
        <pt x="168" y="556" on="0"/>
        <pt x="85" y="642" on="0"/>
        <pt x="85" y="715" on="1"/>
        <pt x="150" y="715" on="1"/>
        <pt x="150" y="669" on="0"/>
        <pt x="198" y="613" on="0"/>
        <pt x="301" y="613" on="0"/>
        <pt x="349" y="669" on="0"/>
      </contour>
    </TTGlyph>
    <TTGlyph name="acircumflex" xMin="47" yMin="-5" xMax="425" yMax="715">
      <contour>
        <pt x="234" y="515" on="1"/>
        <pt x="425" y="515" on="0"/>
        <pt x="425" y="321" on="1"/>
        <pt x="425" y="0" on="1"/>
        <pt x="347" y="0" on="1"/>
        <pt x="347" y="60" on="1"/>
        <pt x="308" y="-5" on="0"/>
        <pt x="205" y="-5" on="1"/>
        <pt x="134" y="-5" on="0"/>
        <pt x="47" y="79" on="0"/>
        <pt x="47" y="216" on="0"/>
        <pt x="158" y="297" on="0"/>
        <pt x="254" y="297" on="1"/>
        <pt x="346" y="297" on="1"/>
        <pt x="346" y="323" on="1"/>
        <pt x="346" y="383" on="0"/>
        <pt x="292" y="444" on="0"/>
        <pt x="147" y="444" on="0"/>
        <pt x="84" y="401" on="1"/>
        <pt x="84" y="480" on="1"/>
        <pt x="141" y="515" on="0"/>
      </contour>
      <contour>
        <pt x="346" y="234" on="1"/>
        <pt x="258" y="234" on="1"/>
        <pt x="194" y="234" on="0"/>
        <pt x="130" y="184" on="0"/>
        <pt x="130" y="108" on="0"/>
        <pt x="180" y="61" on="0"/>
        <pt x="282" y="61" on="0"/>
        <pt x="346" y="122" on="0"/>
        <pt x="346" y="169" on="1"/>
      </contour>
      <contour>
        <pt x="254" y="664" on="1"/>
        <pt x="169" y="559" on="1"/>
        <pt x="89" y="559" on="1"/>
        <pt x="216" y="715" on="1"/>
        <pt x="292" y="715" on="1"/>
        <pt x="419" y="559" on="1"/>
        <pt x="339" y="559" on="1"/>
      </contour>
    </TTGlyph>
    <TTGlyph name="acute" xMin="115" yMin="642" xMax="308" yMax="798">
      <contour>
        <pt x="115" y="642" on="1"/>
        <pt x="214" y="798" on="1"/>
        <pt x="308" y="798" on="1"/>
        <pt x="184" y="642" on="1"/>
      </contour>
    </TTGlyph>
    <TTGlyph name="adieresis" xMin="47" yMin="-5" xMax="425" yMax="687">
      <contour>
        <pt x="234" y="515" on="1"/>
        <pt x="425" y="515" on="0"/>
        <pt x="425" y="321" on="1"/>
        <pt x="425" y="0" on="1"/>
        <pt x="347" y="0" on="1"/>
        <pt x="347" y="60" on="1"/>
        <pt x="308" y="-5" on="0"/>
        <pt x="205" y="-5" on="1"/>
        <pt x="134" y="-5" on="0"/>
        <pt x="47" y="79" on="0"/>
        <pt x="47" y="216" on="0"/>
        <pt x="158" y="297" on="0"/>
        <pt x="254" y="297" on="1"/>
        <pt x="346" y="297" on="1"/>
        <pt x="346" y="323" on="1"/>
        <pt x="346" y="383" on="0"/>
        <pt x="292" y="444" on="0"/>
        <pt x="147" y="444" on="0"/>
        <pt x="84" y="401" on="1"/>
        <pt x="84" y="480" on="1"/>
        <pt x="141" y="515" on="0"/>
      </contour>
      <contour>
        <pt x="346" y="234" on="1"/>
        <pt x="258" y="234" on="1"/>
        <pt x="194" y="234" on="0"/>
        <pt x="130" y="184" on="0"/>
        <pt x="130" y="108" on="0"/>
        <pt x="180" y="61" on="0"/>
        <pt x="282" y="61" on="0"/>
        <pt x="346" y="122" on="0"/>
        <pt x="346" y="169" on="1"/>
      </contour>
      <contour>
        <pt x="174" y="584" on="0"/>
        <pt x="130" y="584" on="0"/>
        <pt x="100" y="614" on="0"/>
        <pt x="100" y="658" on="0"/>
        <pt x="130" y="687" on="0"/>
        <pt x="174" y="687" on="0"/>
        <pt x="203" y="658" on="0"/>
        <pt x="203" y="614" on="0"/>
      </contour>
      <contour>
        <pt x="375" y="584" on="0"/>
        <pt x="331" y="584" on="0"/>
        <pt x="302" y="614" on="0"/>
        <pt x="302" y="658" on="0"/>
        <pt x="331" y="687" on="0"/>
        <pt x="375" y="687" on="0"/>
        <pt x="405" y="658" on="0"/>
        <pt x="405" y="614" on="0"/>
      </contour>
    </TTGlyph>
    <TTGlyph name="ae" xMin="52" yMin="-5" xMax="779" yMax="515">
      <contour>
        <pt x="439" y="145" on="0"/>
        <pt x="537" y="65" on="0"/>
        <pt x="692" y="65" on="0"/>
        <pt x="743" y="100" on="1"/>
        <pt x="743" y="26" on="1"/>
        <pt x="686" y="-5" on="0"/>
        <pt x="538" y="-5" on="0"/>
        <pt x="426" y="51" on="0"/>
        <pt x="396" y="99" on="1"/>
        <pt x="377" y="53" on="0"/>
        <pt x="283" y="-5" on="0"/>
        <pt x="142" y="-5" on="0"/>
        <pt x="52" y="74" on="0"/>
        <pt x="52" y="216" on="0"/>
        <pt x="164" y="298" on="0"/>
        <pt x="261" y="298" on="1"/>
        <pt x="351" y="298" on="1"/>
        <pt x="351" y="323" on="1"/>
        <pt x="351" y="383" on="0"/>
        <pt x="297" y="444" on="0"/>
        <pt x="153" y="444" on="0"/>
        <pt x="89" y="402" on="1"/>
        <pt x="89" y="479" on="1"/>
        <pt x="147" y="515" on="0"/>
        <pt x="236" y="515" on="1"/>
        <pt x="365" y="515" on="0"/>
        <pt x="401" y="425" on="1"/>
        <pt x="460" y="513" on="0"/>
        <pt x="576" y="513" on="1"/>
        <pt x="674" y="513" on="0"/>
        <pt x="779" y="390" on="0"/>
        <pt x="779" y="275" on="1"/>
        <pt x="779" y="247" on="0"/>
        <pt x="774" y="220" on="1"/>
        <pt x="430" y="220" on="1"/>
      </contour>
      <contour>
        <pt x="701" y="286" on="1"/>
        <pt x="701" y="306" on="1"/>
        <pt x="700" y="372" on="0"/>
        <pt x="631" y="444" on="0"/>
        <pt x="519" y="444" on="0"/>
        <pt x="438" y="364" on="0"/>
        <pt x="429" y="286" on="1"/>
      </contour>
      <contour>
        <pt x="351" y="177" on="1"/>
        <pt x="351" y="232" on="1"/>
        <pt x="276" y="232" on="1"/>
        <pt x="134" y="232" on="0"/>
        <pt x="134" y="145" on="1"/>
        <pt x="134" y="108" on="0"/>
        <pt x="185" y="64" on="0"/>
        <pt x="283" y="64" on="0"/>
        <pt x="351" y="126" on="0"/>
      </contour>
    </TTGlyph>
    <TTGlyph name="agrave" xMin="47" yMin="-5" xMax="425" yMax="716">
      <contour>
        <pt x="234" y="515" on="1"/>
        <pt x="425" y="515" on="0"/>
        <pt x="425" y="321" on="1"/>
        <pt x="425" y="0" on="1"/>
        <pt x="347" y="0" on="1"/>
        <pt x="347" y="60" on="1"/>
        <pt x="308" y="-5" on="0"/>
        <pt x="205" y="-5" on="1"/>
        <pt x="134" y="-5" on="0"/>
        <pt x="47" y="79" on="0"/>
        <pt x="47" y="216" on="0"/>
        <pt x="158" y="297" on="0"/>
        <pt x="254" y="297" on="1"/>
        <pt x="346" y="297" on="1"/>
        <pt x="346" y="323" on="1"/>
        <pt x="346" y="383" on="0"/>
        <pt x="292" y="444" on="0"/>
        <pt x="147" y="444" on="0"/>
        <pt x="84" y="401" on="1"/>
        <pt x="84" y="480" on="1"/>
        <pt x="141" y="515" on="0"/>
      </contour>
      <contour>
        <pt x="346" y="234" on="1"/>
        <pt x="258" y="234" on="1"/>
        <pt x="194" y="234" on="0"/>
        <pt x="130" y="184" on="0"/>
        <pt x="130" y="108" on="0"/>
        <pt x="180" y="61" on="0"/>
        <pt x="282" y="61" on="0"/>
        <pt x="346" y="122" on="0"/>
        <pt x="346" y="169" on="1"/>
      </contour>
      <contour>
        <pt x="291" y="560" on="1"/>
        <pt x="222" y="560" on="1"/>
        <pt x="98" y="716" on="1"/>
        <pt x="193" y="716" on="1"/>
      </contour>
    </TTGlyph>
    <TTGlyph name="amacron" xMin="47" yMin="-5" xMax="425" yMax="666">
      <contour>
        <pt x="234" y="515" on="1"/>
        <pt x="425" y="515" on="0"/>
        <pt x="425" y="321" on="1"/>
        <pt x="425" y="0" on="1"/>
        <pt x="347" y="0" on="1"/>
        <pt x="347" y="60" on="1"/>
        <pt x="308" y="-5" on="0"/>
        <pt x="205" y="-5" on="1"/>
        <pt x="134" y="-5" on="0"/>
        <pt x="47" y="79" on="0"/>
        <pt x="47" y="216" on="0"/>
        <pt x="158" y="297" on="0"/>
        <pt x="254" y="297" on="1"/>
        <pt x="346" y="297" on="1"/>
        <pt x="346" y="323" on="1"/>
        <pt x="346" y="383" on="0"/>
        <pt x="292" y="444" on="0"/>
        <pt x="147" y="444" on="0"/>
        <pt x="84" y="401" on="1"/>
        <pt x="84" y="480" on="1"/>
        <pt x="141" y="515" on="0"/>
      </contour>
      <contour>
        <pt x="346" y="234" on="1"/>
        <pt x="258" y="234" on="1"/>
        <pt x="194" y="234" on="0"/>
        <pt x="130" y="184" on="0"/>
        <pt x="130" y="108" on="0"/>
        <pt x="180" y="61" on="0"/>
        <pt x="282" y="61" on="0"/>
        <pt x="346" y="122" on="0"/>
        <pt x="346" y="169" on="1"/>
      </contour>
      <contour>
        <pt x="388" y="666" on="1"/>
        <pt x="388" y="610" on="1"/>
        <pt x="106" y="610" on="1"/>
        <pt x="106" y="666" on="1"/>
      </contour>
    </TTGlyph>
    <TTGlyph name="ampersand" xMin="65" yMin="-8" xMax="701" yMax="690">
      <contour>
        <pt x="526" y="63" on="1"/>
        <pt x="445" y="-8" on="0"/>
        <pt x="204" y="-8" on="0"/>
        <pt x="65" y="95" on="0"/>
        <pt x="65" y="176" on="1"/>
        <pt x="65" y="289" on="0"/>
        <pt x="223" y="349" on="1"/>
        <pt x="176" y="400" on="0"/>
        <pt x="132" y="479" on="0"/>
        <pt x="132" y="523" on="1"/>
        <pt x="132" y="598" on="0"/>
        <pt x="234" y="690" on="0"/>
        <pt x="404" y="690" on="0"/>
        <pt x="508" y="591" on="0"/>
        <pt x="508" y="517" on="1"/>
        <pt x="508" y="460" on="0"/>
        <pt x="435" y="368" on="0"/>
        <pt x="349" y="328" on="1"/>
        <pt x="518" y="170" on="1"/>
        <pt x="542" y="214" on="0"/>
        <pt x="546" y="268" on="1"/>
        <pt x="622" y="268" on="1"/>
        <pt x="616" y="182" on="0"/>
        <pt x="574" y="118" on="1"/>
        <pt x="701" y="0" on="1"/>
        <pt x="594" y="0" on="1"/>
      </contour>
      <contour>
        <pt x="427" y="559" on="0"/>
        <pt x="371" y="618" on="0"/>
        <pt x="273" y="618" on="0"/>
        <pt x="214" y="567" on="0"/>
        <pt x="214" y="490" on="0"/>
        <pt x="251" y="427" on="0"/>
        <pt x="299" y="378" on="1"/>
        <pt x="366" y="409" on="0"/>
        <pt x="427" y="474" on="0"/>
      </contour>
      <contour>
        <pt x="471" y="115" on="1"/>
        <pt x="273" y="299" on="1"/>
        <pt x="209" y="275" on="0"/>
        <pt x="147" y="217" on="0"/>
        <pt x="147" y="126" on="0"/>
        <pt x="241" y="65" on="0"/>
        <pt x="409" y="65" on="0"/>
      </contour>
    </TTGlyph>
    <TTGlyph name="aogonek" xMin="47" yMin="-242" xMax="446" yMax="515">
      <contour>
        <pt x="425" y="321" on="1"/>
        <pt x="425" y="0" on="1"/>
        <pt x="313" y="-55" on="0"/>
        <pt x="313" y="-125" on="1"/>
        <pt x="313" y="-154" on="0"/>
        <pt x="347" y="-184" on="0"/>
        <pt x="415" y="-184" on="0"/>
        <pt x="446" y="-162" on="1"/>
        <pt x="446" y="-222" on="1"/>
        <pt x="415" y="-242" on="0"/>
        <pt x="308" y="-242" on="0"/>
        <pt x="244" y="-180" on="0"/>
        <pt x="244" y="-87" on="0"/>
        <pt x="302" y="-11" on="0"/>
        <pt x="347" y="16" on="1"/>
        <pt x="347" y="63" on="1"/>
        <pt x="296" y="-5" on="0"/>
        <pt x="205" y="-5" on="1"/>
        <pt x="134" y="-5" on="0"/>
        <pt x="47" y="76" on="0"/>
        <pt x="47" y="216" on="0"/>
        <pt x="159" y="298" on="0"/>
        <pt x="256" y="298" on="1"/>
        <pt x="346" y="298" on="1"/>
        <pt x="346" y="323" on="1"/>
        <pt x="346" y="383" on="0"/>
        <pt x="292" y="444" on="0"/>
        <pt x="148" y="444" on="0"/>
        <pt x="84" y="402" on="1"/>
        <pt x="84" y="479" on="1"/>
        <pt x="142" y="515" on="0"/>
        <pt x="234" y="515" on="1"/>
        <pt x="425" y="515" on="0"/>
      </contour>
      <contour>
        <pt x="346" y="232" on="1"/>
        <pt x="271" y="232" on="1"/>
        <pt x="129" y="232" on="0"/>
        <pt x="129" y="145" on="1"/>
        <pt x="129" y="108" on="0"/>
        <pt x="180" y="64" on="0"/>
        <pt x="279" y="64" on="0"/>
        <pt x="346" y="122" on="0"/>
        <pt x="346" y="162" on="1"/>
      </contour>
    </TTGlyph>
    <TTGlyph name="approxequal" xMin="50" yMin="168" xMax="566" yMax="511">
      <contour>
        <pt x="426" y="368" on="1"/>
        <pt x="380" y="368" on="0"/>
        <pt x="242" y="441" on="0"/>
        <pt x="215" y="441" on="1"/>
        <pt x="148" y="441" on="0"/>
        <pt x="101" y="373" on="1"/>
        <pt x="50" y="418" on="1"/>
        <pt x="118" y="511" on="0"/>
        <pt x="203" y="511" on="1"/>
        <pt x="256" y="511" on="0"/>
        <pt x="389" y="438" on="0"/>
        <pt x="420" y="438" on="1"/>
        <pt x="475" y="438" on="0"/>
        <pt x="509" y="497" on="1"/>
        <pt x="566" y="456" on="1"/>
        <pt x="510" y="368" on="0"/>
      </contour>
      <contour>
        <pt x="426" y="168" on="1"/>
        <pt x="380" y="168" on="0"/>
        <pt x="242" y="241" on="0"/>
        <pt x="215" y="241" on="1"/>
        <pt x="148" y="241" on="0"/>
        <pt x="101" y="173" on="1"/>
        <pt x="50" y="218" on="1"/>
        <pt x="118" y="311" on="0"/>
        <pt x="203" y="311" on="1"/>
        <pt x="256" y="311" on="0"/>
        <pt x="389" y="238" on="0"/>
        <pt x="420" y="238" on="1"/>
        <pt x="476" y="238" on="0"/>
        <pt x="509" y="297" on="1"/>
        <pt x="566" y="256" on="1"/>
        <pt x="510" y="168" on="0"/>
      </contour>
    </TTGlyph>
    <TTGlyph name="aring" xMin="47" yMin="-5" xMax="425" yMax="763">
      <contour>
        <pt x="234" y="515" on="1"/>
        <pt x="425" y="515" on="0"/>
        <pt x="425" y="321" on="1"/>
        <pt x="425" y="0" on="1"/>
        <pt x="347" y="0" on="1"/>
        <pt x="347" y="60" on="1"/>
        <pt x="308" y="-5" on="0"/>
        <pt x="205" y="-5" on="1"/>
        <pt x="134" y="-5" on="0"/>
        <pt x="47" y="79" on="0"/>
        <pt x="47" y="216" on="0"/>
        <pt x="158" y="297" on="0"/>
        <pt x="254" y="297" on="1"/>
        <pt x="346" y="297" on="1"/>
        <pt x="346" y="323" on="1"/>
        <pt x="346" y="383" on="0"/>
        <pt x="292" y="444" on="0"/>
        <pt x="147" y="444" on="0"/>
        <pt x="84" y="401" on="1"/>
        <pt x="84" y="480" on="1"/>
        <pt x="141" y="515" on="0"/>
      </contour>
      <contour>
        <pt x="346" y="234" on="1"/>
        <pt x="258" y="234" on="1"/>
        <pt x="194" y="234" on="0"/>
        <pt x="130" y="184" on="0"/>
        <pt x="130" y="108" on="0"/>
        <pt x="180" y="61" on="0"/>
        <pt x="282" y="61" on="0"/>
        <pt x="346" y="122" on="0"/>
        <pt x="346" y="169" on="1"/>
      </contour>
      <contour>
        <pt x="299" y="550" on="0"/>
        <pt x="211" y="550" on="0"/>
        <pt x="149" y="612" on="0"/>
        <pt x="149" y="700" on="0"/>
        <pt x="211" y="763" on="0"/>
        <pt x="299" y="763" on="0"/>
        <pt x="361" y="700" on="0"/>
        <pt x="361" y="612" on="0"/>
      </contour>
      <contour>
        <pt x="309" y="680" on="0"/>
        <pt x="278" y="711" on="0"/>
        <pt x="233" y="711" on="0"/>
        <pt x="202" y="680" on="0"/>
        <pt x="202" y="635" on="0"/>
        <pt x="233" y="603" on="0"/>
        <pt x="277" y="603" on="0"/>
        <pt x="309" y="635" on="0"/>
      </contour>
    </TTGlyph>
    <TTGlyph name="asciicircum" xMin="45" yMin="332" xMax="416" yMax="594">
      <contour>
        <pt x="416" y="332" on="1"/>
        <pt x="337" y="332" on="1"/>
        <pt x="232" y="540" on="1"/>
        <pt x="124" y="332" on="1"/>
        <pt x="45" y="332" on="1"/>
        <pt x="187" y="594" on="1"/>
        <pt x="278" y="594" on="1"/>
      </contour>
    </TTGlyph>
    <TTGlyph name="asciitilde" xMin="36" yMin="194" xMax="563" yMax="340">
      <contour>
        <pt x="420" y="194" on="1"/>
        <pt x="373" y="194" on="0"/>
        <pt x="232" y="268" on="0"/>
        <pt x="204" y="268" on="1"/>
        <pt x="137" y="268" on="0"/>
        <pt x="89" y="199" on="1"/>
        <pt x="36" y="245" on="1"/>
        <pt x="104" y="340" on="0"/>
        <pt x="192" y="340" on="1"/>
        <pt x="246" y="340" on="0"/>
        <pt x="381" y="266" on="0"/>
        <pt x="413" y="266" on="1"/>
        <pt x="469" y="266" on="0"/>
        <pt x="504" y="326" on="1"/>
        <pt x="563" y="284" on="1"/>
        <pt x="505" y="194" on="0"/>
      </contour>
    </TTGlyph>
    <TTGlyph name="asterisk" xMin="29" yMin="342" xMax="378" yMax="674">
      <contour>
        <pt x="250" y="488" on="1"/>
        <pt x="243" y="488" on="1"/>
        <pt x="262" y="478" on="0"/>
        <pt x="275" y="458" on="1"/>
        <pt x="331" y="380" on="1"/>
        <pt x="280" y="342" on="1"/>
        <pt x="223" y="420" on="1"/>
        <pt x="209" y="440" on="0"/>
        <pt x="204" y="459" on="1"/>
        <pt x="199" y="439" on="0"/>
        <pt x="185" y="419" on="1"/>
        <pt x="128" y="342" on="1"/>
        <pt x="76" y="379" on="1"/>
        <pt x="133" y="458" on="1"/>
        <pt x="149" y="479" on="0"/>
        <pt x="164" y="487" on="1"/>
        <pt x="156" y="487" on="1"/>
        <pt x="137" y="487" on="0"/>
        <pt x="120" y="493" on="1"/>
        <pt x="29" y="523" on="1"/>
        <pt x="48" y="585" on="1"/>
        <pt x="141" y="555" on="1"/>
        <pt x="162" y="548" on="0"/>
        <pt x="180" y="532" on="1"/>
        <pt x="171" y="552" on="0"/>
        <pt x="171" y="578" on="1"/>
        <pt x="171" y="674" on="1"/>
        <pt x="235" y="674" on="1"/>
        <pt x="235" y="578" on="1"/>
        <pt x="235" y="552" on="0"/>
        <pt x="227" y="534" on="1"/>
        <pt x="242" y="549" on="0"/>
        <pt x="266" y="556" on="1"/>
        <pt x="358" y="585" on="1"/>
        <pt x="378" y="524" on="1"/>
        <pt x="286" y="494" on="1"/>
        <pt x="270" y="488" on="0"/>
      </contour>
    </TTGlyph>
    <TTGlyph name="at" xMin="60" yMin="-168" xMax="858" yMax="613">
      <contour>
        <pt x="568" y="351" on="1"/>
        <pt x="568" y="362" on="0"/>
        <pt x="572" y="410" on="1"/>
        <pt x="638" y="410" on="1"/>
        <pt x="623" y="272" on="1"/>
        <pt x="619" y="219" on="0"/>
        <pt x="619" y="186" on="1"/>
        <pt x="619" y="85" on="0"/>
        <pt x="685" y="85" on="1"/>
        <pt x="729" y="85" on="0"/>
        <pt x="788" y="182" on="0"/>
        <pt x="788" y="259" on="1"/>
        <pt x="788" y="395" on="0"/>
        <pt x="619" y="546" on="0"/>
        <pt x="345" y="546" on="0"/>
        <pt x="136" y="345" on="0"/>
        <pt x="136" y="54" on="0"/>
        <pt x="299" y="-100" on="0"/>
        <pt x="516" y="-100" on="0"/>
        <pt x="594" y="-57" on="1"/>
        <pt x="590" y="-134" on="1"/>
        <pt x="523" y="-168" on="0"/>
        <pt x="414" y="-168" on="1"/>
        <pt x="251" y="-168" on="0"/>
        <pt x="60" y="37" on="0"/>
        <pt x="60" y="196" on="1"/>
        <pt x="60" y="375" on="0"/>
        <pt x="312" y="613" on="0"/>
        <pt x="491" y="613" on="1"/>
        <pt x="645" y="613" on="0"/>
        <pt x="858" y="421" on="0"/>
        <pt x="858" y="264" on="1"/>
        <pt x="858" y="149" on="0"/>
        <pt x="750" y="21" on="0"/>
        <pt x="681" y="21" on="1"/>
        <pt x="589" y="21" on="0"/>
        <pt x="564" y="107" on="1"/>
        <pt x="511" y="18" on="0"/>
        <pt x="416" y="18" on="1"/>
        <pt x="342" y="18" on="0"/>
        <pt x="257" y="123" on="0"/>
        <pt x="257" y="292" on="0"/>
        <pt x="368" y="415" on="0"/>
        <pt x="530" y="415" on="0"/>
      </contour>
      <contour>
        <pt x="332" y="146" on="0"/>
        <pt x="386" y="83" on="0"/>
        <pt x="469" y="83" on="0"/>
        <pt x="540" y="139" on="0"/>
        <pt x="556" y="189" on="1"/>
        <pt x="558" y="225" on="0"/>
        <pt x="560" y="244" on="1"/>
        <pt x="544" y="349" on="0"/>
        <pt x="452" y="349" on="1"/>
        <pt x="400" y="349" on="0"/>
        <pt x="332" y="261" on="0"/>
      </contour>
    </TTGlyph>
    <TTGlyph name="atilde" xMin="47" yMin="-5" xMax="425" yMax="694">
      <contour>
        <pt x="234" y="515" on="1"/>
        <pt x="425" y="515" on="0"/>
        <pt x="425" y="321" on="1"/>
        <pt x="425" y="0" on="1"/>
        <pt x="347" y="0" on="1"/>
        <pt x="347" y="60" on="1"/>
        <pt x="308" y="-5" on="0"/>
        <pt x="205" y="-5" on="1"/>
        <pt x="134" y="-5" on="0"/>
        <pt x="47" y="79" on="0"/>
        <pt x="47" y="216" on="0"/>
        <pt x="158" y="297" on="0"/>
        <pt x="254" y="297" on="1"/>
        <pt x="346" y="297" on="1"/>
        <pt x="346" y="323" on="1"/>
        <pt x="346" y="383" on="0"/>
        <pt x="292" y="444" on="0"/>
        <pt x="147" y="444" on="0"/>
        <pt x="84" y="401" on="1"/>
        <pt x="84" y="480" on="1"/>
        <pt x="141" y="515" on="0"/>
      </contour>
      <contour>
        <pt x="346" y="234" on="1"/>
        <pt x="258" y="234" on="1"/>
        <pt x="194" y="234" on="0"/>
        <pt x="130" y="184" on="0"/>
        <pt x="130" y="108" on="0"/>
        <pt x="180" y="61" on="0"/>
        <pt x="282" y="61" on="0"/>
        <pt x="346" y="122" on="0"/>
        <pt x="346" y="169" on="1"/>
      </contour>
      <contour>
        <pt x="320" y="590" on="1"/>
        <pt x="293" y="590" on="0"/>
        <pt x="208" y="634" on="0"/>
        <pt x="192" y="634" on="1"/>
        <pt x="151" y="634" on="0"/>
        <pt x="124" y="586" on="1"/>
        <pt x="81" y="623" on="1"/>
        <pt x="95" y="653" on="0"/>
        <pt x="150" y="694" on="0"/>
        <pt x="212" y="694" on="0"/>
        <pt x="298" y="650" on="0"/>
        <pt x="316" y="650" on="1"/>
        <pt x="350" y="650" on="0"/>
        <pt x="370" y="693" on="1"/>
        <pt x="419" y="659" on="1"/>
        <pt x="387" y="590" on="0"/>
      </contour>
    </TTGlyph>
    <TTGlyph name="b" xMin="76" yMin="-8" xMax="527" yMax="707">
      <contour>
        <pt x="155" y="707" on="1"/>
        <pt x="155" y="431" on="1"/>
        <pt x="210" y="515" on="0"/>
        <pt x="405" y="515" on="0"/>
        <pt x="527" y="368" on="0"/>
        <pt x="527" y="142" on="0"/>
        <pt x="412" y="-8" on="0"/>
        <pt x="209" y="-8" on="0"/>
        <pt x="155" y="75" on="1"/>
        <pt x="155" y="0" on="1"/>
        <pt x="76" y="0" on="1"/>
        <pt x="76" y="707" on="1"/>
      </contour>
      <contour>
        <pt x="155" y="156" on="0"/>
        <pt x="242" y="64" on="0"/>
        <pt x="365" y="64" on="0"/>
        <pt x="445" y="166" on="0"/>
        <pt x="445" y="342" on="0"/>
        <pt x="362" y="443" on="0"/>
        <pt x="245" y="443" on="0"/>
        <pt x="155" y="353" on="0"/>
      </contour>
    </TTGlyph>
    <TTGlyph name="backslash" xMin="-33" yMin="-103" xMax="412" yMax="707">
      <contour>
        <pt x="48" y="707" on="1"/>
        <pt x="412" y="-103" on="1"/>
        <pt x="332" y="-103" on="1"/>
        <pt x="-33" y="707" on="1"/>
      </contour>
    </TTGlyph>
    <TTGlyph name="bar" xMin="78" yMin="-194" xMax="150" yMax="695">
      <contour>
        <pt x="78" y="-194" on="1"/>
        <pt x="78" y="695" on="1"/>
        <pt x="150" y="695" on="1"/>
        <pt x="150" y="-194" on="1"/>
      </contour>
    </TTGlyph>
    <TTGlyph name="braceleft" xMin="48" yMin="-189" xMax="321" yMax="713">
      <contour>
        <pt x="288" y="636" on="1"/>
        <pt x="257" y="636" on="0"/>
        <pt x="225" y="594" on="0"/>
        <pt x="225" y="536" on="0"/>
        <pt x="246" y="434" on="0"/>
        <pt x="246" y="405" on="1"/>
        <pt x="246" y="349" on="0"/>
        <pt x="183" y="271" on="0"/>
        <pt x="124" y="262" on="1"/>
        <pt x="183" y="253" on="0"/>
        <pt x="246" y="174" on="0"/>
        <pt x="246" y="119" on="1"/>
        <pt x="246" y="89" on="0"/>
        <pt x="225" y="-13" on="0"/>
        <pt x="225" y="-71" on="0"/>
        <pt x="257" y="-113" on="0"/>
        <pt x="288" y="-113" on="1"/>
        <pt x="304" y="-113" on="0"/>
        <pt x="321" y="-104" on="1"/>
        <pt x="321" y="-181" on="1"/>
        <pt x="300" y="-189" on="0"/>
        <pt x="274" y="-189" on="1"/>
        <pt x="219" y="-189" on="0"/>
        <pt x="144" y="-108" on="0"/>
        <pt x="144" y="-40" on="1"/>
        <pt x="144" y="-13" on="0"/>
        <pt x="165" y="81" on="0"/>
        <pt x="165" y="103" on="1"/>
        <pt x="165" y="204" on="0"/>
        <pt x="77" y="222" on="1"/>
        <pt x="68" y="224" on="0"/>
        <pt x="48" y="224" on="1"/>
        <pt x="48" y="301" on="1"/>
        <pt x="114" y="301" on="0"/>
        <pt x="142" y="342" on="1"/>
        <pt x="165" y="374" on="0"/>
        <pt x="165" y="420" on="1"/>
        <pt x="165" y="442" on="0"/>
        <pt x="144" y="536" on="0"/>
        <pt x="144" y="563" on="1"/>
        <pt x="144" y="631" on="0"/>
        <pt x="220" y="713" on="0"/>
        <pt x="274" y="713" on="1"/>
        <pt x="295" y="713" on="0"/>
        <pt x="321" y="705" on="1"/>
        <pt x="321" y="627" on="1"/>
        <pt x="304" y="636" on="0"/>
      </contour>
    </TTGlyph>
    <TTGlyph name="braceright" xMin="13" yMin="-189" xMax="286" yMax="713">
      <contour>
        <pt x="60" y="713" on="1"/>
        <pt x="114" y="713" on="0"/>
        <pt x="190" y="631" on="0"/>
        <pt x="190" y="563" on="1"/>
        <pt x="190" y="536" on="0"/>
        <pt x="169" y="442" on="0"/>
        <pt x="169" y="420" on="1"/>
        <pt x="169" y="374" on="0"/>
        <pt x="192" y="342" on="1"/>
        <pt x="220" y="301" on="0"/>
        <pt x="286" y="301" on="1"/>
        <pt x="286" y="224" on="1"/>
        <pt x="219" y="224" on="0"/>
        <pt x="190" y="181" on="1"/>
        <pt x="169" y="149" on="0"/>
        <pt x="169" y="103" on="1"/>
        <pt x="169" y="81" on="0"/>
        <pt x="190" y="-13" on="0"/>
        <pt x="190" y="-40" on="1"/>
        <pt x="190" y="-108" on="0"/>
        <pt x="115" y="-189" on="0"/>
        <pt x="60" y="-189" on="1"/>
        <pt x="34" y="-189" on="0"/>
        <pt x="13" y="-181" on="1"/>
        <pt x="13" y="-104" on="1"/>
        <pt x="30" y="-113" on="0"/>
        <pt x="77" y="-113" on="0"/>
        <pt x="109" y="-71" on="0"/>
        <pt x="109" y="-13" on="0"/>
        <pt x="89" y="89" on="0"/>
        <pt x="89" y="119" on="1"/>
        <pt x="89" y="174" on="0"/>
        <pt x="152" y="253" on="0"/>
        <pt x="210" y="262" on="1"/>
        <pt x="152" y="271" on="0"/>
        <pt x="89" y="349" on="0"/>
        <pt x="89" y="405" on="1"/>
        <pt x="89" y="435" on="0"/>
        <pt x="109" y="536" on="0"/>
        <pt x="109" y="594" on="0"/>
        <pt x="77" y="636" on="0"/>
        <pt x="30" y="636" on="0"/>
        <pt x="13" y="627" on="1"/>
        <pt x="13" y="705" on="1"/>
        <pt x="39" y="713" on="0"/>
      </contour>
    </TTGlyph>
    <TTGlyph name="bracketleft" xMin="77" yMin="-183" xMax="307" yMax="707">
      <contour>
        <pt x="307" y="637" on="1"/>
        <pt x="155" y="637" on="1"/>
        <pt x="155" y="-111" on="1"/>
        <pt x="307" y="-111" on="1"/>
        <pt x="307" y="-183" on="1"/>
        <pt x="77" y="-183" on="1"/>
        <pt x="77" y="707" on="1"/>
        <pt x="307" y="707" on="1"/>
      </contour>
    </TTGlyph>
    <TTGlyph name="bracketright" xMin="3" yMin="-183" xMax="233" yMax="707">
      <contour>
        <pt x="233" y="707" on="1"/>
        <pt x="233" y="-183" on="1"/>
        <pt x="3" y="-183" on="1"/>
        <pt x="3" y="-111" on="1"/>
        <pt x="155" y="-111" on="1"/>
        <pt x="155" y="637" on="1"/>
        <pt x="3" y="637" on="1"/>
        <pt x="3" y="707" on="1"/>
      </contour>
    </TTGlyph>
    <TTGlyph name="breve" xMin="46" yMin="639" xMax="375" yMax="798">
      <contour>
        <pt x="46" y="798" on="1"/>
        <pt x="111" y="798" on="1"/>
        <pt x="111" y="752" on="0"/>
        <pt x="159" y="696" on="0"/>
        <pt x="262" y="696" on="0"/>
        <pt x="310" y="752" on="0"/>
        <pt x="310" y="798" on="1"/>
        <pt x="375" y="798" on="1"/>
        <pt x="375" y="725" on="0"/>
        <pt x="293" y="639" on="0"/>
        <pt x="129" y="639" on="0"/>
        <pt x="46" y="725" on="0"/>
      </contour>
    </TTGlyph>
    <TTGlyph name="brokenbar" xMin="78" yMin="-178" xMax="150" yMax="698">
      <contour>
        <pt x="150" y="-178" on="1"/>
        <pt x="78" y="-178" on="1"/>
        <pt x="78" y="153" on="1"/>
        <pt x="150" y="153" on="1"/>
      </contour>
      <contour>
        <pt x="150" y="367" on="1"/>
        <pt x="78" y="367" on="1"/>
        <pt x="78" y="698" on="1"/>
        <pt x="150" y="698" on="1"/>
      </contour>
    </TTGlyph>
    <TTGlyph name="bullet" xMin="92" yMin="223" xMax="357" yMax="489">
      <contour>
        <pt x="92" y="299" on="0"/>
        <pt x="92" y="413" on="0"/>
        <pt x="167" y="489" on="0"/>
        <pt x="280" y="489" on="0"/>
        <pt x="357" y="412" on="0"/>
        <pt x="357" y="300" on="0"/>
        <pt x="281" y="223" on="0"/>
        <pt x="168" y="223" on="0"/>
      </contour>
    </TTGlyph>
    <TTGlyph name="c" xMin="43" yMin="-11" xMax="422" yMax="516">
      <contour>
        <pt x="314" y="60" on="1"/>
        <pt x="372" y="60" on="0"/>
        <pt x="422" y="93" on="1"/>
        <pt x="422" y="18" on="1"/>
        <pt x="374" y="-11" on="0"/>
        <pt x="304" y="-11" on="1"/>
        <pt x="184" y="-11" on="0"/>
        <pt x="43" y="142" on="0"/>
        <pt x="43" y="360" on="0"/>
        <pt x="184" y="516" on="0"/>
        <pt x="306" y="516" on="1"/>
        <pt x="371" y="516" on="0"/>
        <pt x="422" y="488" on="1"/>
        <pt x="422" y="413" on="1"/>
        <pt x="376" y="444" on="0"/>
        <pt x="314" y="444" on="1"/>
        <pt x="228" y="444" on="0"/>
        <pt x="125" y="333" on="0"/>
        <pt x="126" y="169" on="0"/>
        <pt x="224" y="60" on="0"/>
      </contour>
    </TTGlyph>
    <TTGlyph name="cacute" xMin="43" yMin="-11" xMax="452" yMax="715">
      <contour>
        <pt x="314" y="60" on="1"/>
        <pt x="372" y="60" on="0"/>
        <pt x="422" y="93" on="1"/>
        <pt x="422" y="18" on="1"/>
        <pt x="374" y="-11" on="0"/>
        <pt x="304" y="-11" on="1"/>
        <pt x="184" y="-11" on="0"/>
        <pt x="43" y="142" on="0"/>
        <pt x="43" y="360" on="0"/>
        <pt x="184" y="516" on="0"/>
        <pt x="306" y="516" on="1"/>
        <pt x="371" y="516" on="0"/>
        <pt x="422" y="488" on="1"/>
        <pt x="422" y="413" on="1"/>
        <pt x="376" y="444" on="0"/>
        <pt x="314" y="444" on="1"/>
        <pt x="228" y="444" on="0"/>
        <pt x="125" y="333" on="0"/>
        <pt x="126" y="169" on="0"/>
        <pt x="224" y="60" on="0"/>
      </contour>
      <contour>
        <pt x="259" y="559" on="1"/>
        <pt x="358" y="715" on="1"/>
        <pt x="452" y="715" on="1"/>
        <pt x="328" y="559" on="1"/>
      </contour>
    </TTGlyph>
    <TTGlyph name="caron" xMin="45" yMin="642" xMax="375" yMax="798">
      <contour>
        <pt x="248" y="642" on="1"/>
        <pt x="172" y="642" on="1"/>
        <pt x="45" y="798" on="1"/>
        <pt x="125" y="798" on="1"/>
        <pt x="211" y="693" on="1"/>
        <pt x="295" y="798" on="1"/>
        <pt x="375" y="798" on="1"/>
      </contour>
    </TTGlyph>
    <TTGlyph name="ccaron" xMin="43" yMin="-11" xMax="440" yMax="716">
      <contour>
        <pt x="313" y="560" on="1"/>
        <pt x="237" y="560" on="1"/>
        <pt x="110" y="716" on="1"/>
        <pt x="190" y="716" on="1"/>
        <pt x="276" y="611" on="1"/>
        <pt x="360" y="716" on="1"/>
        <pt x="440" y="716" on="1"/>
      </contour>
      <contour>
        <pt x="314" y="444" on="1"/>
        <pt x="228" y="444" on="0"/>
        <pt x="125" y="333" on="0"/>
        <pt x="126" y="169" on="0"/>
        <pt x="224" y="60" on="0"/>
        <pt x="314" y="60" on="1"/>
        <pt x="372" y="60" on="0"/>
        <pt x="422" y="93" on="1"/>
        <pt x="422" y="18" on="1"/>
        <pt x="374" y="-11" on="0"/>
        <pt x="304" y="-11" on="1"/>
        <pt x="184" y="-11" on="0"/>
        <pt x="43" y="142" on="0"/>
        <pt x="43" y="360" on="0"/>
        <pt x="184" y="516" on="0"/>
        <pt x="306" y="516" on="1"/>
        <pt x="371" y="516" on="0"/>
        <pt x="422" y="488" on="1"/>
        <pt x="422" y="413" on="1"/>
        <pt x="376" y="444" on="0"/>
      </contour>
    </TTGlyph>
    <TTGlyph name="ccedilla" xMin="43" yMin="-252" xMax="422" yMax="516">
      <contour>
        <pt x="321" y="-51" on="1"/>
        <pt x="339" y="-76" on="0"/>
        <pt x="339" y="-176" on="0"/>
        <pt x="262" y="-250" on="0"/>
        <pt x="189" y="-252" on="1"/>
        <pt x="189" y="-194" on="1"/>
        <pt x="273" y="-188" on="0"/>
        <pt x="273" y="-123" on="1"/>
        <pt x="273" y="-89" on="0"/>
        <pt x="250" y="-51" on="1"/>
      </contour>
      <contour>
        <pt x="314" y="60" on="1"/>
        <pt x="372" y="60" on="0"/>
        <pt x="422" y="93" on="1"/>
        <pt x="422" y="18" on="1"/>
        <pt x="374" y="-11" on="0"/>
        <pt x="304" y="-11" on="1"/>
        <pt x="184" y="-11" on="0"/>
        <pt x="43" y="142" on="0"/>
        <pt x="43" y="360" on="0"/>
        <pt x="184" y="516" on="0"/>
        <pt x="306" y="516" on="1"/>
        <pt x="371" y="516" on="0"/>
        <pt x="422" y="488" on="1"/>
        <pt x="422" y="413" on="1"/>
        <pt x="376" y="444" on="0"/>
        <pt x="314" y="444" on="1"/>
        <pt x="228" y="444" on="0"/>
        <pt x="125" y="333" on="0"/>
        <pt x="126" y="169" on="0"/>
        <pt x="224" y="60" on="0"/>
      </contour>
    </TTGlyph>
    <TTGlyph name="ccircumflex" xMin="43" yMin="-11" xMax="434" yMax="716">
      <contour>
        <pt x="231" y="716" on="1"/>
        <pt x="307" y="716" on="1"/>
        <pt x="434" y="560" on="1"/>
        <pt x="354" y="560" on="1"/>
        <pt x="269" y="665" on="1"/>
        <pt x="184" y="560" on="1"/>
        <pt x="104" y="560" on="1"/>
      </contour>
      <contour>
        <pt x="314" y="444" on="1"/>
        <pt x="228" y="444" on="0"/>
        <pt x="125" y="333" on="0"/>
        <pt x="126" y="169" on="0"/>
        <pt x="224" y="60" on="0"/>
        <pt x="314" y="60" on="1"/>
        <pt x="372" y="60" on="0"/>
        <pt x="422" y="93" on="1"/>
        <pt x="422" y="18" on="1"/>
        <pt x="374" y="-11" on="0"/>
        <pt x="304" y="-11" on="1"/>
        <pt x="184" y="-11" on="0"/>
        <pt x="43" y="142" on="0"/>
        <pt x="43" y="360" on="0"/>
        <pt x="184" y="516" on="0"/>
        <pt x="306" y="516" on="1"/>
        <pt x="371" y="516" on="0"/>
        <pt x="422" y="488" on="1"/>
        <pt x="422" y="413" on="1"/>
        <pt x="376" y="444" on="0"/>
      </contour>
    </TTGlyph>
    <TTGlyph name="cdotaccent" xMin="43" yMin="-11" xMax="422" yMax="690">
      <contour>
        <pt x="248" y="617" on="0"/>
        <pt x="248" y="661" on="0"/>
        <pt x="278" y="690" on="0"/>
        <pt x="322" y="690" on="0"/>
        <pt x="351" y="661" on="0"/>
        <pt x="351" y="617" on="0"/>
        <pt x="322" y="587" on="0"/>
        <pt x="278" y="587" on="0"/>
      </contour>
      <contour>
        <pt x="314" y="60" on="1"/>
        <pt x="372" y="60" on="0"/>
        <pt x="422" y="93" on="1"/>
        <pt x="422" y="18" on="1"/>
        <pt x="374" y="-11" on="0"/>
        <pt x="304" y="-11" on="1"/>
        <pt x="184" y="-11" on="0"/>
        <pt x="43" y="142" on="0"/>
        <pt x="43" y="360" on="0"/>
        <pt x="184" y="516" on="0"/>
        <pt x="306" y="516" on="1"/>
        <pt x="371" y="516" on="0"/>
        <pt x="422" y="488" on="1"/>
        <pt x="422" y="413" on="1"/>
        <pt x="376" y="444" on="0"/>
        <pt x="314" y="444" on="1"/>
        <pt x="228" y="444" on="0"/>
        <pt x="125" y="333" on="0"/>
        <pt x="126" y="169" on="0"/>
        <pt x="224" y="60" on="0"/>
      </contour>
    </TTGlyph>
    <TTGlyph name="cedilla" xMin="135" yMin="-252" xMax="285" yMax="-51">
      <contour>
        <pt x="267" y="-51" on="1"/>
        <pt x="285" y="-76" on="0"/>
        <pt x="285" y="-176" on="0"/>
        <pt x="208" y="-250" on="0"/>
        <pt x="135" y="-252" on="1"/>
        <pt x="135" y="-194" on="1"/>
        <pt x="219" y="-188" on="0"/>
        <pt x="219" y="-123" on="1"/>
        <pt x="219" y="-89" on="0"/>
        <pt x="196" y="-51" on="1"/>
      </contour>
    </TTGlyph>
    <TTGlyph name="cent" xMin="46" yMin="-111" xMax="412" yMax="615">
      <contour>
        <pt x="318" y="441" on="1"/>
        <pt x="231" y="441" on="0"/>
        <pt x="128" y="332" on="0"/>
        <pt x="127" y="251" on="1"/>
        <pt x="128" y="170" on="0"/>
        <pt x="227" y="64" on="0"/>
        <pt x="318" y="64" on="1"/>
        <pt x="370" y="64" on="0"/>
        <pt x="412" y="88" on="1"/>
        <pt x="412" y="14" on="1"/>
        <pt x="379" y="-2" on="0"/>
        <pt x="334" y="-7" on="1"/>
        <pt x="334" y="-111" on="1"/>
        <pt x="265" y="-111" on="1"/>
        <pt x="265" y="-5" on="1"/>
        <pt x="162" y="8" on="0"/>
        <pt x="46" y="152" on="0"/>
        <pt x="46" y="349" on="0"/>
        <pt x="163" y="496" on="0"/>
        <pt x="265" y="510" on="1"/>
        <pt x="265" y="615" on="1"/>
        <pt x="334" y="615" on="1"/>
        <pt x="334" y="512" on="1"/>
        <pt x="376" y="507" on="0"/>
        <pt x="412" y="490" on="1"/>
        <pt x="412" y="416" on="1"/>
        <pt x="365" y="441" on="0"/>
      </contour>
    </TTGlyph>
    <TTGlyph name="circumflex" xMin="45" yMin="642" xMax="375" yMax="798">
      <contour>
        <pt x="172" y="798" on="1"/>
        <pt x="248" y="798" on="1"/>
        <pt x="375" y="642" on="1"/>
        <pt x="295" y="642" on="1"/>
        <pt x="210" y="747" on="1"/>
        <pt x="125" y="642" on="1"/>
        <pt x="45" y="642" on="1"/>
      </contour>
    </TTGlyph>
    <TTGlyph name="colon" xMin="59" yMin="-1" xMax="176" yMax="438">
      <contour>
        <pt x="59" y="32" on="0"/>
        <pt x="59" y="82" on="0"/>
        <pt x="92" y="116" on="0"/>
        <pt x="142" y="116" on="0"/>
        <pt x="176" y="82" on="0"/>
        <pt x="176" y="32" on="0"/>
        <pt x="142" y="-1" on="0"/>
        <pt x="92" y="-1" on="0"/>
      </contour>
      <contour>
        <pt x="92" y="322" on="0"/>
        <pt x="59" y="355" on="0"/>
        <pt x="59" y="404" on="0"/>
        <pt x="92" y="438" on="0"/>
        <pt x="142" y="438" on="0"/>
        <pt x="176" y="404" on="0"/>
        <pt x="176" y="355" on="0"/>
        <pt x="142" y="322" on="0"/>
      </contour>
    </TTGlyph>
    <TTGlyph name="comma" xMin="-8" yMin="-123" xMax="190" yMax="101">
      <contour>
        <pt x="-8" y="-123" on="1"/>
        <pt x="85" y="101" on="1"/>
        <pt x="190" y="101" on="1"/>
        <pt x="61" y="-123" on="1"/>
      </contour>
    </TTGlyph>
    <TTGlyph name="commaaccent" xMin="115" yMin="-243" xMax="291" yMax="-51">
      <contour>
        <pt x="115" y="-243" on="1"/>
        <pt x="200" y="-51" on="1"/>
        <pt x="291" y="-51" on="1"/>
        <pt x="180" y="-243" on="1"/>
      </contour>
    </TTGlyph>
    <TTGlyph name="copyright" xMin="43" yMin="-9" xMax="733" yMax="682">
      <contour>
        <pt x="294" y="280" on="0"/>
        <pt x="362" y="208" on="0"/>
        <pt x="463" y="208" on="0"/>
        <pt x="495" y="233" on="1"/>
        <pt x="495" y="168" on="1"/>
        <pt x="463" y="147" on="0"/>
        <pt x="411" y="147" on="1"/>
        <pt x="325" y="147" on="0"/>
        <pt x="223" y="256" on="0"/>
        <pt x="224" y="412" on="0"/>
        <pt x="325" y="524" on="0"/>
        <pt x="412" y="524" on="1"/>
        <pt x="459" y="524" on="0"/>
        <pt x="495" y="504" on="1"/>
        <pt x="495" y="439" on="1"/>
        <pt x="460" y="462" on="0"/>
        <pt x="362" y="462" on="0"/>
        <pt x="293" y="391" on="0"/>
      </contour>
      <contour>
        <pt x="110" y="452" on="0"/>
        <pt x="110" y="220" on="0"/>
        <pt x="274" y="57" on="0"/>
        <pt x="504" y="57" on="0"/>
        <pt x="668" y="220" on="0"/>
        <pt x="668" y="452" on="0"/>
        <pt x="504" y="616" on="0"/>
        <pt x="274" y="616" on="0"/>
      </contour>
      <contour>
        <pt x="246" y="-9" on="0"/>
        <pt x="43" y="195" on="0"/>
        <pt x="43" y="478" on="0"/>
        <pt x="246" y="682" on="0"/>
        <pt x="530" y="682" on="0"/>
        <pt x="733" y="478" on="0"/>
        <pt x="733" y="195" on="0"/>
        <pt x="530" y="-9" on="0"/>
      </contour>
    </TTGlyph>
    <TTGlyph name="currency" xMin="34" yMin="76" xMax="509" yMax="547">
      <contour>
        <pt x="207" y="462" on="0"/>
        <pt x="123" y="377" on="0"/>
        <pt x="123" y="248" on="0"/>
        <pt x="207" y="163" on="0"/>
        <pt x="336" y="163" on="0"/>
        <pt x="420" y="247" on="0"/>
        <pt x="420" y="376" on="0"/>
        <pt x="336" y="462" on="0"/>
      </contour>
      <contour>
        <pt x="93" y="183" on="1"/>
        <pt x="55" y="236" on="0"/>
        <pt x="55" y="381" on="0"/>
        <pt x="95" y="437" on="1"/>
        <pt x="34" y="498" on="1"/>
        <pt x="85" y="547" on="1"/>
        <pt x="145" y="486" on="1"/>
        <pt x="202" y="527" on="0"/>
        <pt x="345" y="527" on="0"/>
        <pt x="401" y="490" on="1"/>
        <pt x="459" y="547" on="1"/>
        <pt x="509" y="498" on="1"/>
        <pt x="451" y="440" on="1"/>
        <pt x="489" y="384" on="0"/>
        <pt x="489" y="244" on="0"/>
        <pt x="447" y="186" on="1"/>
        <pt x="509" y="125" on="1"/>
        <pt x="459" y="76" on="1"/>
        <pt x="397" y="137" on="1"/>
        <pt x="341" y="98" on="0"/>
        <pt x="196" y="98" on="0"/>
        <pt x="143" y="134" on="1"/>
        <pt x="85" y="76" on="1"/>
        <pt x="34" y="125" on="1"/>
      </contour>
    </TTGlyph>
    <TTGlyph name="d" xMin="43" yMin="-8" xMax="494" yMax="707">
      <contour>
        <pt x="415" y="707" on="1"/>
        <pt x="494" y="707" on="1"/>
        <pt x="494" y="0" on="1"/>
        <pt x="415" y="0" on="1"/>
        <pt x="415" y="75" on="1"/>
        <pt x="361" y="-8" on="0"/>
        <pt x="158" y="-8" on="0"/>
        <pt x="43" y="142" on="0"/>
        <pt x="43" y="368" on="0"/>
        <pt x="165" y="515" on="0"/>
        <pt x="360" y="515" on="0"/>
        <pt x="415" y="430" on="1"/>
      </contour>
      <contour>
        <pt x="125" y="166" on="0"/>
        <pt x="205" y="64" on="0"/>
        <pt x="328" y="64" on="0"/>
        <pt x="415" y="156" on="0"/>
        <pt x="415" y="353" on="0"/>
        <pt x="325" y="443" on="0"/>
        <pt x="208" y="443" on="0"/>
        <pt x="125" y="342" on="0"/>
      </contour>
    </TTGlyph>
    <TTGlyph name="dagger" xMin="42" yMin="0" xMax="482" yMax="674">
      <contour>
        <pt x="482" y="503" on="1"/>
        <pt x="482" y="434" on="1"/>
        <pt x="294" y="434" on="1"/>
        <pt x="294" y="0" on="1"/>
        <pt x="222" y="0" on="1"/>
        <pt x="222" y="434" on="1"/>
        <pt x="42" y="434" on="1"/>
        <pt x="42" y="503" on="1"/>
        <pt x="222" y="503" on="1"/>
        <pt x="222" y="674" on="1"/>
        <pt x="294" y="674" on="1"/>
        <pt x="294" y="503" on="1"/>
      </contour>
    </TTGlyph>
    <TTGlyph name="daggerdbl" xMin="45" yMin="0" xMax="485" yMax="674">
      <contour>
        <pt x="485" y="434" on="1"/>
        <pt x="297" y="434" on="1"/>
        <pt x="297" y="250" on="1"/>
        <pt x="485" y="250" on="1"/>
        <pt x="485" y="181" on="1"/>
        <pt x="297" y="181" on="1"/>
        <pt x="297" y="0" on="1"/>
        <pt x="225" y="0" on="1"/>
        <pt x="225" y="181" on="1"/>
        <pt x="45" y="181" on="1"/>
        <pt x="45" y="250" on="1"/>
        <pt x="225" y="250" on="1"/>
        <pt x="225" y="434" on="1"/>
        <pt x="45" y="434" on="1"/>
        <pt x="45" y="503" on="1"/>
        <pt x="225" y="503" on="1"/>
        <pt x="225" y="674" on="1"/>
        <pt x="297" y="674" on="1"/>
        <pt x="297" y="503" on="1"/>
        <pt x="485" y="503" on="1"/>
      </contour>
    </TTGlyph>
    <TTGlyph name="dcaron" xMin="43" yMin="-8" xMax="728" yMax="707">
      <contour>
        <pt x="636" y="707" on="1"/>
        <pt x="728" y="707" on="1"/>
        <pt x="617" y="515" on="1"/>
        <pt x="552" y="515" on="1"/>
      </contour>
      <contour>
        <pt x="415" y="707" on="1"/>
        <pt x="494" y="707" on="1"/>
        <pt x="494" y="0" on="1"/>
        <pt x="415" y="0" on="1"/>
        <pt x="415" y="75" on="1"/>
        <pt x="361" y="-8" on="0"/>
        <pt x="158" y="-8" on="0"/>
        <pt x="43" y="142" on="0"/>
        <pt x="43" y="368" on="0"/>
        <pt x="165" y="515" on="0"/>
        <pt x="360" y="515" on="0"/>
        <pt x="415" y="430" on="1"/>
      </contour>
      <contour>
        <pt x="125" y="166" on="0"/>
        <pt x="205" y="64" on="0"/>
        <pt x="328" y="64" on="0"/>
        <pt x="415" y="156" on="0"/>
        <pt x="415" y="353" on="0"/>
        <pt x="325" y="443" on="0"/>
        <pt x="208" y="443" on="0"/>
        <pt x="125" y="342" on="0"/>
      </contour>
    </TTGlyph>
    <TTGlyph name="dcroat" xMin="43" yMin="-8" xMax="565" yMax="707">
      <contour>
        <pt x="565" y="642" on="1"/>
        <pt x="565" y="587" on="1"/>
        <pt x="494" y="587" on="1"/>
        <pt x="494" y="0" on="1"/>
        <pt x="415" y="0" on="1"/>
        <pt x="415" y="75" on="1"/>
        <pt x="361" y="-8" on="0"/>
        <pt x="158" y="-8" on="0"/>
        <pt x="43" y="142" on="0"/>
        <pt x="43" y="368" on="0"/>
        <pt x="165" y="515" on="0"/>
        <pt x="360" y="515" on="0"/>
        <pt x="415" y="430" on="1"/>
        <pt x="415" y="587" on="1"/>
        <pt x="222" y="587" on="1"/>
        <pt x="222" y="642" on="1"/>
        <pt x="415" y="642" on="1"/>
        <pt x="415" y="707" on="1"/>
        <pt x="494" y="707" on="1"/>
        <pt x="494" y="642" on="1"/>
      </contour>
      <contour>
        <pt x="125" y="166" on="0"/>
        <pt x="205" y="64" on="0"/>
        <pt x="328" y="64" on="0"/>
        <pt x="415" y="156" on="0"/>
        <pt x="415" y="353" on="0"/>
        <pt x="325" y="443" on="0"/>
        <pt x="208" y="443" on="0"/>
        <pt x="125" y="342" on="0"/>
      </contour>
    </TTGlyph>
    <TTGlyph name="degree" xMin="30" yMin="386" xMax="325" yMax="676">
      <contour>
        <pt x="93" y="567" on="0"/>
        <pt x="93" y="495" on="0"/>
        <pt x="143" y="445" on="0"/>
        <pt x="215" y="445" on="0"/>
        <pt x="261" y="495" on="0"/>
        <pt x="261" y="567" on="0"/>
        <pt x="212" y="618" on="0"/>
        <pt x="140" y="618" on="0"/>
      </contour>
      <contour>
        <pt x="112" y="386" on="0"/>
        <pt x="30" y="466" on="0"/>
        <pt x="30" y="593" on="0"/>
        <pt x="115" y="676" on="0"/>
        <pt x="242" y="676" on="0"/>
        <pt x="325" y="596" on="0"/>
        <pt x="325" y="470" on="0"/>
        <pt x="239" y="386" on="0"/>
      </contour>
    </TTGlyph>
    <TTGlyph name="dieresis" xMin="58" yMin="671" xMax="363" yMax="774">
      <contour>
        <pt x="260" y="701" on="0"/>
        <pt x="260" y="745" on="0"/>
        <pt x="289" y="774" on="0"/>
        <pt x="333" y="774" on="0"/>
        <pt x="363" y="745" on="0"/>
        <pt x="363" y="701" on="0"/>
        <pt x="333" y="671" on="0"/>
        <pt x="289" y="671" on="0"/>
      </contour>
      <contour>
        <pt x="58" y="701" on="0"/>
        <pt x="58" y="745" on="0"/>
        <pt x="88" y="774" on="0"/>
        <pt x="132" y="774" on="0"/>
        <pt x="161" y="745" on="0"/>
        <pt x="161" y="701" on="0"/>
        <pt x="132" y="671" on="0"/>
        <pt x="88" y="671" on="0"/>
      </contour>
    </TTGlyph>
    <TTGlyph name="divide" xMin="57" yMin="109" xMax="497" yMax="571">
      <contour>
        <pt x="254" y="109" on="0"/>
        <pt x="223" y="140" on="0"/>
        <pt x="223" y="183" on="0"/>
        <pt x="254" y="214" on="0"/>
        <pt x="297" y="214" on="0"/>
        <pt x="328" y="183" on="0"/>
        <pt x="328" y="140" on="0"/>
        <pt x="297" y="109" on="0"/>
      </contour>
      <contour>
        <pt x="57" y="304" on="1"/>
        <pt x="57" y="376" on="1"/>
        <pt x="497" y="376" on="1"/>
        <pt x="497" y="304" on="1"/>
      </contour>
      <contour>
        <pt x="254" y="466" on="0"/>
        <pt x="223" y="497" on="0"/>
        <pt x="223" y="540" on="0"/>
        <pt x="254" y="571" on="0"/>
        <pt x="297" y="571" on="0"/>
        <pt x="328" y="540" on="0"/>
        <pt x="328" y="497" on="0"/>
        <pt x="297" y="466" on="0"/>
      </contour>
    </TTGlyph>
    <TTGlyph name="dollar" xMin="53" yMin="-109" xMax="454" yMax="783">
      <contour>
        <pt x="417" y="564" on="1"/>
        <pt x="356" y="604" on="0"/>
        <pt x="211" y="604" on="0"/>
        <pt x="139" y="547" on="0"/>
        <pt x="139" y="501" on="1"/>
        <pt x="139" y="476" on="0"/>
        <pt x="158" y="439" on="0"/>
        <pt x="184" y="422" on="1"/>
        <pt x="219" y="399" on="0"/>
        <pt x="284" y="370" on="0"/>
        <pt x="326" y="351" on="0"/>
        <pt x="374" y="324" on="0"/>
        <pt x="401" y="302" on="1"/>
        <pt x="454" y="259" on="0"/>
        <pt x="454" y="97" on="0"/>
        <pt x="349" y="1" on="0"/>
        <pt x="264" y="-6" on="1"/>
        <pt x="264" y="-109" on="1"/>
        <pt x="195" y="-109" on="1"/>
        <pt x="195" y="-5" on="1"/>
        <pt x="113" y="3" on="0"/>
        <pt x="56" y="36" on="1"/>
        <pt x="56" y="123" on="1"/>
        <pt x="129" y="68" on="0"/>
        <pt x="234" y="68" on="1"/>
        <pt x="297" y="68" on="0"/>
        <pt x="370" y="125" on="0"/>
        <pt x="370" y="177" on="1"/>
        <pt x="370" y="201" on="0"/>
        <pt x="351" y="238" on="0"/>
        <pt x="300" y="272" on="0"/>
        <pt x="271" y="287" on="0"/>
        <pt x="218" y="309" on="0"/>
        <pt x="176" y="328" on="0"/>
        <pt x="129" y="355" on="0"/>
        <pt x="104" y="377" on="1"/>
        <pt x="53" y="421" on="0"/>
        <pt x="53" y="577" on="0"/>
        <pt x="162" y="673" on="0"/>
        <pt x="246" y="679" on="1"/>
        <pt x="246" y="783" on="1"/>
        <pt x="315" y="783" on="1"/>
        <pt x="315" y="677" on="1"/>
        <pt x="374" y="670" on="0"/>
        <pt x="417" y="649" on="1"/>
      </contour>
    </TTGlyph>
    <TTGlyph name="dotaccent" xMin="159" yMin="672" xMax="262" yMax="775">
      <contour>
        <pt x="159" y="702" on="0"/>
        <pt x="159" y="746" on="0"/>
        <pt x="189" y="775" on="0"/>
        <pt x="233" y="775" on="0"/>
        <pt x="262" y="746" on="0"/>
        <pt x="262" y="702" on="0"/>
        <pt x="233" y="672" on="0"/>
        <pt x="189" y="672" on="0"/>
      </contour>
    </TTGlyph>
    <TTGlyph name="dotlessi" xMin="77" yMin="0" xMax="156" yMax="507">
      <contour>
        <pt x="77" y="0" on="1"/>
        <pt x="77" y="507" on="1"/>
        <pt x="156" y="507" on="1"/>
        <pt x="156" y="0" on="1"/>
      </contour>
    </TTGlyph>
    <TTGlyph name="dvMatraAA_Candrabindu" xMin="-44" yMin="0" xMax="316" yMax="1003">
      <contour>
        <pt x="-22" y="575" on="1"/>
        <pt x="-22" y="642" on="1"/>
        <pt x="288" y="642" on="1"/>
        <pt x="288" y="575" on="1"/>
        <pt x="172" y="575" on="1"/>
        <pt x="172" y="0" on="1"/>
        <pt x="94" y="0" on="1"/>
        <pt x="94" y="575" on="1"/>
      </contour>
      <contour>
        <pt x="85" y="929" on="0"/>
        <pt x="85" y="973" on="0"/>
        <pt x="115" y="1003" on="0"/>
        <pt x="159" y="1003" on="0"/>
        <pt x="189" y="973" on="0"/>
        <pt x="189" y="929" on="0"/>
        <pt x="159" y="900" on="0"/>
        <pt x="114" y="900" on="0"/>
      </contour>
      <contour>
        <pt x="316" y="821" on="0"/>
        <pt x="211" y="739" on="0"/>
        <pt x="59" y="739" on="0"/>
        <pt x="-44" y="819" on="0"/>
        <pt x="-44" y="896" on="1"/>
        <pt x="33" y="896" on="1"/>
        <pt x="33" y="855" on="0"/>
        <pt x="88" y="801" on="0"/>
        <pt x="184" y="801" on="0"/>
        <pt x="238" y="855" on="0"/>
        <pt x="238" y="896" on="1"/>
        <pt x="316" y="896" on="1"/>
      </contour>
    </TTGlyph>
    <TTGlyph name="dvMatraAI_Candrabindu" xMin="-422" yMin="635" xMax="238" yMax="979">
      <contour>
        <pt x="160" y="872" on="1"/>
        <pt x="238" y="872" on="1"/>
        <pt x="238" y="797" on="0"/>
        <pt x="134" y="716" on="0"/>
        <pt x="-19" y="716" on="0"/>
        <pt x="-122" y="795" on="0"/>
        <pt x="-122" y="872" on="1"/>
        <pt x="-45" y="872" on="1"/>
        <pt x="-45" y="831" on="0"/>
        <pt x="10" y="778" on="0"/>
        <pt x="106" y="778" on="0"/>
        <pt x="160" y="831" on="0"/>
      </contour>
      <contour>
        <pt x="-361" y="899" on="1"/>
        <pt x="-254" y="899" on="0"/>
        <pt x="-193" y="804" on="1"/>
        <pt x="-84" y="635" on="1"/>
        <pt x="-189" y="635" on="1"/>
        <pt x="-245" y="677" on="0"/>
        <pt x="-321" y="715" on="0"/>
        <pt x="-395" y="715" on="0"/>
        <pt x="-422" y="706" on="1"/>
        <pt x="-422" y="776" on="1"/>
        <pt x="-398" y="784" on="0"/>
        <pt x="-326" y="784" on="0"/>
        <pt x="-260" y="751" on="0"/>
        <pt x="-216" y="713" on="1"/>
        <pt x="-154" y="658" on="1"/>
        <pt x="-246" y="776" on="1"/>
        <pt x="-290" y="832" on="0"/>
        <pt x="-364" y="832" on="1"/>
        <pt x="-394" y="832" on="0"/>
        <pt x="-422" y="825" on="1"/>
        <pt x="-422" y="893" on="1"/>
        <pt x="-404" y="899" on="0"/>
      </contour>
      <contour>
        <pt x="111" y="905" on="0"/>
        <pt x="81" y="876" on="0"/>
        <pt x="36" y="876" on="0"/>
        <pt x="7" y="905" on="0"/>
        <pt x="7" y="949" on="0"/>
        <pt x="36" y="979" on="0"/>
        <pt x="80" y="979" on="0"/>
        <pt x="111" y="949" on="0"/>
      </contour>
    </TTGlyph>
    <TTGlyph name="dvMatraE_Candrabindu" xMin="-406" yMin="635" xMax="236" yMax="979">
      <contour>
        <pt x="6" y="905" on="0"/>
        <pt x="6" y="949" on="0"/>
        <pt x="35" y="979" on="0"/>
        <pt x="79" y="979" on="0"/>
        <pt x="109" y="949" on="0"/>
        <pt x="109" y="905" on="0"/>
        <pt x="79" y="876" on="0"/>
        <pt x="35" y="876" on="0"/>
      </contour>
      <contour>
        <pt x="236" y="797" on="0"/>
        <pt x="132" y="716" on="0"/>
        <pt x="-21" y="716" on="0"/>
        <pt x="-124" y="795" on="0"/>
        <pt x="-124" y="872" on="1"/>
        <pt x="-47" y="872" on="1"/>
        <pt x="-47" y="831" on="0"/>
        <pt x="8" y="778" on="0"/>
        <pt x="104" y="778" on="0"/>
        <pt x="159" y="831" on="0"/>
        <pt x="159" y="872" on="1"/>
        <pt x="236" y="872" on="1"/>
      </contour>
      <contour>
        <pt x="-352" y="887" on="1"/>
        <pt x="-301" y="887" on="0"/>
        <pt x="-229" y="844" on="0"/>
        <pt x="-199" y="797" on="1"/>
        <pt x="-92" y="635" on="1"/>
        <pt x="-178" y="635" on="1"/>
        <pt x="-265" y="767" on="1"/>
        <pt x="-299" y="819" on="0"/>
        <pt x="-356" y="819" on="1"/>
        <pt x="-376" y="819" on="0"/>
        <pt x="-406" y="813" on="1"/>
        <pt x="-406" y="881" on="1"/>
        <pt x="-370" y="887" on="0"/>
      </contour>
    </TTGlyph>
    <TTGlyph name="dvSHA_MatraVocalicR" xMin="2" yMin="-216" xMax="689" yMax="648">
      <contour>
        <pt x="582" y="575" on="1"/>
        <pt x="582" y="7" on="1"/>
        <pt x="522" y="5" on="0"/>
        <pt x="460" y="-42" on="0"/>
        <pt x="460" y="-112" on="0"/>
        <pt x="512" y="-152" on="0"/>
        <pt x="621" y="-152" on="0"/>
        <pt x="666" y="-127" on="1"/>
        <pt x="666" y="-193" on="1"/>
        <pt x="622" y="-216" on="0"/>
        <pt x="480" y="-216" on="0"/>
        <pt x="383" y="-146" on="0"/>
        <pt x="383" y="-78" on="1"/>
        <pt x="383" y="-31" on="0"/>
        <pt x="449" y="39" on="0"/>
        <pt x="503" y="52" on="1"/>
        <pt x="503" y="214" on="1"/>
        <pt x="357" y="248" on="0"/>
        <pt x="269" y="287" on="1"/>
        <pt x="64" y="162" on="1"/>
        <pt x="2" y="210" on="1"/>
        <pt x="196" y="325" on="1"/>
        <pt x="80" y="396" on="0"/>
        <pt x="80" y="499" on="1"/>
        <pt x="80" y="558" on="0"/>
        <pt x="169" y="648" on="0"/>
        <pt x="318" y="648" on="0"/>
        <pt x="413" y="557" on="0"/>
        <pt x="413" y="493" on="1"/>
        <pt x="413" y="402" on="0"/>
        <pt x="333" y="337" on="1"/>
        <pt x="394" y="313" on="0"/>
        <pt x="503" y="287" on="1"/>
        <pt x="503" y="642" on="1"/>
        <pt x="689" y="642" on="1"/>
        <pt x="689" y="575" on="1"/>
      </contour>
      <contour>
        <pt x="334" y="529" on="0"/>
        <pt x="285" y="583" on="0"/>
        <pt x="206" y="583" on="0"/>
        <pt x="159" y="534" on="0"/>
        <pt x="159" y="498" on="1"/>
        <pt x="159" y="425" on="0"/>
        <pt x="261" y="370" on="1"/>
        <pt x="292" y="391" on="0"/>
        <pt x="334" y="455" on="0"/>
      </contour>
    </TTGlyph>
    <TTGlyph name="e" xMin="43" yMin="-5" xMax="475" yMax="513">
      <contour>
        <pt x="299" y="-5" on="1"/>
        <pt x="184" y="-5" on="0"/>
        <pt x="43" y="136" on="0"/>
        <pt x="43" y="373" on="0"/>
        <pt x="169" y="513" on="0"/>
        <pt x="363" y="513" on="0"/>
        <pt x="475" y="391" on="0"/>
        <pt x="475" y="279" on="1"/>
        <pt x="475" y="247" on="0"/>
        <pt x="470" y="220" on="1"/>
        <pt x="124" y="220" on="1"/>
        <pt x="133" y="145" on="0"/>
        <pt x="229" y="65" on="0"/>
        <pt x="392" y="65" on="0"/>
        <pt x="443" y="100" on="1"/>
        <pt x="443" y="26" on="1"/>
        <pt x="384" y="-5" on="0"/>
      </contour>
      <contour>
        <pt x="396" y="286" on="1"/>
        <pt x="396" y="306" on="1"/>
        <pt x="396" y="369" on="0"/>
        <pt x="328" y="444" on="0"/>
        <pt x="211" y="444" on="0"/>
        <pt x="131" y="362" on="0"/>
        <pt x="124" y="286" on="1"/>
      </contour>
    </TTGlyph>
    <TTGlyph name="eacute" xMin="43" yMin="-5" xMax="475" yMax="716">
      <contour>
        <pt x="299" y="-5" on="1"/>
        <pt x="184" y="-5" on="0"/>
        <pt x="43" y="136" on="0"/>
        <pt x="43" y="373" on="0"/>
        <pt x="169" y="513" on="0"/>
        <pt x="363" y="513" on="0"/>
        <pt x="475" y="391" on="0"/>
        <pt x="475" y="279" on="1"/>
        <pt x="475" y="247" on="0"/>
        <pt x="470" y="220" on="1"/>
        <pt x="124" y="220" on="1"/>
        <pt x="133" y="145" on="0"/>
        <pt x="229" y="65" on="0"/>
        <pt x="392" y="65" on="0"/>
        <pt x="443" y="100" on="1"/>
        <pt x="443" y="26" on="1"/>
        <pt x="384" y="-5" on="0"/>
      </contour>
      <contour>
        <pt x="396" y="286" on="1"/>
        <pt x="396" y="306" on="1"/>
        <pt x="396" y="369" on="0"/>
        <pt x="328" y="444" on="0"/>
        <pt x="211" y="444" on="0"/>
        <pt x="131" y="362" on="0"/>
        <pt x="124" y="286" on="1"/>
      </contour>
      <contour>
        <pt x="444" y="716" on="1"/>
        <pt x="320" y="560" on="1"/>
        <pt x="251" y="560" on="1"/>
        <pt x="350" y="716" on="1"/>
      </contour>
    </TTGlyph>
    <TTGlyph name="ebreve" xMin="43" yMin="-5" xMax="475" yMax="716">
      <contour>
        <pt x="299" y="-5" on="1"/>
        <pt x="184" y="-5" on="0"/>
        <pt x="43" y="136" on="0"/>
        <pt x="43" y="373" on="0"/>
        <pt x="169" y="513" on="0"/>
        <pt x="363" y="513" on="0"/>
        <pt x="475" y="391" on="0"/>
        <pt x="475" y="279" on="1"/>
        <pt x="475" y="247" on="0"/>
        <pt x="470" y="220" on="1"/>
        <pt x="124" y="220" on="1"/>
        <pt x="133" y="145" on="0"/>
        <pt x="229" y="65" on="0"/>
        <pt x="392" y="65" on="0"/>
        <pt x="443" y="100" on="1"/>
        <pt x="443" y="26" on="1"/>
        <pt x="384" y="-5" on="0"/>
      </contour>
      <contour>
        <pt x="396" y="286" on="1"/>
        <pt x="396" y="306" on="1"/>
        <pt x="396" y="369" on="0"/>
        <pt x="328" y="444" on="0"/>
        <pt x="211" y="444" on="0"/>
        <pt x="131" y="362" on="0"/>
        <pt x="124" y="286" on="1"/>
      </contour>
      <contour>
        <pt x="374" y="716" on="1"/>
        <pt x="439" y="716" on="1"/>
        <pt x="439" y="643" on="0"/>
        <pt x="357" y="557" on="0"/>
        <pt x="193" y="557" on="0"/>
        <pt x="110" y="643" on="0"/>
        <pt x="110" y="716" on="1"/>
        <pt x="175" y="716" on="1"/>
        <pt x="175" y="670" on="0"/>
        <pt x="223" y="614" on="0"/>
        <pt x="326" y="614" on="0"/>
        <pt x="374" y="670" on="0"/>
      </contour>
    </TTGlyph>
    <TTGlyph name="ecaron" xMin="43" yMin="-5" xMax="475" yMax="716">
      <contour>
        <pt x="299" y="-5" on="1"/>
        <pt x="184" y="-5" on="0"/>
        <pt x="43" y="136" on="0"/>
        <pt x="43" y="373" on="0"/>
        <pt x="169" y="513" on="0"/>
        <pt x="363" y="513" on="0"/>
        <pt x="475" y="391" on="0"/>
        <pt x="475" y="279" on="1"/>
        <pt x="475" y="247" on="0"/>
        <pt x="470" y="220" on="1"/>
        <pt x="124" y="220" on="1"/>
        <pt x="133" y="145" on="0"/>
        <pt x="229" y="65" on="0"/>
        <pt x="392" y="65" on="0"/>
        <pt x="443" y="100" on="1"/>
        <pt x="443" y="26" on="1"/>
        <pt x="384" y="-5" on="0"/>
      </contour>
      <contour>
        <pt x="396" y="286" on="1"/>
        <pt x="396" y="306" on="1"/>
        <pt x="396" y="369" on="0"/>
        <pt x="328" y="444" on="0"/>
        <pt x="211" y="444" on="0"/>
        <pt x="131" y="362" on="0"/>
        <pt x="124" y="286" on="1"/>
      </contour>
      <contour>
        <pt x="312" y="560" on="1"/>
        <pt x="236" y="560" on="1"/>
        <pt x="109" y="716" on="1"/>
        <pt x="189" y="716" on="1"/>
        <pt x="275" y="611" on="1"/>
        <pt x="359" y="716" on="1"/>
        <pt x="439" y="716" on="1"/>
      </contour>
    </TTGlyph>
    <TTGlyph name="ecircumflex" xMin="43" yMin="-5" xMax="475" yMax="716">
      <contour>
        <pt x="299" y="-5" on="1"/>
        <pt x="184" y="-5" on="0"/>
        <pt x="43" y="136" on="0"/>
        <pt x="43" y="373" on="0"/>
        <pt x="169" y="513" on="0"/>
        <pt x="363" y="513" on="0"/>
        <pt x="475" y="391" on="0"/>
        <pt x="475" y="279" on="1"/>
        <pt x="475" y="247" on="0"/>
        <pt x="470" y="220" on="1"/>
        <pt x="124" y="220" on="1"/>
        <pt x="133" y="145" on="0"/>
        <pt x="229" y="65" on="0"/>
        <pt x="392" y="65" on="0"/>
        <pt x="443" y="100" on="1"/>
        <pt x="443" y="26" on="1"/>
        <pt x="384" y="-5" on="0"/>
      </contour>
      <contour>
        <pt x="396" y="286" on="1"/>
        <pt x="396" y="306" on="1"/>
        <pt x="396" y="369" on="0"/>
        <pt x="328" y="444" on="0"/>
        <pt x="211" y="444" on="0"/>
        <pt x="131" y="362" on="0"/>
        <pt x="124" y="286" on="1"/>
      </contour>
      <contour>
        <pt x="281" y="665" on="1"/>
        <pt x="196" y="560" on="1"/>
        <pt x="116" y="560" on="1"/>
        <pt x="243" y="716" on="1"/>
        <pt x="319" y="716" on="1"/>
        <pt x="446" y="560" on="1"/>
        <pt x="366" y="560" on="1"/>
      </contour>
    </TTGlyph>
    <TTGlyph name="edieresis" xMin="43" yMin="-5" xMax="475" yMax="690">
      <contour>
        <pt x="299" y="-5" on="1"/>
        <pt x="184" y="-5" on="0"/>
        <pt x="43" y="136" on="0"/>
        <pt x="43" y="373" on="0"/>
        <pt x="169" y="513" on="0"/>
        <pt x="363" y="513" on="0"/>
        <pt x="475" y="391" on="0"/>
        <pt x="475" y="279" on="1"/>
        <pt x="475" y="247" on="0"/>
        <pt x="470" y="220" on="1"/>
        <pt x="124" y="220" on="1"/>
        <pt x="133" y="145" on="0"/>
        <pt x="229" y="65" on="0"/>
        <pt x="392" y="65" on="0"/>
        <pt x="443" y="100" on="1"/>
        <pt x="443" y="26" on="1"/>
        <pt x="384" y="-5" on="0"/>
      </contour>
      <contour>
        <pt x="396" y="286" on="1"/>
        <pt x="396" y="306" on="1"/>
        <pt x="396" y="369" on="0"/>
        <pt x="328" y="444" on="0"/>
        <pt x="211" y="444" on="0"/>
        <pt x="131" y="362" on="0"/>
        <pt x="124" y="286" on="1"/>
      </contour>
      <contour>
        <pt x="203" y="587" on="0"/>
        <pt x="159" y="587" on="0"/>
        <pt x="129" y="617" on="0"/>
        <pt x="129" y="661" on="0"/>
        <pt x="159" y="690" on="0"/>
        <pt x="203" y="690" on="0"/>
        <pt x="232" y="661" on="0"/>
        <pt x="232" y="617" on="0"/>
      </contour>
      <contour>
        <pt x="404" y="587" on="0"/>
        <pt x="360" y="587" on="0"/>
        <pt x="331" y="617" on="0"/>
        <pt x="331" y="661" on="0"/>
        <pt x="360" y="690" on="0"/>
        <pt x="404" y="690" on="0"/>
        <pt x="434" y="661" on="0"/>
        <pt x="434" y="617" on="0"/>
      </contour>
    </TTGlyph>
    <TTGlyph name="edotaccent" xMin="43" yMin="-5" xMax="475" yMax="690">
      <contour>
        <pt x="299" y="-5" on="1"/>
        <pt x="184" y="-5" on="0"/>
        <pt x="43" y="136" on="0"/>
        <pt x="43" y="373" on="0"/>
        <pt x="169" y="513" on="0"/>
        <pt x="363" y="513" on="0"/>
        <pt x="475" y="391" on="0"/>
        <pt x="475" y="279" on="1"/>
        <pt x="475" y="247" on="0"/>
        <pt x="470" y="220" on="1"/>
        <pt x="124" y="220" on="1"/>
        <pt x="133" y="145" on="0"/>
        <pt x="229" y="65" on="0"/>
        <pt x="392" y="65" on="0"/>
        <pt x="443" y="100" on="1"/>
        <pt x="443" y="26" on="1"/>
        <pt x="384" y="-5" on="0"/>
      </contour>
      <contour>
        <pt x="396" y="286" on="1"/>
        <pt x="396" y="306" on="1"/>
        <pt x="396" y="369" on="0"/>
        <pt x="328" y="444" on="0"/>
        <pt x="211" y="444" on="0"/>
        <pt x="131" y="362" on="0"/>
        <pt x="124" y="286" on="1"/>
      </contour>
      <contour>
        <pt x="304" y="587" on="0"/>
        <pt x="260" y="587" on="0"/>
        <pt x="230" y="617" on="0"/>
        <pt x="230" y="661" on="0"/>
        <pt x="260" y="690" on="0"/>
        <pt x="304" y="690" on="0"/>
        <pt x="333" y="661" on="0"/>
        <pt x="333" y="617" on="0"/>
      </contour>
    </TTGlyph>
    <TTGlyph name="egrave" xMin="43" yMin="-5" xMax="475" yMax="716">
      <contour>
        <pt x="299" y="-5" on="1"/>
        <pt x="184" y="-5" on="0"/>
        <pt x="43" y="136" on="0"/>
        <pt x="43" y="373" on="0"/>
        <pt x="169" y="513" on="0"/>
        <pt x="363" y="513" on="0"/>
        <pt x="475" y="391" on="0"/>
        <pt x="475" y="279" on="1"/>
        <pt x="475" y="247" on="0"/>
        <pt x="470" y="220" on="1"/>
        <pt x="124" y="220" on="1"/>
        <pt x="133" y="145" on="0"/>
        <pt x="229" y="65" on="0"/>
        <pt x="392" y="65" on="0"/>
        <pt x="443" y="100" on="1"/>
        <pt x="443" y="26" on="1"/>
        <pt x="384" y="-5" on="0"/>
      </contour>
      <contour>
        <pt x="396" y="286" on="1"/>
        <pt x="396" y="306" on="1"/>
        <pt x="396" y="369" on="0"/>
        <pt x="328" y="444" on="0"/>
        <pt x="211" y="444" on="0"/>
        <pt x="131" y="362" on="0"/>
        <pt x="124" y="286" on="1"/>
      </contour>
      <contour>
        <pt x="318" y="560" on="1"/>
        <pt x="249" y="560" on="1"/>
        <pt x="125" y="716" on="1"/>
        <pt x="220" y="716" on="1"/>
      </contour>
    </TTGlyph>
    <TTGlyph name="eight" xMin="51" yMin="-8" xMax="485" yMax="661">
      <contour>
        <pt x="485" y="170" on="1"/>
        <pt x="485" y="89" on="0"/>
        <pt x="359" y="-8" on="0"/>
        <pt x="173" y="-8" on="0"/>
        <pt x="51" y="86" on="0"/>
        <pt x="51" y="165" on="1"/>
        <pt x="51" y="224" on="0"/>
        <pt x="114" y="307" on="0"/>
        <pt x="169" y="326" on="1"/>
        <pt x="62" y="367" on="0"/>
        <pt x="62" y="477" on="1"/>
        <pt x="62" y="564" on="0"/>
        <pt x="182" y="661" on="0"/>
        <pt x="349" y="661" on="0"/>
        <pt x="469" y="566" on="0"/>
        <pt x="469" y="476" on="1"/>
        <pt x="469" y="425" on="0"/>
        <pt x="413" y="348" on="0"/>
        <pt x="364" y="328" on="1"/>
        <pt x="485" y="291" on="0"/>
      </contour>
      <contour>
        <pt x="389" y="527" on="0"/>
        <pt x="325" y="591" on="0"/>
        <pt x="208" y="591" on="0"/>
        <pt x="142" y="525" on="0"/>
        <pt x="142" y="421" on="0"/>
        <pt x="213" y="363" on="0"/>
        <pt x="321" y="363" on="0"/>
        <pt x="389" y="424" on="0"/>
      </contour>
      <contour>
        <pt x="131" y="123" on="0"/>
        <pt x="201" y="62" on="0"/>
        <pt x="332" y="62" on="0"/>
        <pt x="404" y="128" on="0"/>
        <pt x="404" y="225" on="0"/>
        <pt x="334" y="291" on="0"/>
        <pt x="198" y="289" on="0"/>
        <pt x="131" y="220" on="0"/>
      </contour>
    </TTGlyph>
    <TTGlyph name="ellipsis" xMin="36" yMin="-8" xMax="684" yMax="110">
      <contour>
        <pt x="566" y="26" on="0"/>
        <pt x="566" y="76" on="0"/>
        <pt x="600" y="110" on="0"/>
        <pt x="650" y="110" on="0"/>
        <pt x="684" y="76" on="0"/>
        <pt x="684" y="26" on="0"/>
        <pt x="650" y="-8" on="0"/>
        <pt x="600" y="-8" on="0"/>
      </contour>
      <contour>
        <pt x="301" y="26" on="0"/>
        <pt x="301" y="76" on="0"/>
        <pt x="335" y="110" on="0"/>
        <pt x="385" y="110" on="0"/>
        <pt x="419" y="76" on="0"/>
        <pt x="419" y="26" on="0"/>
        <pt x="385" y="-8" on="0"/>
        <pt x="335" y="-8" on="0"/>
      </contour>
      <contour>
        <pt x="36" y="26" on="0"/>
        <pt x="36" y="76" on="0"/>
        <pt x="70" y="110" on="0"/>
        <pt x="120" y="110" on="0"/>
        <pt x="154" y="76" on="0"/>
        <pt x="154" y="26" on="0"/>
        <pt x="120" y="-8" on="0"/>
        <pt x="70" y="-8" on="0"/>
      </contour>
    </TTGlyph>
    <TTGlyph name="emacron" xMin="43" yMin="-5" xMax="475" yMax="666">
      <contour>
        <pt x="299" y="-5" on="1"/>
        <pt x="184" y="-5" on="0"/>
        <pt x="43" y="136" on="0"/>
        <pt x="43" y="373" on="0"/>
        <pt x="169" y="513" on="0"/>
        <pt x="363" y="513" on="0"/>
        <pt x="475" y="391" on="0"/>
        <pt x="475" y="279" on="1"/>
        <pt x="475" y="247" on="0"/>
        <pt x="470" y="220" on="1"/>
        <pt x="124" y="220" on="1"/>
        <pt x="133" y="145" on="0"/>
        <pt x="229" y="65" on="0"/>
        <pt x="392" y="65" on="0"/>
        <pt x="443" y="100" on="1"/>
        <pt x="443" y="26" on="1"/>
        <pt x="384" y="-5" on="0"/>
      </contour>
      <contour>
        <pt x="396" y="286" on="1"/>
        <pt x="396" y="306" on="1"/>
        <pt x="396" y="369" on="0"/>
        <pt x="328" y="444" on="0"/>
        <pt x="211" y="444" on="0"/>
        <pt x="131" y="362" on="0"/>
        <pt x="124" y="286" on="1"/>
      </contour>
      <contour>
        <pt x="417" y="666" on="1"/>
        <pt x="417" y="610" on="1"/>
        <pt x="135" y="610" on="1"/>
        <pt x="135" y="666" on="1"/>
      </contour>
    </TTGlyph>
    <TTGlyph name="emdash" xMin="57" yMin="239" xMax="766" yMax="305">
      <contour>
        <pt x="57" y="239" on="1"/>
        <pt x="57" y="305" on="1"/>
        <pt x="766" y="305" on="1"/>
        <pt x="766" y="239" on="1"/>
      </contour>
    </TTGlyph>
    <TTGlyph name="endash" xMin="57" yMin="237" xMax="483" yMax="303">
      <contour>
        <pt x="57" y="237" on="1"/>
        <pt x="57" y="303" on="1"/>
        <pt x="483" y="303" on="1"/>
        <pt x="483" y="237" on="1"/>
      </contour>
    </TTGlyph>
    <TTGlyph name="eng" xMin="73" yMin="-195" xMax="474" yMax="514">
      <contour>
        <pt x="473" y="241" on="1"/>
        <pt x="474" y="241" on="1"/>
        <pt x="474" y="-55" on="1"/>
        <pt x="474" y="-121" on="0"/>
        <pt x="405" y="-195" on="0"/>
        <pt x="343" y="-195" on="1"/>
        <pt x="310" y="-195" on="0"/>
        <pt x="272" y="-180" on="1"/>
        <pt x="272" y="-110" on="1"/>
        <pt x="309" y="-126" on="0"/>
        <pt x="339" y="-126" on="1"/>
        <pt x="395" y="-126" on="0"/>
        <pt x="395" y="-53" on="1"/>
        <pt x="395" y="0" on="1"/>
        <pt x="394" y="0" on="1"/>
        <pt x="394" y="328" on="1"/>
        <pt x="394" y="384" on="0"/>
        <pt x="337" y="443" on="0"/>
        <pt x="234" y="443" on="0"/>
        <pt x="151" y="355" on="0"/>
        <pt x="151" y="277" on="1"/>
        <pt x="151" y="0" on="1"/>
        <pt x="73" y="0" on="1"/>
        <pt x="73" y="507" on="1"/>
        <pt x="151" y="507" on="1"/>
        <pt x="151" y="419" on="1"/>
        <pt x="196" y="514" on="0"/>
        <pt x="311" y="514" on="1"/>
        <pt x="385" y="514" on="0"/>
        <pt x="473" y="424" on="0"/>
        <pt x="473" y="349" on="1"/>
      </contour>
    </TTGlyph>
    <TTGlyph name="eogonek" xMin="43" yMin="-238" xMax="475" yMax="513">
      <contour>
        <pt x="386" y="-219" on="1"/>
        <pt x="354" y="-238" on="0"/>
        <pt x="249" y="-238" on="0"/>
        <pt x="185" y="-176" on="0"/>
        <pt x="185" y="-128" on="1"/>
        <pt x="185" y="-59" on="0"/>
        <pt x="255" y="-2" on="1"/>
        <pt x="158" y="12" on="0"/>
        <pt x="43" y="148" on="0"/>
        <pt x="43" y="373" on="0"/>
        <pt x="169" y="513" on="0"/>
        <pt x="363" y="513" on="0"/>
        <pt x="475" y="391" on="0"/>
        <pt x="475" y="279" on="1"/>
        <pt x="475" y="247" on="0"/>
        <pt x="470" y="220" on="1"/>
        <pt x="124" y="220" on="1"/>
        <pt x="133" y="145" on="0"/>
        <pt x="229" y="65" on="0"/>
        <pt x="392" y="65" on="0"/>
        <pt x="443" y="100" on="1"/>
        <pt x="443" y="26" on="1"/>
        <pt x="409" y="8" on="0"/>
        <pt x="358" y="0" on="1"/>
        <pt x="253" y="-55" on="0"/>
        <pt x="253" y="-121" on="1"/>
        <pt x="253" y="-150" on="0"/>
        <pt x="288" y="-180" on="0"/>
        <pt x="357" y="-180" on="0"/>
        <pt x="386" y="-158" on="1"/>
      </contour>
      <contour>
        <pt x="396" y="286" on="1"/>
        <pt x="396" y="306" on="1"/>
        <pt x="396" y="369" on="0"/>
        <pt x="328" y="444" on="0"/>
        <pt x="211" y="444" on="0"/>
        <pt x="131" y="362" on="0"/>
        <pt x="124" y="286" on="1"/>
      </contour>
    </TTGlyph>
    <TTGlyph name="equal" xMin="57" yMin="205" xMax="497" yMax="475">
      <contour>
        <pt x="57" y="205" on="1"/>
        <pt x="57" y="274" on="1"/>
        <pt x="497" y="274" on="1"/>
        <pt x="497" y="205" on="1"/>
      </contour>
      <contour>
        <pt x="57" y="407" on="1"/>
        <pt x="57" y="475" on="1"/>
        <pt x="497" y="475" on="1"/>
        <pt x="497" y="407" on="1"/>
      </contour>
    </TTGlyph>
    <TTGlyph name="eth" xMin="38" yMin="-9" xMax="471" yMax="674">
      <contour>
        <pt x="471" y="269" on="1"/>
        <pt x="471" y="133" on="0"/>
        <pt x="353" y="-9" on="0"/>
        <pt x="156" y="-9" on="0"/>
        <pt x="38" y="115" on="0"/>
        <pt x="38" y="298" on="0"/>
        <pt x="156" y="408" on="0"/>
        <pt x="331" y="408" on="0"/>
        <pt x="390" y="340" on="1"/>
        <pt x="372" y="446" on="0"/>
        <pt x="301" y="536" on="1"/>
        <pt x="161" y="464" on="1"/>
        <pt x="161" y="525" on="1"/>
        <pt x="263" y="577" on="1"/>
        <pt x="204" y="636" on="0"/>
        <pt x="131" y="674" on="1"/>
        <pt x="255" y="674" on="1"/>
        <pt x="295" y="648" on="0"/>
        <pt x="330" y="612" on="1"/>
        <pt x="452" y="674" on="1"/>
        <pt x="452" y="613" on="1"/>
        <pt x="367" y="569" on="1"/>
        <pt x="471" y="435" on="0"/>
      </contour>
      <contour>
        <pt x="120" y="138" on="0"/>
        <pt x="194" y="64" on="0"/>
        <pt x="312" y="64" on="0"/>
        <pt x="393" y="157" on="0"/>
        <pt x="396" y="256" on="1"/>
        <pt x="336" y="335" on="0"/>
        <pt x="245" y="335" on="1"/>
        <pt x="191" y="335" on="0"/>
        <pt x="120" y="264" on="0"/>
      </contour>
    </TTGlyph>
    <TTGlyph name="exclam" xMin="65" yMin="-8" xMax="184" yMax="674">
      <contour>
        <pt x="98" y="-8" on="0"/>
        <pt x="65" y="26" on="0"/>
        <pt x="65" y="75" on="0"/>
        <pt x="99" y="110" on="0"/>
        <pt x="149" y="110" on="0"/>
        <pt x="184" y="75" on="0"/>
        <pt x="184" y="26" on="0"/>
        <pt x="150" y="-8" on="0"/>
      </contour>
      <contour>
        <pt x="87" y="204" on="1"/>
        <pt x="87" y="674" on="1"/>
        <pt x="164" y="674" on="1"/>
        <pt x="164" y="204" on="1"/>
      </contour>
    </TTGlyph>
    <TTGlyph name="exclamdown" xMin="65" yMin="-165" xMax="184" yMax="517">
      <contour>
        <pt x="87" y="-165" on="1"/>
        <pt x="87" y="305" on="1"/>
        <pt x="164" y="305" on="1"/>
        <pt x="164" y="-165" on="1"/>
      </contour>
      <contour>
        <pt x="99" y="399" on="0"/>
        <pt x="65" y="434" on="0"/>
        <pt x="65" y="484" on="0"/>
        <pt x="98" y="517" on="0"/>
        <pt x="150" y="517" on="0"/>
        <pt x="184" y="483" on="0"/>
        <pt x="184" y="434" on="0"/>
        <pt x="149" y="399" on="0"/>
      </contour>
    </TTGlyph>
    <TTGlyph name="f" xMin="30" yMin="0" xMax="315" yMax="714">
      <contour>
        <pt x="315" y="635" on="1"/>
        <pt x="291" y="643" on="0"/>
        <pt x="237" y="643" on="0"/>
        <pt x="196" y="599" on="0"/>
        <pt x="196" y="553" on="1"/>
        <pt x="196" y="507" on="1"/>
        <pt x="308" y="507" on="1"/>
        <pt x="308" y="443" on="1"/>
        <pt x="196" y="443" on="1"/>
        <pt x="196" y="0" on="1"/>
        <pt x="117" y="0" on="1"/>
        <pt x="117" y="443" on="1"/>
        <pt x="30" y="443" on="1"/>
        <pt x="30" y="507" on="1"/>
        <pt x="117" y="507" on="1"/>
        <pt x="117" y="554" on="1"/>
        <pt x="117" y="628" on="0"/>
        <pt x="196" y="714" on="0"/>
        <pt x="266" y="714" on="1"/>
        <pt x="290" y="714" on="0"/>
        <pt x="315" y="707" on="1"/>
      </contour>
    </TTGlyph>
    <TTGlyph name="ff" xMin="30" yMin="0" xMax="564" yMax="714">
      <contour>
        <pt x="564" y="635" on="1"/>
        <pt x="540" y="643" on="0"/>
        <pt x="486" y="643" on="0"/>
        <pt x="445" y="599" on="0"/>
        <pt x="445" y="553" on="1"/>
        <pt x="445" y="507" on="1"/>
        <pt x="556" y="507" on="1"/>
        <pt x="556" y="443" on="1"/>
        <pt x="445" y="443" on="1"/>
        <pt x="445" y="0" on="1"/>
        <pt x="366" y="0" on="1"/>
        <pt x="366" y="443" on="1"/>
        <pt x="196" y="443" on="1"/>
        <pt x="196" y="0" on="1"/>
        <pt x="117" y="0" on="1"/>
        <pt x="117" y="443" on="1"/>
        <pt x="30" y="443" on="1"/>
        <pt x="30" y="507" on="1"/>
        <pt x="117" y="507" on="1"/>
        <pt x="117" y="554" on="1"/>
        <pt x="117" y="628" on="0"/>
        <pt x="198" y="714" on="0"/>
        <pt x="349" y="714" on="0"/>
        <pt x="413" y="679" on="1"/>
        <pt x="453" y="714" on="0"/>
        <pt x="515" y="714" on="1"/>
        <pt x="538" y="714" on="0"/>
        <pt x="564" y="707" on="1"/>
      </contour>
      <contour>
        <pt x="366" y="507" on="1"/>
        <pt x="366" y="554" on="1"/>
        <pt x="366" y="588" on="0"/>
        <pt x="376" y="621" on="1"/>
        <pt x="329" y="643" on="0"/>
        <pt x="277" y="643" on="1"/>
        <pt x="196" y="643" on="0"/>
        <pt x="196" y="553" on="1"/>
        <pt x="196" y="507" on="1"/>
      </contour>
    </TTGlyph>
    <TTGlyph name="ffi" xMin="30" yMin="0" xMax="694" yMax="714">
      <contour>
        <pt x="694" y="507" on="1"/>
        <pt x="694" y="0" on="1"/>
        <pt x="615" y="0" on="1"/>
        <pt x="615" y="443" on="1"/>
        <pt x="445" y="443" on="1"/>
        <pt x="445" y="0" on="1"/>
        <pt x="366" y="0" on="1"/>
        <pt x="366" y="443" on="1"/>
        <pt x="196" y="443" on="1"/>
        <pt x="196" y="0" on="1"/>
        <pt x="117" y="0" on="1"/>
        <pt x="117" y="443" on="1"/>
        <pt x="30" y="443" on="1"/>
        <pt x="30" y="507" on="1"/>
        <pt x="117" y="507" on="1"/>
        <pt x="117" y="554" on="1"/>
        <pt x="117" y="628" on="0"/>
        <pt x="198" y="714" on="0"/>
        <pt x="344" y="714" on="0"/>
        <pt x="414" y="679" on="1"/>
        <pt x="454" y="714" on="0"/>
        <pt x="588" y="714" on="0"/>
        <pt x="658" y="680" on="1"/>
        <pt x="658" y="607" on="1"/>
        <pt x="588" y="643" on="0"/>
        <pt x="522" y="643" on="1"/>
        <pt x="445" y="643" on="0"/>
        <pt x="445" y="553" on="1"/>
        <pt x="445" y="507" on="1"/>
      </contour>
      <contour>
        <pt x="366" y="507" on="1"/>
        <pt x="366" y="554" on="1"/>
        <pt x="366" y="588" on="0"/>
        <pt x="376" y="621" on="1"/>
        <pt x="329" y="643" on="0"/>
        <pt x="277" y="643" on="1"/>
        <pt x="196" y="643" on="0"/>
        <pt x="196" y="553" on="1"/>
        <pt x="196" y="507" on="1"/>
      </contour>
    </TTGlyph>
    <TTGlyph name="ffl" xMin="30" yMin="0" xMax="687" yMax="714">
      <contour>
        <pt x="117" y="507" on="1"/>
        <pt x="117" y="554" on="1"/>
        <pt x="117" y="628" on="0"/>
        <pt x="198" y="714" on="0"/>
        <pt x="344" y="714" on="0"/>
        <pt x="414" y="679" on="1"/>
        <pt x="455" y="714" on="0"/>
        <pt x="602" y="714" on="0"/>
        <pt x="687" y="665" on="1"/>
        <pt x="687" y="0" on="1"/>
        <pt x="608" y="0" on="1"/>
        <pt x="608" y="627" on="1"/>
        <pt x="566" y="643" on="0"/>
        <pt x="528" y="643" on="1"/>
        <pt x="446" y="643" on="0"/>
        <pt x="446" y="553" on="1"/>
        <pt x="446" y="507" on="1"/>
        <pt x="557" y="507" on="1"/>
        <pt x="557" y="443" on="1"/>
        <pt x="446" y="443" on="1"/>
        <pt x="446" y="0" on="1"/>
        <pt x="367" y="0" on="1"/>
        <pt x="367" y="443" on="1"/>
        <pt x="196" y="443" on="1"/>
        <pt x="196" y="0" on="1"/>
        <pt x="117" y="0" on="1"/>
        <pt x="117" y="443" on="1"/>
        <pt x="30" y="443" on="1"/>
        <pt x="30" y="507" on="1"/>
      </contour>
      <contour>
        <pt x="367" y="507" on="1"/>
        <pt x="367" y="554" on="1"/>
        <pt x="367" y="592" on="0"/>
        <pt x="377" y="621" on="1"/>
        <pt x="328" y="643" on="0"/>
        <pt x="277" y="643" on="1"/>
        <pt x="196" y="643" on="0"/>
        <pt x="196" y="553" on="1"/>
        <pt x="196" y="507" on="1"/>
      </contour>
    </TTGlyph>
    <TTGlyph name="fi" xMin="30" yMin="0" xMax="445" yMax="714">
      <contour>
        <pt x="445" y="507" on="1"/>
        <pt x="445" y="0" on="1"/>
        <pt x="366" y="0" on="1"/>
        <pt x="366" y="443" on="1"/>
        <pt x="196" y="443" on="1"/>
        <pt x="196" y="0" on="1"/>
        <pt x="117" y="0" on="1"/>
        <pt x="117" y="443" on="1"/>
        <pt x="30" y="443" on="1"/>
        <pt x="30" y="507" on="1"/>
        <pt x="117" y="507" on="1"/>
        <pt x="117" y="554" on="1"/>
        <pt x="117" y="628" on="0"/>
        <pt x="197" y="714" on="0"/>
        <pt x="341" y="714" on="0"/>
        <pt x="409" y="680" on="1"/>
        <pt x="409" y="607" on="1"/>
        <pt x="339" y="643" on="0"/>
        <pt x="273" y="643" on="1"/>
        <pt x="196" y="643" on="0"/>
        <pt x="196" y="553" on="1"/>
        <pt x="196" y="507" on="1"/>
      </contour>
    </TTGlyph>
</ttFont>
